M48
;Layer_Color=9474304
;FILE_FORMAT=2:5
INCH,LZ
;TYPE=PLATED
T1F00S00C0.00394
T2F00S00C0.00787
T3F00S00C0.01575
T4F00S00C0.03543
T5F00S00C0.08268
%
T01
X0002127Y0053423
Y005447
Y0055517
Y0056564
Y005761
Y0058657
Y0059704
Y0060751
Y0061798
Y0062845
Y0063892
Y0064939
X0003052Y0064348
Y0063301
X0003052Y0062254
X0003052Y0061207
Y0060161
X0003052Y0059114
Y0058067
X0003052Y005702
Y0055973
X0003052Y0054926
X0003052Y0053879
X0031694Y0052859
X0032727
X0033761Y0052859
X0034794Y0052859
X0035828
Y0056009
X0034794
X0033761Y0056009
X0032727Y0056009
X0031694
Y0059158
X0032727
X0033761Y0059158
X0034794Y0059158
X0035828
Y0062308
X0034794
X0033761Y0062308
X0032727Y0062308
X0031694
X0031694Y0065458
X0032727
X0033761Y0065458
X0034794Y0065458
X0035828
X0031202Y0073627
X0030021
Y0074906
X0031202
Y0076088
X0030021
X0028741
Y0074906
Y0073627
X0103446Y008534
Y0086605
Y0087871
Y0089136
Y0090401
Y0091667
Y0092932
Y0094198
Y0095463
Y0096729
Y0097994
Y009926
Y0100525
Y0101791
Y0103056
X0111517Y0103351
Y0102086
Y010082
Y0099555
Y009829
Y0097024
Y0095758
Y0094493
Y0093228
Y0091962
Y0090697
Y0089431
Y0088166
Y00869
Y0085635
X0113387
Y00869
Y0088166
Y0089431
Y0090697
Y0091962
Y0093228
Y0094493
Y0095758
Y0097024
Y009829
Y0099555
Y010082
Y0102086
Y0103351
T02
X0011812Y0027269
Y0031009
Y0034848
X0016753Y0034946
Y0027466
X0021556Y0031304
X0028446Y0034848
X0039371Y0034946
X0043899Y0032387
X0039371Y0043903
X0035139Y0044198
X003258
X0038135Y0047993
X0038781Y0052072
X0045277Y0048135
X005571Y0044198
X0059351
X0058269Y0053745
X0047737Y0061127
X00438Y0063883
X0014469Y0068017
X0012668Y007153
X0011615Y0083076
Y0086816
X0011714Y0090556
X0006694Y0090753
Y0083174
X000256Y0081107
X0020572Y0086914
X0014076Y0050005
X0003643Y0049414
X000256Y0036914
X0064371Y002845
X0067028Y003091
X0108958Y0077466
X0109056Y0082091
X0113584Y008219
T03
X0004627Y0023135
X0023721Y0022052
X0025198Y0028351
X0032973Y0018706
X0038584Y0021658
X0048721Y0023824
X0054135Y0030714
X0057973Y0019001
X0065749Y0024119
X0072147Y0024808
X0073131Y0031895
X0072934Y0040359
X00813Y0039966
X0081489Y0047348
X0086812Y0048725
X0093117Y0048228
X0092225Y0059257
X0102658Y0057485
X0102962Y0052564
Y0062476
X010443Y0066934
X0108958Y0066836
X0100395Y0076284
X009567Y00878
X0084351Y0087702
X0076379Y0088489
X0077166Y0083568
X007756Y0076186
X0084056Y0072052
X0075591Y0060635
X0073131Y0056599
X0073032Y0049119
X0069095Y0052662
X0069784Y0063095
X0057875Y0065458
X005128Y0065654
X0055808Y0057288
X0058465Y0083863
X0044391Y0083469
X0037009Y0087702
X0036418Y0078745
X0023032Y0083174
X0024804Y0087111
X0022934Y0090851
X0037206Y0098036
X0043997Y0095379
X0043702Y0107879
X0031694Y0109454
X0058761Y0106796
X0059154Y0114277
X0072343Y0114375
X0077068Y0100989
X0083465Y0095674
X009193Y0095969
X0098426Y0100891
X0095375Y011221
X0106596Y0113292
X0131103Y0070871
X0134056Y0062505
X012382Y0058568
X0123918Y0049611
X0120473Y0028056
X0112206Y0019592
X0100788Y0030418
X0100985Y0040753
X0086615Y0036324
X0086517Y0020084
X0083269Y000345
X0105119Y0003548
X0054135
X0041536Y0008371
X0029036Y0003548
X0023644Y0010905
X0067619Y0077958
T04
X0119488Y0043602
Y0076476
T05
X0011811Y0011811
Y0106299
X0125984
Y0011811
M30
