G04*
G04 #@! TF.GenerationSoftware,Altium Limited,Altium Designer,21.7.2 (23)*
G04*
G04 Layer_Physical_Order=3*
G04 Layer_Color=128*
%FSLAX25Y25*%
%MOIN*%
G70*
G04*
G04 #@! TF.SameCoordinates,01447CE1-1CD8-4097-AA41-C903E93D3707*
G04*
G04*
G04 #@! TF.FilePolarity,Negative*
G04*
G01*
G75*
%ADD69C,0.01968*%
%ADD82C,0.04000*%
%ADD84C,0.05118*%
%ADD86C,0.03150*%
%ADD87C,0.02362*%
%ADD88C,0.01968*%
D69*
X592Y52170D02*
X35631D01*
Y65950D01*
X-196D02*
X35631D01*
X-97Y37800D02*
X18603D01*
X29824Y26580D01*
X67619D01*
X70178Y29139D01*
Y58469D01*
X65060Y63588D02*
X70178Y58469D01*
X47245Y63588D02*
X65060D01*
X30611Y80221D02*
X47245Y63588D01*
X1Y80221D02*
X30611D01*
D82*
X125985Y0D02*
G03*
X137796Y11811I0J11811D01*
G01*
Y106304D02*
G03*
X125985Y118115I-11811J0D01*
G01*
X0Y11811D02*
G03*
X11811Y0I11811J0D01*
G01*
Y118115D02*
G03*
X0Y106304I0J-11811D01*
G01*
X11811Y0D02*
X125985D01*
X137796Y11811D02*
Y106304D01*
X11811Y118115D02*
X125985D01*
X0Y11811D02*
Y106304D01*
D84*
X118996Y75492D02*
D03*
Y42618D02*
D03*
D86*
X87888Y23234D02*
D03*
X99213Y48149D02*
D03*
X90059Y48729D02*
D03*
X85930Y48731D02*
D03*
X97154Y76120D02*
D03*
X90658Y59252D02*
D03*
X108465Y66437D02*
D03*
X95401Y50716D02*
D03*
X120079Y56595D02*
D03*
X94390Y35728D02*
D03*
X85880Y38780D02*
D03*
X94686Y90655D02*
D03*
X108268Y55315D02*
D03*
X83366Y34794D02*
D03*
X78543Y40453D02*
D03*
X78446Y47605D02*
D03*
X90354Y95866D02*
D03*
X83261Y75197D02*
D03*
X39370Y7874D02*
D03*
X22147Y83272D02*
D03*
X60336Y19001D02*
D03*
X53347Y30714D02*
D03*
X42914Y107879D02*
D03*
X36418Y98036D02*
D03*
X35336Y18706D02*
D03*
X55021Y57288D02*
D03*
X82678Y95674D02*
D03*
X76280Y100989D02*
D03*
X76182Y86422D02*
D03*
X74804Y60635D02*
D03*
X94588Y112210D02*
D03*
X83367Y90556D02*
D03*
X43603Y83469D02*
D03*
X43210Y95379D02*
D03*
X22147Y90851D02*
D03*
D87*
X115058Y80605D02*
D03*
Y77160D02*
D03*
X112794Y75684D02*
D03*
X112795Y78937D02*
D03*
X108268Y78051D02*
D03*
X13386Y50394D02*
D03*
X13682Y68017D02*
D03*
X112796Y82190D02*
D03*
X11025Y31009D02*
D03*
X10926Y90556D02*
D03*
X11025Y27269D02*
D03*
Y34848D02*
D03*
X15966Y27466D02*
D03*
Y34946D02*
D03*
X10828Y83076D02*
D03*
Y86816D02*
D03*
X19784Y86914D02*
D03*
X5906Y90753D02*
D03*
Y83174D02*
D03*
X20769Y31304D02*
D03*
X1773Y81107D02*
D03*
X1773Y36914D02*
D03*
X37348Y47993D02*
D03*
X38584Y43903D02*
D03*
X2855Y49414D02*
D03*
X11880Y71530D02*
D03*
D88*
X112599Y103351D02*
D03*
Y102086D02*
D03*
Y100820D02*
D03*
Y99555D02*
D03*
Y98290D02*
D03*
Y94493D02*
D03*
Y93228D02*
D03*
Y91962D02*
D03*
Y90697D02*
D03*
Y89431D02*
D03*
Y88166D02*
D03*
Y86900D02*
D03*
Y85635D02*
D03*
Y95759D02*
D03*
Y97024D02*
D03*
X110729Y103351D02*
D03*
Y102086D02*
D03*
Y100820D02*
D03*
Y99555D02*
D03*
Y98290D02*
D03*
Y94493D02*
D03*
Y93228D02*
D03*
Y91962D02*
D03*
Y90697D02*
D03*
Y89431D02*
D03*
Y88166D02*
D03*
Y86900D02*
D03*
Y85635D02*
D03*
Y95759D02*
D03*
Y97024D02*
D03*
X102658Y96729D02*
D03*
Y95463D02*
D03*
Y85340D02*
D03*
Y86605D02*
D03*
Y87871D02*
D03*
Y89136D02*
D03*
Y90401D02*
D03*
Y91667D02*
D03*
Y92932D02*
D03*
Y94198D02*
D03*
Y97994D02*
D03*
Y99260D02*
D03*
Y100525D02*
D03*
Y101791D02*
D03*
Y103056D02*
D03*
X29233Y73627D02*
D03*
X27954D02*
D03*
X30414D02*
D03*
X29233Y76088D02*
D03*
X27954D02*
D03*
X30414D02*
D03*
Y74906D02*
D03*
X27954D02*
D03*
X29233D02*
D03*
X1340Y53423D02*
D03*
X2265Y60161D02*
D03*
X2265Y58067D02*
D03*
X1340Y60751D02*
D03*
Y64939D02*
D03*
Y56564D02*
D03*
X2265Y55973D02*
D03*
X1340Y62845D02*
D03*
Y54470D02*
D03*
X2265Y62254D02*
D03*
X2265Y59114D02*
D03*
X1340Y58657D02*
D03*
X2265Y64348D02*
D03*
X1340Y63892D02*
D03*
Y61798D02*
D03*
X2265Y63301D02*
D03*
X2265Y54926D02*
D03*
X1340Y59704D02*
D03*
X2265Y57020D02*
D03*
Y53879D02*
D03*
X1340Y57610D02*
D03*
Y55517D02*
D03*
X2265Y61207D02*
D03*
X34007Y65458D02*
D03*
X31940D02*
D03*
X32973Y65458D02*
D03*
X35040Y65458D02*
D03*
X35040Y62308D02*
D03*
X34007D02*
D03*
X32973Y62308D02*
D03*
X31940Y62308D02*
D03*
X35040Y56009D02*
D03*
Y52859D02*
D03*
Y59158D02*
D03*
X34007D02*
D03*
X32973Y59158D02*
D03*
X31940Y59158D02*
D03*
X30907D02*
D03*
X30907Y65458D02*
D03*
X34007Y56009D02*
D03*
X32973Y56009D02*
D03*
X31940Y56009D02*
D03*
X30907D02*
D03*
Y62308D02*
D03*
X34007Y52859D02*
D03*
X32973Y52859D02*
D03*
X31940Y52859D02*
D03*
X30907D02*
D03*
M02*
