G04*
G04 #@! TF.GenerationSoftware,Altium Limited,Altium Designer,21.6.4 (81)*
G04*
G04 Layer_Physical_Order=2*
G04 Layer_Color=32768*
%FSLAX25Y25*%
%MOIN*%
G70*
G04*
G04 #@! TF.SameCoordinates,C4C27F94-8D06-4CED-BA01-644A42B81E3F*
G04*
G04*
G04 #@! TF.FilePolarity,Negative*
G04*
G01*
G75*
%ADD67C,0.01968*%
%ADD80C,0.04000*%
%ADD81C,0.01181*%
%ADD82C,0.05118*%
%ADD83C,0.09843*%
%ADD84C,0.02362*%
%ADD85C,0.03150*%
%ADD86C,0.01968*%
D67*
X70277Y29040D02*
Y58076D01*
X64568Y63784D02*
X70277Y58076D01*
X592Y52170D02*
X35631D01*
Y65950D01*
X-196D02*
X35631D01*
X296Y37800D02*
X18702D01*
X30021Y26481D01*
X67717D01*
X70277Y29040D01*
X47245Y63784D02*
X64568D01*
X30907Y80123D02*
X47245Y63784D01*
X-196Y80123D02*
X30907D01*
D80*
X0Y11811D02*
G03*
X11811Y0I11811J0D01*
G01*
X125985D02*
G03*
X137796Y11811I0J11811D01*
G01*
Y106304D02*
G03*
X125985Y118115I-11811J0D01*
G01*
X11811D02*
G03*
X0Y106304I0J-11811D01*
G01*
X11811Y0D02*
X125985D01*
X137796Y11811D02*
Y106304D01*
X11811Y118115D02*
X125985D01*
X0Y11811D02*
Y106304D01*
D81*
X1Y94099D02*
X1379Y95477D01*
X83859Y69887D02*
X96950Y82977D01*
X83859Y19395D02*
Y69887D01*
X75296Y10832D02*
X83859Y19395D01*
X26281Y10832D02*
X75296D01*
X12895Y24217D02*
X26281Y10832D01*
X-97Y24217D02*
X12895D01*
X105414Y98233D02*
Y105418D01*
X87993D02*
X105414D01*
X86418Y103843D02*
X87993Y105418D01*
X105414Y82977D02*
Y98233D01*
X96950Y82977D02*
X105414D01*
X1379Y95477D02*
X78052D01*
X86418Y103843D01*
D82*
X118701Y76476D02*
D03*
Y43602D02*
D03*
D83*
X125984Y106299D02*
D03*
Y11811D02*
D03*
X11811D02*
D03*
Y106299D02*
D03*
D84*
X13386Y50394D02*
D03*
X13682Y68017D02*
D03*
X19784Y86914D02*
D03*
X20769Y31304D02*
D03*
X1773Y81107D02*
D03*
X1773Y36914D02*
D03*
X37348Y47993D02*
D03*
X38584Y43903D02*
D03*
X2855Y49414D02*
D03*
X11880Y71530D02*
D03*
D85*
X22147Y83272D02*
D03*
X57186Y19001D02*
D03*
X53347Y30714D02*
D03*
X3839Y23135D02*
D03*
X57088Y65458D02*
D03*
X105808Y113292D02*
D03*
X57973Y106796D02*
D03*
X133269Y62505D02*
D03*
X130316Y70871D02*
D03*
X123032Y58568D02*
D03*
X123131Y49611D02*
D03*
X100198Y40753D02*
D03*
X100001Y30418D02*
D03*
X119686Y28056D02*
D03*
X111418Y19592D02*
D03*
X104332Y3548D02*
D03*
X82481Y3450D02*
D03*
X40749Y8371D02*
D03*
X28249Y3548D02*
D03*
X53347D02*
D03*
X32186Y18706D02*
D03*
X108170Y66836D02*
D03*
X55021Y57288D02*
D03*
X82678Y95674D02*
D03*
X76280Y100989D02*
D03*
X76379Y83568D02*
D03*
X74804Y60635D02*
D03*
X85729Y20084D02*
D03*
X30907Y109454D02*
D03*
X58367Y114277D02*
D03*
X71556Y114375D02*
D03*
X103643Y66934D02*
D03*
X66832Y77958D02*
D03*
X76773Y76186D02*
D03*
X92330Y48228D02*
D03*
X75591Y88489D02*
D03*
X57678Y83863D02*
D03*
X36221Y87702D02*
D03*
X24017Y87111D02*
D03*
X35631Y78745D02*
D03*
X50493Y65655D02*
D03*
X68997Y63095D02*
D03*
X72343Y56599D02*
D03*
X72245Y49119D02*
D03*
X72147Y40359D02*
D03*
X72343Y31895D02*
D03*
X71359Y24808D02*
D03*
X64962Y24119D02*
D03*
X47934Y23824D02*
D03*
X24410Y28351D02*
D03*
X22934Y22052D02*
D03*
X37796Y21658D02*
D03*
X94588Y112210D02*
D03*
X102174Y62477D02*
D03*
X101871Y57485D02*
D03*
X102174Y52564D02*
D03*
X94883Y87800D02*
D03*
X80513Y39966D02*
D03*
X80702Y47348D02*
D03*
X97639Y100891D02*
D03*
X99607Y76284D02*
D03*
X91143Y95969D02*
D03*
X91438Y59257D02*
D03*
X83564Y87702D02*
D03*
X86025Y48725D02*
D03*
X85828Y36324D02*
D03*
X83269Y72052D02*
D03*
X43603Y83469D02*
D03*
X43210Y95379D02*
D03*
X22147Y90851D02*
D03*
D86*
X29233Y73627D02*
D03*
X27954D02*
D03*
X30414D02*
D03*
X29233Y76088D02*
D03*
X27954D02*
D03*
X30414D02*
D03*
Y74906D02*
D03*
X27954D02*
D03*
X29233D02*
D03*
X1340Y53423D02*
D03*
X2265Y60161D02*
D03*
X2265Y58067D02*
D03*
X1340Y60751D02*
D03*
Y64939D02*
D03*
Y56564D02*
D03*
X2265Y55973D02*
D03*
X1340Y62845D02*
D03*
Y54470D02*
D03*
X2265Y62254D02*
D03*
X2265Y59114D02*
D03*
X1340Y58657D02*
D03*
X2265Y64348D02*
D03*
X1340Y63892D02*
D03*
Y61798D02*
D03*
X2265Y63301D02*
D03*
X2265Y54926D02*
D03*
X1340Y59704D02*
D03*
X2265Y57020D02*
D03*
Y53879D02*
D03*
X1340Y57610D02*
D03*
Y55517D02*
D03*
X2265Y61207D02*
D03*
X34007Y65458D02*
D03*
X31940D02*
D03*
X32973Y65458D02*
D03*
X35040Y65458D02*
D03*
X35040Y62308D02*
D03*
X34007D02*
D03*
X32973Y62308D02*
D03*
X31940Y62308D02*
D03*
X35040Y56009D02*
D03*
Y52859D02*
D03*
Y59158D02*
D03*
X34007D02*
D03*
X32973Y59158D02*
D03*
X31940Y59158D02*
D03*
X30907D02*
D03*
X30907Y65458D02*
D03*
X34007Y56009D02*
D03*
X32973Y56009D02*
D03*
X31940Y56009D02*
D03*
X30907D02*
D03*
Y62308D02*
D03*
X34007Y52859D02*
D03*
X32973Y52859D02*
D03*
X31940Y52859D02*
D03*
X30907D02*
D03*
M02*
