G04*
G04 #@! TF.GenerationSoftware,Altium Limited,Altium Designer,21.7.2 (23)*
G04*
G04 Layer_Color=32896*
%FSLAX25Y25*%
%MOIN*%
G70*
G04*
G04 #@! TF.SameCoordinates,01447CE1-1CD8-4097-AA41-C903E93D3707*
G04*
G04*
G04 #@! TF.FilePolarity,Positive*
G04*
G01*
G75*
%ADD10C,0.00787*%
D10*
X103741Y51053D02*
Y47118D01*
X101117D01*
X99149Y49741D02*
X97838D01*
X97182Y49086D01*
Y47118D01*
X99149D01*
X99805Y47774D01*
X99149Y48430D01*
X97182D01*
X95870Y47118D02*
X93902D01*
X93246Y47774D01*
X93902Y48430D01*
X95214D01*
X95870Y49086D01*
X95214Y49741D01*
X93246D01*
X89966Y47118D02*
X91278D01*
X91934Y47774D01*
Y49086D01*
X91278Y49741D01*
X89966D01*
X89310Y49086D01*
Y48430D01*
X91934D01*
X87998Y49741D02*
Y47118D01*
Y48430D01*
X87342Y49086D01*
X86686Y49741D01*
X86030D01*
X81439Y50397D02*
X82095Y51053D01*
X83407D01*
X84062Y50397D01*
Y47774D01*
X83407Y47118D01*
X82095D01*
X81439Y47774D01*
X80127Y51053D02*
Y47118D01*
Y49086D01*
X79471Y49741D01*
X78159D01*
X77503Y49086D01*
Y47118D01*
X76191Y46462D02*
X73567D01*
X72255Y50397D02*
X71599Y51053D01*
X70287D01*
X69631Y50397D01*
Y47774D01*
X70287Y47118D01*
X71599D01*
X72255Y47774D01*
Y50397D01*
X10566Y71690D02*
X11222Y72346D01*
X12534D01*
X13190Y71690D01*
Y69066D01*
X12534Y68410D01*
X11222D01*
X10566Y69066D01*
X9254Y72346D02*
Y68410D01*
Y70378D01*
X8598Y71034D01*
X7286D01*
X6630Y70378D01*
Y68410D01*
X3351D02*
Y72346D01*
X5319Y70378D01*
X2695D01*
X26905Y71789D02*
X27561Y72445D01*
X28873D01*
X29528Y71789D01*
Y69165D01*
X28873Y68509D01*
X27561D01*
X26905Y69165D01*
X25593Y72445D02*
Y68509D01*
Y70477D01*
X24937Y71133D01*
X23625D01*
X22969Y70477D01*
Y68509D01*
X21657Y71789D02*
X21001Y72445D01*
X19689D01*
X19033Y71789D01*
Y71133D01*
X19689Y70477D01*
X20345D01*
X19689D01*
X19033Y69821D01*
Y69165D01*
X19689Y68509D01*
X21001D01*
X21657Y69165D01*
X10369Y38324D02*
X11025Y38980D01*
X12337D01*
X12993Y38324D01*
Y35700D01*
X12337Y35044D01*
X11025D01*
X10369Y35700D01*
X9057Y38980D02*
Y35044D01*
Y37012D01*
X8401Y37668D01*
X7090D01*
X6434Y37012D01*
Y35044D01*
X5122D02*
X3810D01*
X4466D01*
Y38980D01*
X5122Y38324D01*
X27200Y38226D02*
X27856Y38882D01*
X29168D01*
X29824Y38226D01*
Y35602D01*
X29168Y34946D01*
X27856D01*
X27200Y35602D01*
X25888Y38882D02*
Y34946D01*
Y36914D01*
X25232Y37570D01*
X23920D01*
X23264Y36914D01*
Y34946D01*
X19329D02*
X21952D01*
X19329Y37570D01*
Y38226D01*
X19985Y38882D01*
X21296D01*
X21952Y38226D01*
X103643Y39341D02*
Y35405D01*
X101019D01*
X99051Y38029D02*
X97739D01*
X97083Y37373D01*
Y35405D01*
X99051D01*
X99707Y36061D01*
X99051Y36717D01*
X97083D01*
X95771Y35405D02*
X93803D01*
X93147Y36061D01*
X93803Y36717D01*
X95115D01*
X95771Y37373D01*
X95115Y38029D01*
X93147D01*
X89868Y35405D02*
X91180D01*
X91835Y36061D01*
Y37373D01*
X91180Y38029D01*
X89868D01*
X89212Y37373D01*
Y36717D01*
X91835D01*
X87900Y38029D02*
Y35405D01*
Y36717D01*
X87244Y37373D01*
X86588Y38029D01*
X85932D01*
X81340Y38685D02*
X81996Y39341D01*
X83308D01*
X83964Y38685D01*
Y36061D01*
X83308Y35405D01*
X81996D01*
X81340Y36061D01*
X80028Y39341D02*
Y35405D01*
Y37373D01*
X79372Y38029D01*
X78060D01*
X77404Y37373D01*
Y35405D01*
X76092Y34749D02*
X73469D01*
X72157Y35405D02*
X70845D01*
X71501D01*
Y39341D01*
X72157Y38685D01*
X101806Y60994D02*
X102462Y61650D01*
X103774D01*
X104430Y60994D01*
Y60338D01*
X103774Y59682D01*
X102462D01*
X101806Y59026D01*
Y58371D01*
X102462Y57714D01*
X103774D01*
X104430Y58371D01*
X99838Y60994D02*
Y60338D01*
X100494D01*
X99182D01*
X99838D01*
Y58371D01*
X99182Y57714D01*
X96559Y60338D02*
X95247D01*
X94591Y59682D01*
Y57714D01*
X96559D01*
X97215Y58371D01*
X96559Y59026D01*
X94591D01*
X93279Y60338D02*
Y57714D01*
Y59026D01*
X92623Y59682D01*
X91967Y60338D01*
X91311D01*
X88687Y60994D02*
Y60338D01*
X89343D01*
X88031D01*
X88687D01*
Y58371D01*
X88031Y57714D01*
X86063Y57059D02*
X83439D01*
X79504Y60994D02*
X80160Y61650D01*
X81472D01*
X82128Y60994D01*
Y60338D01*
X81472Y59682D01*
X80160D01*
X79504Y59026D01*
Y58371D01*
X80160Y57714D01*
X81472D01*
X82128Y58371D01*
X78192Y57714D02*
X76880D01*
X77536D01*
Y60338D01*
X78192D01*
X73600Y56403D02*
X72944D01*
X72288Y57059D01*
Y60338D01*
X74256D01*
X74912Y59682D01*
Y58371D01*
X74256Y57714D01*
X72288D01*
X100527Y72346D02*
X103151D01*
Y70378D01*
X101839Y71034D01*
X101183D01*
X100527Y70378D01*
Y69066D01*
X101183Y68410D01*
X102495D01*
X103151Y69066D01*
X99215Y72346D02*
Y69722D01*
X97903Y68410D01*
X96591Y69722D01*
Y72346D01*
X103938Y83271D02*
Y80648D01*
X102626Y79336D01*
X101314Y80648D01*
Y83271D01*
X97378Y82615D02*
X98034Y83271D01*
X99346D01*
X100002Y82615D01*
Y79992D01*
X99346Y79336D01*
X98034D01*
X97378Y79992D01*
X93443Y82615D02*
X94099Y83271D01*
X95411D01*
X96066Y82615D01*
Y79992D01*
X95411Y79336D01*
X94099D01*
X93443Y79992D01*
X12664Y81697D02*
X10565D01*
X11614D01*
Y78549D01*
X9515D02*
Y81697D01*
X7941D01*
X7416Y81173D01*
Y80123D01*
X7941Y79598D01*
X9515D01*
X6367Y79074D02*
X5842Y78549D01*
X4792D01*
X4267Y79074D01*
Y81173D01*
X4792Y81697D01*
X5842D01*
X6367Y81173D01*
Y80648D01*
X5842Y80123D01*
X4267D01*
X12565Y48331D02*
X10466D01*
X11516D01*
Y45183D01*
X9417D02*
Y48331D01*
X7842D01*
X7318Y47807D01*
Y46757D01*
X7842Y46232D01*
X9417D01*
X6268Y47807D02*
X5743Y48331D01*
X4694D01*
X4169Y47807D01*
Y47282D01*
X4694Y46757D01*
X4169Y46232D01*
Y45707D01*
X4694Y45183D01*
X5743D01*
X6268Y45707D01*
Y46232D01*
X5743Y46757D01*
X6268Y47282D01*
Y47807D01*
X5743Y46757D02*
X4694D01*
X27427Y81894D02*
X25328D01*
X26378D01*
Y78746D01*
X24279D02*
Y81894D01*
X22705D01*
X22180Y81369D01*
Y80320D01*
X22705Y79795D01*
X24279D01*
X21130Y81894D02*
X19031D01*
Y81369D01*
X21130Y79270D01*
Y78746D01*
X27526Y48528D02*
X25427D01*
X26476D01*
Y45379D01*
X24377D02*
Y48528D01*
X22803D01*
X22278Y48003D01*
Y46954D01*
X22803Y46429D01*
X24377D01*
X19130Y48528D02*
X20179Y48003D01*
X21229Y46954D01*
Y45904D01*
X20704Y45379D01*
X19654D01*
X19130Y45904D01*
Y46429D01*
X19654Y46954D01*
X21229D01*
X114632Y44001D02*
X112533D01*
X113583D01*
Y40852D01*
X111484D02*
Y44001D01*
X109909D01*
X109385Y43476D01*
Y42426D01*
X109909Y41901D01*
X111484D01*
X106236Y44001D02*
X108335D01*
Y42426D01*
X107285Y42951D01*
X106761D01*
X106236Y42426D01*
Y41377D01*
X106761Y40852D01*
X107810D01*
X108335Y41377D01*
X114435Y55024D02*
X112336D01*
X113386D01*
Y51876D01*
X111287D02*
Y55024D01*
X109712D01*
X109188Y54499D01*
Y53450D01*
X109712Y52925D01*
X111287D01*
X106564Y51876D02*
Y55024D01*
X108138Y53450D01*
X106039D01*
X114632Y66146D02*
X112533D01*
X113583D01*
Y62998D01*
X111484D02*
Y66146D01*
X109909D01*
X109385Y65621D01*
Y64572D01*
X109909Y64047D01*
X111484D01*
X108335Y65621D02*
X107810Y66146D01*
X106761D01*
X106236Y65621D01*
Y65097D01*
X106761Y64572D01*
X107285D01*
X106761D01*
X106236Y64047D01*
Y63522D01*
X106761Y62998D01*
X107810D01*
X108335Y63522D01*
X115124Y77170D02*
X113025D01*
X114075D01*
Y74021D01*
X111976D02*
Y77170D01*
X110401D01*
X109877Y76645D01*
Y75595D01*
X110401Y75071D01*
X111976D01*
X106728Y74021D02*
X108827D01*
X106728Y76120D01*
Y76645D01*
X107253Y77170D01*
X108302D01*
X108827Y76645D01*
X113812Y88292D02*
X111713D01*
X112763D01*
Y85143D01*
X110663D02*
Y88292D01*
X109089D01*
X108564Y87767D01*
Y86718D01*
X109089Y86193D01*
X110663D01*
X107515Y85143D02*
X106465D01*
X106990D01*
Y88292D01*
X107515Y87767D01*
M02*
