G04*
G04 #@! TF.GenerationSoftware,Altium Limited,Altium Designer,21.7.2 (23)*
G04*
G04 Layer_Physical_Order=1*
G04 Layer_Color=255*
%FSLAX25Y25*%
%MOIN*%
G70*
G04*
G04 #@! TF.SameCoordinates,01447CE1-1CD8-4097-AA41-C903E93D3707*
G04*
G04*
G04 #@! TF.FilePolarity,Positive*
G04*
G01*
G75*
%ADD14R,0.01968X0.02362*%
G04:AMPARAMS|DCode=15|XSize=47.64mil|YSize=22.84mil|CornerRadius=2.85mil|HoleSize=0mil|Usage=FLASHONLY|Rotation=180.000|XOffset=0mil|YOffset=0mil|HoleType=Round|Shape=RoundedRectangle|*
%AMROUNDEDRECTD15*
21,1,0.04764,0.01713,0,0,180.0*
21,1,0.04193,0.02284,0,0,180.0*
1,1,0.00571,-0.02097,0.00856*
1,1,0.00571,0.02097,0.00856*
1,1,0.00571,0.02097,-0.00856*
1,1,0.00571,-0.02097,-0.00856*
%
%ADD15ROUNDEDRECTD15*%
G04:AMPARAMS|DCode=16|XSize=62.99mil|YSize=86.61mil|CornerRadius=6.3mil|HoleSize=0mil|Usage=FLASHONLY|Rotation=90.000|XOffset=0mil|YOffset=0mil|HoleType=Round|Shape=RoundedRectangle|*
%AMROUNDEDRECTD16*
21,1,0.06299,0.07402,0,0,90.0*
21,1,0.05039,0.08661,0,0,90.0*
1,1,0.01260,0.03701,0.02520*
1,1,0.01260,0.03701,-0.02520*
1,1,0.01260,-0.03701,-0.02520*
1,1,0.01260,-0.03701,0.02520*
%
%ADD16ROUNDEDRECTD16*%
G04:AMPARAMS|DCode=17|XSize=27.56mil|YSize=59.06mil|CornerRadius=2.76mil|HoleSize=0mil|Usage=FLASHONLY|Rotation=90.000|XOffset=0mil|YOffset=0mil|HoleType=Round|Shape=RoundedRectangle|*
%AMROUNDEDRECTD17*
21,1,0.02756,0.05354,0,0,90.0*
21,1,0.02205,0.05906,0,0,90.0*
1,1,0.00551,0.02677,0.01102*
1,1,0.00551,0.02677,-0.01102*
1,1,0.00551,-0.02677,-0.01102*
1,1,0.00551,-0.02677,0.01102*
%
%ADD17ROUNDEDRECTD17*%
%ADD18R,0.02362X0.01968*%
G04:AMPARAMS|DCode=19|XSize=47.64mil|YSize=22.84mil|CornerRadius=2.85mil|HoleSize=0mil|Usage=FLASHONLY|Rotation=270.000|XOffset=0mil|YOffset=0mil|HoleType=Round|Shape=RoundedRectangle|*
%AMROUNDEDRECTD19*
21,1,0.04764,0.01713,0,0,270.0*
21,1,0.04193,0.02284,0,0,270.0*
1,1,0.00571,-0.00856,-0.02097*
1,1,0.00571,-0.00856,0.02097*
1,1,0.00571,0.00856,0.02097*
1,1,0.00571,0.00856,-0.02097*
%
%ADD19ROUNDEDRECTD19*%
%ADD20R,0.04134X0.03740*%
%ADD21R,0.02756X0.03543*%
%ADD22C,0.00906*%
G04:AMPARAMS|DCode=23|XSize=11.81mil|YSize=20.47mil|CornerRadius=0.59mil|HoleSize=0mil|Usage=FLASHONLY|Rotation=90.000|XOffset=0mil|YOffset=0mil|HoleType=Round|Shape=RoundedRectangle|*
%AMROUNDEDRECTD23*
21,1,0.01181,0.01929,0,0,90.0*
21,1,0.01063,0.02047,0,0,90.0*
1,1,0.00118,0.00965,0.00532*
1,1,0.00118,0.00965,-0.00532*
1,1,0.00118,-0.00965,-0.00532*
1,1,0.00118,-0.00965,0.00532*
%
%ADD23ROUNDEDRECTD23*%
G04:AMPARAMS|DCode=24|XSize=11.81mil|YSize=19.29mil|CornerRadius=0.59mil|HoleSize=0mil|Usage=FLASHONLY|Rotation=90.000|XOffset=0mil|YOffset=0mil|HoleType=Round|Shape=RoundedRectangle|*
%AMROUNDEDRECTD24*
21,1,0.01181,0.01811,0,0,90.0*
21,1,0.01063,0.01929,0,0,90.0*
1,1,0.00118,0.00906,0.00532*
1,1,0.00118,0.00906,-0.00532*
1,1,0.00118,-0.00906,-0.00532*
1,1,0.00118,-0.00906,0.00532*
%
%ADD24ROUNDEDRECTD24*%
%ADD25R,0.03937X0.02756*%
%ADD26O,0.01772X0.04134*%
%ADD27R,0.02756X0.03937*%
G04:AMPARAMS|DCode=28|XSize=19.68mil|YSize=23.62mil|CornerRadius=0mil|HoleSize=0mil|Usage=FLASHONLY|Rotation=45.000|XOffset=0mil|YOffset=0mil|HoleType=Round|Shape=Rectangle|*
%AMROTATEDRECTD28*
4,1,4,0.00139,-0.01531,-0.01531,0.00139,-0.00139,0.01531,0.01531,-0.00139,0.00139,-0.01531,0.0*
%
%ADD28ROTATEDRECTD28*%

%ADD29O,0.02205X0.00709*%
%ADD30O,0.05354X0.00709*%
%ADD31R,0.03543X0.02756*%
G04:AMPARAMS|DCode=32|XSize=39.37mil|YSize=41.34mil|CornerRadius=3.94mil|HoleSize=0mil|Usage=FLASHONLY|Rotation=0.000|XOffset=0mil|YOffset=0mil|HoleType=Round|Shape=RoundedRectangle|*
%AMROUNDEDRECTD32*
21,1,0.03937,0.03347,0,0,0.0*
21,1,0.03150,0.04134,0,0,0.0*
1,1,0.00787,0.01575,-0.01673*
1,1,0.00787,-0.01575,-0.01673*
1,1,0.00787,-0.01575,0.01673*
1,1,0.00787,0.01575,0.01673*
%
%ADD32ROUNDEDRECTD32*%
G04:AMPARAMS|DCode=33|XSize=40.35mil|YSize=118.11mil|CornerRadius=4.04mil|HoleSize=0mil|Usage=FLASHONLY|Rotation=180.000|XOffset=0mil|YOffset=0mil|HoleType=Round|Shape=RoundedRectangle|*
%AMROUNDEDRECTD33*
21,1,0.04035,0.11004,0,0,180.0*
21,1,0.03228,0.11811,0,0,180.0*
1,1,0.00807,-0.01614,0.05502*
1,1,0.00807,0.01614,0.05502*
1,1,0.00807,0.01614,-0.05502*
1,1,0.00807,-0.01614,-0.05502*
%
%ADD33ROUNDEDRECTD33*%
%ADD34R,0.03740X0.04134*%
G04:AMPARAMS|DCode=35|XSize=15.16mil|YSize=37.4mil|CornerRadius=0.38mil|HoleSize=0mil|Usage=FLASHONLY|Rotation=90.000|XOffset=0mil|YOffset=0mil|HoleType=Round|Shape=RoundedRectangle|*
%AMROUNDEDRECTD35*
21,1,0.01516,0.03664,0,0,90.0*
21,1,0.01440,0.03740,0,0,90.0*
1,1,0.00076,0.01832,0.00720*
1,1,0.00076,0.01832,-0.00720*
1,1,0.00076,-0.01832,-0.00720*
1,1,0.00076,-0.01832,0.00720*
%
%ADD35ROUNDEDRECTD35*%
G04:AMPARAMS|DCode=36|XSize=22.05mil|YSize=29.13mil|CornerRadius=0.55mil|HoleSize=0mil|Usage=FLASHONLY|Rotation=90.000|XOffset=0mil|YOffset=0mil|HoleType=Round|Shape=RoundedRectangle|*
%AMROUNDEDRECTD36*
21,1,0.02205,0.02803,0,0,90.0*
21,1,0.02095,0.02913,0,0,90.0*
1,1,0.00110,0.01402,0.01047*
1,1,0.00110,0.01402,-0.01047*
1,1,0.00110,-0.01402,-0.01047*
1,1,0.00110,-0.01402,0.01047*
%
%ADD36ROUNDEDRECTD36*%
G04:AMPARAMS|DCode=37|XSize=61.02mil|YSize=14.76mil|CornerRadius=0.37mil|HoleSize=0mil|Usage=FLASHONLY|Rotation=90.000|XOffset=0mil|YOffset=0mil|HoleType=Round|Shape=RoundedRectangle|*
%AMROUNDEDRECTD37*
21,1,0.06102,0.01403,0,0,90.0*
21,1,0.06029,0.01476,0,0,90.0*
1,1,0.00074,0.00701,0.03014*
1,1,0.00074,0.00701,-0.03014*
1,1,0.00074,-0.00701,-0.03014*
1,1,0.00074,-0.00701,0.03014*
%
%ADD37ROUNDEDRECTD37*%
%ADD38R,0.03543X0.02362*%
%ADD67C,0.00709*%
%ADD68C,0.01000*%
%ADD69C,0.01968*%
%ADD70C,0.00906*%
%ADD71R,0.03937X0.15354*%
%ADD72R,0.12598X0.02756*%
%ADD73R,0.03740X0.19587*%
%ADD74R,0.04232X0.20177*%
%ADD75R,0.06004X0.26476*%
%ADD76C,0.03543*%
%ADD77C,0.13780*%
%ADD78C,0.03150*%
%ADD79C,0.01575*%
%ADD80C,0.00787*%
%ADD81C,0.00709*%
G36*
X128098Y116927D02*
X129466Y116560D01*
X130775Y116018D01*
X132002Y115310D01*
X133126Y114447D01*
X134128Y113445D01*
X134990Y112321D01*
X135698Y111094D01*
X136241Y109786D01*
X136607Y108417D01*
X136792Y107013D01*
Y106304D01*
Y11811D01*
Y11103D01*
X136607Y9698D01*
X136241Y8330D01*
X135698Y7021D01*
X134990Y5794D01*
X134128Y4670D01*
X133126Y3668D01*
X132002Y2806D01*
X130775Y2097D01*
X129466Y1555D01*
X128098Y1188D01*
X126693Y1003D01*
X71610D01*
X71556Y1481D01*
X71556Y1503D01*
Y3639D01*
X68702D01*
X65847D01*
Y1503D01*
X65847Y1481D01*
X65794Y1003D01*
X11103D01*
X9698Y1188D01*
X8330Y1555D01*
X7021Y2097D01*
X5794Y2806D01*
X4670Y3668D01*
X3668Y4670D01*
X2806Y5794D01*
X2097Y7021D01*
X1555Y8330D01*
X1188Y9698D01*
X1003Y11103D01*
Y11811D01*
Y22361D01*
X1465Y22553D01*
X2757Y21261D01*
X2757Y21261D01*
X3118Y21020D01*
X3543Y20935D01*
X7874D01*
Y20276D01*
X11024D01*
Y23507D01*
X11355Y23775D01*
X11614Y23696D01*
Y22547D01*
X13386D01*
X15157D01*
Y23170D01*
X15619Y23362D01*
X16605Y22376D01*
Y19685D01*
X16605Y19685D01*
X16689Y19260D01*
X16930Y18899D01*
X22043Y13786D01*
X22043Y13786D01*
X22404Y13545D01*
X22830Y13460D01*
X22830Y13460D01*
X29528D01*
Y12210D01*
X31043D01*
X31234Y11748D01*
X28153Y8666D01*
X25788D01*
Y3942D01*
X29725D01*
Y7094D01*
X33328Y10696D01*
X54665D01*
X54714Y10196D01*
X54701Y10194D01*
X54341Y9953D01*
X54341Y9953D01*
X53153Y8765D01*
X50788D01*
Y4040D01*
X54725D01*
Y7192D01*
X55588Y8055D01*
X58072D01*
Y6903D01*
X62402D01*
Y8055D01*
X66066D01*
X66105Y8047D01*
X75985D01*
Y7584D01*
X79528D01*
Y10733D01*
X75985D01*
Y10270D01*
X69830D01*
X69781Y10770D01*
X69833Y10781D01*
X70194Y11022D01*
X73223Y14051D01*
X75985D01*
Y13588D01*
X79528D01*
Y16737D01*
X75985D01*
Y16274D01*
X72762D01*
X72337Y16190D01*
X71976Y15949D01*
X71976Y15949D01*
X71821Y15794D01*
X71359Y15985D01*
Y18903D01*
X66044D01*
Y16176D01*
X58465D01*
Y17032D01*
X57511D01*
Y20969D01*
X57973D01*
Y24513D01*
X54824D01*
Y20969D01*
X55287D01*
Y17032D01*
X54528D01*
Y16595D01*
X54067Y16404D01*
X44352Y26118D01*
X44544Y26580D01*
X67717D01*
X70277Y29139D01*
Y41908D01*
X76283D01*
X76595Y41408D01*
X76378Y40883D01*
Y40022D01*
X76570Y39559D01*
X75100Y38090D01*
X74859Y37730D01*
X74775Y37304D01*
X74775Y37304D01*
Y32494D01*
X74496Y32077D01*
X74382Y31501D01*
Y29139D01*
X74496Y28563D01*
X74822Y28074D01*
X75311Y27748D01*
X75887Y27634D01*
X76463Y27748D01*
X76951Y28074D01*
X77381D01*
X77870Y27748D01*
X78446Y27634D01*
X79022Y27748D01*
X79392Y27995D01*
X79394Y27996D01*
X79796Y27851D01*
X79893Y27775D01*
Y27135D01*
X76971Y24212D01*
X76730Y23852D01*
X76645Y23426D01*
X76645Y23426D01*
Y20674D01*
X75985D01*
Y17525D01*
X79528D01*
Y20674D01*
X78869D01*
Y22966D01*
X81791Y25888D01*
X81791Y25888D01*
X82032Y26249D01*
X82117Y26674D01*
X82117Y26674D01*
Y27775D01*
X82214Y27851D01*
X82617Y27996D01*
X82988Y27748D01*
X83564Y27634D01*
X84140Y27748D01*
X84628Y28074D01*
X85059D01*
X85547Y27748D01*
X86123Y27634D01*
X86441Y27697D01*
X86687Y27236D01*
X81103Y21652D01*
X80862Y21292D01*
X80778Y20866D01*
X80778Y20866D01*
Y7153D01*
X80028Y6404D01*
X79528Y6504D01*
Y6796D01*
X75985D01*
Y3647D01*
X79528D01*
Y4110D01*
X80418D01*
X80418Y4110D01*
X80844Y4194D01*
X81205Y4435D01*
X82676Y5907D01*
X82676Y5907D01*
X82917Y6267D01*
X83002Y6693D01*
Y20406D01*
X84418Y21822D01*
X84806Y21503D01*
X84751Y21421D01*
X84667Y20995D01*
X84667Y20995D01*
Y13686D01*
X84056D01*
Y10537D01*
X87599D01*
Y10999D01*
X88091D01*
X88091Y10999D01*
X88517Y11084D01*
X88878Y11325D01*
X90022Y12469D01*
X90355Y12800D01*
Y12800D01*
X90355Y12800D01*
X94292D01*
Y17918D01*
X94766Y17983D01*
X97362D01*
X97836Y17918D01*
X97836Y17483D01*
Y12800D01*
X101773D01*
X101773Y17918D01*
X102246Y17983D01*
X113388D01*
X113388Y17983D01*
X113814Y18067D01*
X114174Y18308D01*
X116311Y20445D01*
X116311Y20445D01*
X116552Y20806D01*
X116637Y21231D01*
X116976Y21555D01*
X117520D01*
Y24705D01*
X113976D01*
Y24242D01*
X110805D01*
Y26486D01*
X110737Y26828D01*
X110543Y27118D01*
X110253Y27311D01*
X109911Y27379D01*
X108199D01*
X107857Y27311D01*
X107567Y27118D01*
X107463Y26961D01*
X107374Y26936D01*
X106996D01*
X106907Y26961D01*
X106803Y27118D01*
X106513Y27311D01*
X106171Y27379D01*
X104459D01*
X104117Y27311D01*
X103827Y27118D01*
X103723Y26961D01*
X103634Y26936D01*
X103256D01*
X103167Y26961D01*
X103063Y27118D01*
X102773Y27311D01*
X102431Y27379D01*
X100718D01*
X100377Y27311D01*
X100087Y27118D01*
X99893Y26828D01*
X99825Y26486D01*
Y25502D01*
X98020D01*
X95502Y28020D01*
Y33845D01*
X95616Y33893D01*
X96226Y34502D01*
X96555Y35298D01*
Y36159D01*
X96226Y36955D01*
X95619Y37561D01*
X95619Y37577D01*
X95722Y38061D01*
X98199D01*
Y30709D01*
X98199Y30709D01*
X98284Y30283D01*
X98525Y29922D01*
X99607Y28840D01*
X99607Y28840D01*
X99968Y28599D01*
X100394Y28514D01*
X108071D01*
X108071Y28514D01*
X108496Y28599D01*
X108857Y28840D01*
X109841Y29824D01*
X109841Y29824D01*
X110082Y30185D01*
X110167Y30610D01*
Y31333D01*
X110253Y31350D01*
X110543Y31544D01*
X110737Y31833D01*
X110805Y32175D01*
Y36368D01*
X110737Y36710D01*
X110543Y37000D01*
X110253Y37193D01*
X109911Y37261D01*
X108199D01*
X107857Y37193D01*
X107605Y37025D01*
X107583Y37013D01*
X107109Y37044D01*
X107003Y37055D01*
X106945Y37142D01*
X106590Y37379D01*
X106171Y37462D01*
X105815D01*
Y34272D01*
X104815D01*
Y37462D01*
X104459D01*
X104040Y37379D01*
X103685Y37142D01*
X103627Y37055D01*
X103521Y37044D01*
X103085Y37015D01*
X102851Y37194D01*
X102687Y37355D01*
Y42059D01*
X110536Y49908D01*
X110764Y49755D01*
X111102Y49688D01*
X116457D01*
X116795Y49755D01*
X117081Y49946D01*
X117273Y50233D01*
X117340Y50571D01*
Y52776D01*
X117273Y53114D01*
X117081Y53400D01*
X116795Y53592D01*
X116457Y53659D01*
X111102D01*
X110764Y53592D01*
X110478Y53400D01*
X110286Y53114D01*
X110219Y52776D01*
Y52372D01*
X109727Y52184D01*
X109337Y52455D01*
Y53414D01*
X109494Y53479D01*
X110103Y54088D01*
X110242Y54424D01*
X110764Y54676D01*
X111102Y54609D01*
X116457D01*
X116795Y54676D01*
X117081Y54868D01*
X117273Y55154D01*
X117338Y55483D01*
X118196D01*
X118243Y55368D01*
X118852Y54759D01*
X119648Y54429D01*
X120509D01*
X121305Y54759D01*
X121914Y55368D01*
X122244Y56164D01*
Y57025D01*
X121914Y57821D01*
X121305Y58430D01*
X120509Y58760D01*
X119648D01*
X118852Y58430D01*
X118243Y57821D01*
X118196Y57706D01*
X117338D01*
X117273Y58035D01*
X117081Y58321D01*
X116795Y58513D01*
X116457Y58580D01*
X111102D01*
X110755Y59021D01*
Y59089D01*
X111102Y59530D01*
X116457D01*
X116795Y59597D01*
X117081Y59789D01*
X117273Y60075D01*
X117340Y60413D01*
Y62618D01*
X117273Y62956D01*
X117081Y63243D01*
X116795Y63434D01*
X116457Y63501D01*
X111102D01*
X110764Y63434D01*
X110478Y63243D01*
X110365Y63074D01*
X109929Y62955D01*
X109776Y62955D01*
X108922Y63810D01*
X109088Y64351D01*
X109691Y64601D01*
X109921Y64831D01*
X110397D01*
X110478Y64710D01*
X110764Y64519D01*
X111102Y64451D01*
X116457D01*
X116795Y64519D01*
X117081Y64710D01*
X117162Y64831D01*
X122071D01*
X132548Y54355D01*
Y33047D01*
X108784Y9283D01*
X100917D01*
X100894Y9400D01*
X100546Y9921D01*
X99189Y11278D01*
X98668Y11626D01*
X98053Y11748D01*
X98053Y11748D01*
X94074D01*
X93460Y11626D01*
X92939Y11278D01*
X91582Y9921D01*
X91234Y9400D01*
X91206Y9257D01*
X90355D01*
Y4139D01*
X93899D01*
Y3942D01*
X95564D01*
Y6698D01*
X96564D01*
Y3942D01*
X98229D01*
Y4139D01*
X101773D01*
Y6072D01*
X109449D01*
X109449Y6072D01*
X110063Y6194D01*
X110584Y6542D01*
X118092Y14050D01*
X118553Y13803D01*
X118307Y12567D01*
Y12311D01*
X125484D01*
Y19488D01*
X125228D01*
X123992Y19242D01*
X123746Y19703D01*
X135289Y31247D01*
X135637Y31767D01*
X135759Y32382D01*
X135759Y32382D01*
Y55020D01*
X135759Y55020D01*
X135637Y55634D01*
X135289Y56155D01*
X123872Y67572D01*
X123351Y67920D01*
X122736Y68043D01*
X122736Y68043D01*
X117162D01*
X117081Y68164D01*
X116795Y68355D01*
X116457Y68423D01*
X111102D01*
X110764Y68355D01*
X110478Y68164D01*
X110397Y68043D01*
X109921D01*
X109691Y68273D01*
X108895Y68602D01*
X108034D01*
X107238Y68273D01*
X106629Y67664D01*
X106379Y67060D01*
X105837Y66894D01*
X104706Y68025D01*
Y69457D01*
X104702Y69478D01*
Y72195D01*
X104634Y72537D01*
X104441Y72826D01*
X104151Y73020D01*
X103809Y73088D01*
X102096D01*
X101755Y73020D01*
X101503Y72852D01*
X101481Y72839D01*
X101007Y72871D01*
X100900Y72882D01*
X100842Y72968D01*
X100487Y73206D01*
X100069Y73289D01*
X99713D01*
Y70098D01*
Y66908D01*
X100069D01*
X100487Y66991D01*
X100842Y67229D01*
X100900Y67315D01*
X101007Y67326D01*
X101481Y67357D01*
X101503Y67345D01*
X101755Y67177D01*
X102096Y67109D01*
X102587D01*
X102808Y66778D01*
X108531Y61055D01*
Y57480D01*
X107837D01*
X107041Y57151D01*
X106432Y56542D01*
X106102Y55746D01*
Y54884D01*
X106432Y54088D01*
X107041Y53479D01*
X107114Y53449D01*
Y51993D01*
X98525Y43404D01*
X98284Y43044D01*
X98199Y42618D01*
X98199Y42618D01*
Y40285D01*
X94555D01*
X92617Y42223D01*
X92256Y42464D01*
X91831Y42549D01*
X91831Y42549D01*
X83236D01*
X81979Y43806D01*
X81618Y44047D01*
X81193Y44132D01*
X81193Y44132D01*
X70277D01*
Y58174D01*
X64765Y63686D01*
X47048D01*
X38921Y71813D01*
X39192Y72249D01*
X43997D01*
Y77564D01*
X41278D01*
Y82118D01*
X41719Y82231D01*
X41778Y82232D01*
X42377Y81634D01*
X43173Y81304D01*
X44034D01*
X44830Y81634D01*
X45439Y82243D01*
X45487Y82358D01*
X49410D01*
Y81107D01*
X51350D01*
Y74119D01*
X50985D01*
Y70182D01*
X55710D01*
Y74119D01*
X53574D01*
Y81107D01*
X54332D01*
Y86422D01*
X49410D01*
Y84581D01*
X45487D01*
X45439Y84696D01*
X44902Y85233D01*
X44981Y85733D01*
X44981D01*
Y88883D01*
X41591Y88883D01*
X41368Y89277D01*
X41591Y89670D01*
X44981D01*
Y92820D01*
X43996D01*
X43897Y93320D01*
X44436Y93543D01*
X45045Y94152D01*
X45113Y94316D01*
X51084D01*
Y93509D01*
X55808D01*
Y97446D01*
X53672D01*
Y104336D01*
X54430D01*
Y109651D01*
X49509D01*
Y104336D01*
X51448D01*
Y97446D01*
X51084D01*
Y96540D01*
X45072D01*
X45045Y96605D01*
X44436Y97215D01*
X44272Y97282D01*
Y98233D01*
X44883D01*
Y101383D01*
X41599D01*
X41366Y101777D01*
X41599Y102170D01*
X44883D01*
Y105320D01*
X43701D01*
X43602Y105820D01*
X44141Y106043D01*
X44750Y106652D01*
X45080Y107448D01*
Y108310D01*
X44750Y109106D01*
X44141Y109715D01*
X43345Y110044D01*
X42484D01*
X41688Y109715D01*
X41079Y109106D01*
X40749Y108310D01*
Y107448D01*
X40797Y107334D01*
X40102Y106640D01*
X39640Y106831D01*
Y106887D01*
X36812D01*
X33984D01*
Y103770D01*
X33520Y103470D01*
X33484Y103475D01*
X33289Y103766D01*
X32964Y103983D01*
X32580Y104060D01*
X29430D01*
X29046Y103983D01*
X28721Y103766D01*
X28526Y103475D01*
X28490Y103470D01*
X28026Y103770D01*
Y106887D01*
X25698D01*
Y100671D01*
X26812D01*
X27277Y100763D01*
X27671Y101026D01*
X27934Y101420D01*
X28427Y101335D01*
Y99710D01*
X28503Y99326D01*
X28721Y99000D01*
X29046Y98782D01*
X29430Y98706D01*
X30042D01*
Y89872D01*
X30050Y89831D01*
X29880Y88106D01*
X29365Y86409D01*
X28529Y84844D01*
X27429Y83505D01*
X27395Y83482D01*
X24167Y80254D01*
X23595Y80825D01*
X22992Y80221D01*
X3438D01*
X3104Y80721D01*
X3151Y80833D01*
Y81156D01*
X3339Y81317D01*
X3607Y81479D01*
X3613Y81480D01*
X3889Y81425D01*
X8082D01*
X8423Y81493D01*
X8713Y81686D01*
X8907Y81976D01*
X8914Y82013D01*
X9942D01*
X10047Y81908D01*
X10554Y81698D01*
X11102D01*
X11608Y81908D01*
X11996Y82295D01*
X12206Y82802D01*
Y83350D01*
X11996Y83856D01*
X11989Y83863D01*
Y86028D01*
X11996Y86035D01*
X12206Y86542D01*
Y87090D01*
X11996Y87596D01*
X11989Y87603D01*
Y89670D01*
X12094Y89776D01*
X12304Y90282D01*
Y90830D01*
X12094Y91337D01*
X11707Y91724D01*
X11200Y91934D01*
X10652D01*
X10146Y91724D01*
X10139Y91717D01*
X8934D01*
X8907Y91853D01*
X8713Y92142D01*
X8423Y92336D01*
X8082Y92404D01*
X3889D01*
X3547Y92336D01*
X3384Y92228D01*
X2958Y92388D01*
X2884Y92449D01*
Y93438D01*
X4004Y94557D01*
X7283D01*
Y93898D01*
X10433D01*
Y97441D01*
X7283D01*
Y96781D01*
X3543D01*
X3543Y96781D01*
X3118Y96697D01*
X2757Y96456D01*
X1465Y95164D01*
X1003Y95355D01*
Y106304D01*
Y107012D01*
X1188Y108417D01*
X1555Y109786D01*
X2097Y111094D01*
X2806Y112321D01*
X3668Y113445D01*
X4670Y114447D01*
X5794Y115310D01*
X7021Y116018D01*
X8330Y116560D01*
X9698Y116927D01*
X11103Y117112D01*
X126693D01*
X128098Y116927D01*
D02*
G37*
G36*
X34339Y101026D02*
X34733Y100763D01*
X35198Y100671D01*
X35912D01*
X35988Y100202D01*
X35192Y99872D01*
X34583Y99263D01*
X34253Y98467D01*
Y97606D01*
X34583Y96810D01*
X35192Y96201D01*
X35988Y95871D01*
X36849D01*
X37645Y96201D01*
X38254Y96810D01*
X38302Y96925D01*
X39054D01*
Y91245D01*
X39054Y91245D01*
X39054Y91245D01*
Y76277D01*
X39054Y76277D01*
X39076Y76169D01*
Y72366D01*
X38640Y72095D01*
X30513Y80221D01*
X27513D01*
X27321Y80683D01*
X28757Y82119D01*
X28768Y82108D01*
X29887Y83418D01*
X30787Y84887D01*
X31446Y86479D01*
X31848Y88154D01*
X31984Y89872D01*
X31968D01*
Y98706D01*
X32580D01*
X32964Y98782D01*
X33289Y99000D01*
X33507Y99326D01*
X33583Y99710D01*
Y101335D01*
X34076Y101420D01*
X34339Y101026D01*
D02*
G37*
G36*
X24017Y74021D02*
Y69984D01*
X18856Y71033D01*
X16676Y73214D01*
X1084D01*
Y78843D01*
X19194D01*
X24017Y74021D01*
D02*
G37*
G36*
X12895Y69867D02*
X8564Y65536D01*
Y63144D01*
X4798D01*
Y65661D01*
X1084Y69375D01*
X1084Y72328D01*
X12895D01*
Y69867D01*
D02*
G37*
G36*
X16536Y59729D02*
X5611D01*
Y61895D01*
X8564D01*
X9351Y62682D01*
Y65143D01*
X14273Y70064D01*
Y71540D01*
X16536D01*
Y59729D01*
D02*
G37*
G36*
X3710Y61914D02*
X4312Y61927D01*
Y56245D01*
X3710D01*
Y52505D01*
X2686D01*
Y52899D01*
X324D01*
Y65300D01*
X2686D01*
Y65694D01*
X3710D01*
Y61914D01*
D02*
G37*
G36*
X33518Y50248D02*
Y47711D01*
X31057D01*
X30316Y48452D01*
Y49414D01*
Y51284D01*
X32481D01*
X33518Y50248D01*
D02*
G37*
G36*
X16536Y46659D02*
X14273D01*
Y48135D01*
X9351Y53056D01*
Y55517D01*
X8564Y56304D01*
X5611D01*
Y58863D01*
X16536D01*
Y46659D01*
D02*
G37*
G36*
X8564Y52662D02*
X12895Y48332D01*
Y45871D01*
X1084D01*
X1084Y48824D01*
X4798Y52538D01*
Y55055D01*
X8564D01*
Y52662D01*
D02*
G37*
G36*
X24017Y44493D02*
X18997Y39474D01*
X1084D01*
Y44985D01*
X16676D01*
X18856Y47166D01*
X24017Y48215D01*
Y44493D01*
D02*
G37*
G36*
X91741Y27532D02*
X91894Y27563D01*
X92448Y27933D01*
X92511Y28028D01*
X93179Y28128D01*
X93278Y28047D01*
Y27559D01*
X93278Y27559D01*
X93362Y27134D01*
X93603Y26773D01*
X96773Y23604D01*
X96773Y23604D01*
X97133Y23362D01*
X97559Y23278D01*
X99825D01*
Y22293D01*
X99893Y21951D01*
X100087Y21662D01*
X100377Y21468D01*
X100718Y21400D01*
X102431D01*
X102773Y21468D01*
X103063Y21662D01*
X103167Y21818D01*
X103256Y21843D01*
X103634D01*
X103723Y21818D01*
X103827Y21662D01*
X104117Y21468D01*
X104459Y21400D01*
X106171D01*
X106513Y21468D01*
X106803Y21662D01*
X106907Y21818D01*
X106996Y21843D01*
X107374D01*
X107463Y21818D01*
X107567Y21662D01*
X107857Y21468D01*
X108199Y21400D01*
X109911D01*
X110253Y21468D01*
X110543Y21662D01*
X110737Y21951D01*
X110750Y22018D01*
X113887D01*
X113976Y21555D01*
X113836Y21115D01*
X112927Y20206D01*
X93602D01*
X93177Y20122D01*
X92816Y19881D01*
X91733Y18798D01*
X91492Y18437D01*
X91408Y18012D01*
X90918Y17918D01*
X90355D01*
Y15613D01*
X90098Y15229D01*
X89672Y15145D01*
X89311Y14904D01*
X88098Y13690D01*
X87599Y13686D01*
Y13686D01*
X86890D01*
Y20535D01*
X87434Y21078D01*
X87457Y21069D01*
X88319D01*
X89114Y21398D01*
X89724Y22007D01*
X90053Y22803D01*
Y23665D01*
X89724Y24461D01*
X89114Y25070D01*
X88590Y25287D01*
X88458Y25861D01*
X89468Y26872D01*
X89709Y27233D01*
X89765Y27512D01*
X90115Y27723D01*
X90294Y27759D01*
X90588Y27563D01*
X90741Y27532D01*
Y30320D01*
X91741D01*
Y27532D01*
D02*
G37*
G36*
X31281Y25198D02*
X31642Y24957D01*
X32067Y24872D01*
X42453D01*
X53419Y13907D01*
X53419Y13906D01*
X53779Y13666D01*
X53920Y13638D01*
X54227Y13114D01*
X54144Y12920D01*
X33465D01*
Y14732D01*
X41437D01*
Y14173D01*
X46752D01*
Y19094D01*
X41437D01*
Y16955D01*
X37301D01*
X37110Y17417D01*
X37171Y17479D01*
X37501Y18275D01*
Y19136D01*
X37171Y19932D01*
X36924Y20180D01*
X36910Y20674D01*
X36910Y20674D01*
Y24217D01*
X33761D01*
Y20674D01*
X33761Y20674D01*
X33761D01*
X33747Y20180D01*
X33500Y19932D01*
X33170Y19136D01*
Y18275D01*
X33500Y17479D01*
X33562Y17417D01*
X33370Y16955D01*
X32511D01*
Y20674D01*
X32973D01*
Y24217D01*
X29824D01*
Y20674D01*
X30287D01*
Y16934D01*
X29528D01*
Y15684D01*
X23290D01*
X18828Y20146D01*
Y22837D01*
X18744Y23262D01*
X18503Y23623D01*
X18503Y23623D01*
X16872Y25254D01*
X17063Y25716D01*
X18062D01*
X18404Y25784D01*
X18693Y25978D01*
X18887Y26267D01*
X18955Y26609D01*
Y28322D01*
X18887Y28664D01*
X18693Y28953D01*
X18537Y29058D01*
X18512Y29146D01*
Y29525D01*
X18537Y29614D01*
X18693Y29718D01*
X18887Y30008D01*
X18904Y30094D01*
X19767D01*
Y23925D01*
X19488D01*
Y20382D01*
X22638D01*
Y23925D01*
X21991D01*
Y30653D01*
X22147Y31030D01*
Y31578D01*
X21937Y32085D01*
X21549Y32472D01*
X21043Y32682D01*
X20495D01*
X19988Y32472D01*
X19834Y32318D01*
X18904D01*
X18887Y32404D01*
X18693Y32694D01*
X18537Y32798D01*
X18512Y32887D01*
Y33265D01*
X18537Y33354D01*
X18693Y33458D01*
X18887Y33748D01*
X18955Y34090D01*
Y35802D01*
X19091Y35968D01*
X20511D01*
X31281Y25198D01*
D02*
G37*
%LPC*%
G36*
X26812Y114103D02*
X25698D01*
Y107887D01*
X28026D01*
Y112889D01*
X27934Y113354D01*
X27671Y113747D01*
X27277Y114011D01*
X26812Y114103D01*
D02*
G37*
G36*
X24698D02*
X23584D01*
X23119Y114011D01*
X22725Y113747D01*
X22462Y113354D01*
X22369Y112889D01*
Y107887D01*
X24698D01*
Y114103D01*
D02*
G37*
G36*
X38426D02*
X37312D01*
Y107887D01*
X39640D01*
Y112889D01*
X39548Y113354D01*
X39285Y113747D01*
X38891Y114011D01*
X38426Y114103D01*
D02*
G37*
G36*
X36312D02*
X35198D01*
X34733Y114011D01*
X34339Y113747D01*
X34076Y113354D01*
X33984Y112889D01*
Y107887D01*
X36312D01*
Y114103D01*
D02*
G37*
G36*
X66930Y109847D02*
X64773D01*
Y107493D01*
X66930D01*
Y109847D01*
D02*
G37*
G36*
X63773D02*
X61615D01*
Y107493D01*
X63773D01*
Y109847D01*
D02*
G37*
G36*
X126740Y113976D02*
X126484D01*
Y106799D01*
X133661D01*
Y107055D01*
X133366Y108539D01*
X132788Y109936D01*
X131948Y111193D01*
X130878Y112262D01*
X129621Y113103D01*
X128224Y113681D01*
X126740Y113976D01*
D02*
G37*
G36*
X125484D02*
X125228D01*
X123745Y113681D01*
X122348Y113103D01*
X121090Y112262D01*
X120021Y111193D01*
X119181Y109936D01*
X118602Y108539D01*
X118307Y107055D01*
Y106799D01*
X125484D01*
Y113976D01*
D02*
G37*
G36*
X12567D02*
X12311D01*
Y106799D01*
X19488D01*
Y107055D01*
X19193Y108539D01*
X18614Y109936D01*
X17774Y111193D01*
X16705Y112262D01*
X15448Y113103D01*
X14050Y113681D01*
X12567Y113976D01*
D02*
G37*
G36*
X11311D02*
X11055D01*
X9572Y113681D01*
X8174Y113103D01*
X6917Y112262D01*
X5848Y111193D01*
X5008Y109936D01*
X4429Y108539D01*
X4134Y107055D01*
Y106799D01*
X11311D01*
Y113976D01*
D02*
G37*
G36*
X95018Y114375D02*
X94157D01*
X93361Y114045D01*
X92752Y113436D01*
X92422Y112640D01*
Y111779D01*
X92752Y110983D01*
X92918Y110817D01*
X92711Y110317D01*
X90838D01*
X90496Y110249D01*
X90206Y110056D01*
X90012Y109766D01*
X89944Y109424D01*
Y107712D01*
X90012Y107370D01*
X90181Y107118D01*
X90193Y107096D01*
X90174Y106805D01*
X89999Y106679D01*
X89499Y106935D01*
Y107091D01*
X89499Y107092D01*
X89414Y107517D01*
X89173Y107878D01*
X89173Y107878D01*
X87697Y109354D01*
X87336Y109595D01*
X86910Y109680D01*
X86910Y109680D01*
X85991D01*
X85974Y109766D01*
X85780Y110056D01*
X85490Y110249D01*
X85149Y110317D01*
X80956D01*
X80614Y110249D01*
X80324Y110056D01*
X80131Y109766D01*
X80063Y109424D01*
Y107712D01*
X80131Y107370D01*
X80324Y107080D01*
X80480Y106976D01*
X80506Y106887D01*
Y106509D01*
X80480Y106420D01*
X80324Y106316D01*
X80131Y106026D01*
X80113Y105940D01*
X77954D01*
Y106599D01*
X74804D01*
Y103056D01*
X74804Y103056D01*
X74804D01*
X74791Y102562D01*
X74445Y102216D01*
X74115Y101420D01*
Y100558D01*
X74445Y99763D01*
X75054Y99154D01*
X75850Y98824D01*
X76711D01*
X77507Y99154D01*
X78116Y99763D01*
X78446Y100558D01*
Y101420D01*
X78116Y102216D01*
X77776Y102556D01*
X77954Y103056D01*
X77954D01*
Y103716D01*
X80113D01*
X80131Y103630D01*
X80324Y103340D01*
X80480Y103235D01*
X80506Y103147D01*
Y102769D01*
X80480Y102680D01*
X80324Y102576D01*
X80131Y102286D01*
X80063Y101944D01*
Y100231D01*
X80131Y99889D01*
X80324Y99600D01*
X80614Y99406D01*
X80956Y99338D01*
X83882D01*
X83907Y99213D01*
X84148Y98852D01*
X85798Y97202D01*
Y91654D01*
X85298Y91554D01*
X85203Y91783D01*
X84594Y92392D01*
X83798Y92721D01*
X82936D01*
X82140Y92392D01*
X81531Y91783D01*
X81202Y90987D01*
Y90125D01*
X81531Y89330D01*
X81894Y88967D01*
X81687Y88467D01*
X80956D01*
X80614Y88399D01*
X80324Y88205D01*
X80131Y87916D01*
X80063Y87574D01*
Y85861D01*
X80131Y85519D01*
X80324Y85230D01*
X80480Y85125D01*
X80506Y85037D01*
Y84658D01*
X80480Y84570D01*
X80324Y84465D01*
X80131Y84175D01*
X80123Y84139D01*
X77658D01*
Y84836D01*
X78018Y85196D01*
X78347Y85992D01*
Y86853D01*
X78018Y87649D01*
X77409Y88258D01*
X76613Y88588D01*
X75751D01*
X74955Y88258D01*
X74346Y87649D01*
X74017Y86853D01*
Y86052D01*
X74017Y85992D01*
X74183Y85590D01*
X74203Y85353D01*
X74196Y85343D01*
X73896Y85070D01*
X73754Y85044D01*
X73449Y85044D01*
X72647D01*
Y83576D01*
X73918D01*
Y84460D01*
X74167Y84754D01*
X74418Y84822D01*
X74438Y84808D01*
X74509Y84702D01*
Y81304D01*
X77658D01*
Y81915D01*
X80104D01*
X80131Y81779D01*
X80324Y81489D01*
X80480Y81385D01*
X80506Y81297D01*
Y80918D01*
X80480Y80830D01*
X80324Y80725D01*
X80131Y80435D01*
X80063Y80093D01*
Y78381D01*
X80131Y78039D01*
X80324Y77749D01*
X80614Y77556D01*
X80956Y77488D01*
X81836D01*
X81963Y77196D01*
X81990Y76988D01*
X81425Y76423D01*
X81095Y75628D01*
Y74766D01*
X81425Y73970D01*
X82034Y73361D01*
X82830Y73032D01*
X83692D01*
X84487Y73361D01*
X84549Y73423D01*
X85011Y73232D01*
Y63606D01*
X84511Y63469D01*
X84350Y63710D01*
X84350Y63710D01*
X74434Y73626D01*
X74074Y73867D01*
X73648Y73952D01*
X73648Y73952D01*
X72245D01*
Y74414D01*
X68702D01*
Y71265D01*
X72245D01*
Y71728D01*
X73188D01*
X78208Y66707D01*
X78017Y66245D01*
X76477D01*
Y64973D01*
X78446D01*
Y63973D01*
X76477D01*
Y62731D01*
X76103Y62398D01*
X76031Y62471D01*
X75235Y62800D01*
X74373D01*
X73577Y62471D01*
X72968Y61861D01*
X72639Y61066D01*
Y60204D01*
X72968Y59408D01*
X73577Y58799D01*
X74373Y58469D01*
X75235D01*
X76031Y58799D01*
X76519Y58580D01*
X76571Y58459D01*
X75100Y56988D01*
X74859Y56627D01*
X74775Y56202D01*
X74775Y56202D01*
Y55723D01*
X74496Y55305D01*
X74382Y54729D01*
Y52367D01*
X74496Y51791D01*
X74822Y51303D01*
X75311Y50976D01*
X75887Y50862D01*
X76463Y50976D01*
X76833Y51224D01*
X76834Y51224D01*
X77237Y51079D01*
X77334Y51003D01*
Y49488D01*
X77219Y49441D01*
X76610Y48831D01*
X76280Y48035D01*
Y47174D01*
X76610Y46378D01*
X77219Y45769D01*
X78015Y45439D01*
X78876D01*
X79214Y45579D01*
X79517Y45277D01*
X79517Y45277D01*
X79877Y45036D01*
X80303Y44951D01*
X93795D01*
X93795Y44951D01*
X94221Y45036D01*
X94582Y45277D01*
X96187Y46882D01*
X96428Y47243D01*
X96513Y47668D01*
X96513Y47668D01*
Y48364D01*
X96547Y48383D01*
X97047Y48083D01*
Y47718D01*
X97377Y46922D01*
X97986Y46313D01*
X98782Y45983D01*
X99643D01*
X100439Y46313D01*
X101048Y46922D01*
X101378Y47718D01*
Y48579D01*
X101048Y49375D01*
X100439Y49984D01*
X100324Y50032D01*
Y51968D01*
X100787D01*
Y55512D01*
X100324D01*
Y57278D01*
X100411Y57295D01*
X100700Y57489D01*
X100805Y57645D01*
X100893Y57670D01*
X101272D01*
X101360Y57645D01*
X101465Y57489D01*
X101755Y57295D01*
X102096Y57227D01*
X103809D01*
X104151Y57295D01*
X104441Y57489D01*
X104634Y57778D01*
X104702Y58120D01*
Y62313D01*
X104634Y62655D01*
X104441Y62945D01*
X104151Y63138D01*
X103809Y63206D01*
X102096D01*
X101755Y63138D01*
X101465Y62945D01*
X101360Y62788D01*
X101272Y62763D01*
X100893D01*
X100805Y62788D01*
X100700Y62945D01*
X100411Y63138D01*
X100069Y63206D01*
X98356D01*
X98014Y63138D01*
X97725Y62945D01*
X97620Y62788D01*
X97532Y62763D01*
X97153D01*
X97065Y62788D01*
X96960Y62945D01*
X96671Y63138D01*
X96329Y63206D01*
X94616D01*
X94274Y63138D01*
X94184Y63078D01*
X92450Y64811D01*
Y77488D01*
X94836D01*
X95142Y77126D01*
X95179Y77007D01*
X94989Y76550D01*
Y75689D01*
X95207Y75163D01*
X94811Y74767D01*
X94570Y74406D01*
X94485Y73980D01*
X94485Y73980D01*
Y73062D01*
X94274Y73020D01*
X93985Y72826D01*
X93791Y72537D01*
X93723Y72195D01*
Y68002D01*
X93791Y67660D01*
X93985Y67370D01*
X94274Y67177D01*
X94616Y67109D01*
X96329D01*
X96671Y67177D01*
X96922Y67345D01*
X96944Y67357D01*
X97418Y67326D01*
X97525Y67315D01*
X97583Y67229D01*
X97938Y66991D01*
X98356Y66908D01*
X98713D01*
Y70098D01*
Y73289D01*
X98356D01*
X97938Y73206D01*
X97583Y72968D01*
X97061Y72917D01*
X96863Y73084D01*
X96825Y73636D01*
X97143Y73954D01*
X97585D01*
X98381Y74284D01*
X98990Y74893D01*
X99320Y75689D01*
Y76550D01*
X98990Y77346D01*
X98381Y77955D01*
X97799Y78197D01*
X97648Y78727D01*
X97653Y78757D01*
X101468Y82573D01*
X101468Y82573D01*
X101709Y82934D01*
X101794Y83359D01*
X101873Y83815D01*
X105513D01*
X105630Y83863D01*
X106103D01*
Y84336D01*
X106152Y84454D01*
Y104040D01*
X106103Y104158D01*
Y104631D01*
X105630D01*
X105513Y104680D01*
X101773D01*
X101321Y104492D01*
X101133Y104040D01*
Y97746D01*
X100672Y97555D01*
X96775Y101451D01*
X96414Y101692D01*
X95989Y101777D01*
X95900Y102109D01*
X95863Y102248D01*
X95863Y102248D01*
X95856Y102286D01*
X95688Y102537D01*
X95675Y102559D01*
X95707Y103034D01*
X95717Y103140D01*
X95804Y103198D01*
X96041Y103553D01*
X96124Y103972D01*
Y104328D01*
X92934D01*
Y105328D01*
X96124D01*
Y105684D01*
X96041Y106103D01*
X95804Y106457D01*
X95717Y106516D01*
X95707Y106622D01*
X95675Y107096D01*
X95688Y107118D01*
X95856Y107370D01*
X95924Y107712D01*
Y109424D01*
X95856Y109766D01*
X95798Y109853D01*
X95814Y110374D01*
X96423Y110983D01*
X96753Y111779D01*
Y112640D01*
X96423Y113436D01*
X95814Y114045D01*
X95018Y114375D01*
D02*
G37*
G36*
X74214Y106796D02*
X72942D01*
Y105328D01*
X74214D01*
Y106796D01*
D02*
G37*
G36*
X71942D02*
X70670D01*
Y105328D01*
X71942D01*
Y106796D01*
D02*
G37*
G36*
X66930Y106493D02*
X64773D01*
Y104139D01*
X66930D01*
Y106493D01*
D02*
G37*
G36*
X63773D02*
X61615D01*
Y104139D01*
X63773D01*
Y106493D01*
D02*
G37*
G36*
X74214Y104328D02*
X72942D01*
Y102859D01*
X74214D01*
Y104328D01*
D02*
G37*
G36*
X71942D02*
X70670D01*
Y102859D01*
X71942D01*
Y104328D01*
D02*
G37*
G36*
X24698Y106887D02*
X22369D01*
Y101885D01*
X22462Y101420D01*
X22725Y101026D01*
X23119Y100763D01*
X23584Y100671D01*
X24698D01*
Y106887D01*
D02*
G37*
G36*
X64273Y101383D02*
X62214D01*
Y99718D01*
X64273D01*
Y101383D01*
D02*
G37*
G36*
X61214D02*
X59154D01*
Y99718D01*
X61214D01*
Y101383D01*
D02*
G37*
G36*
X133661Y105799D02*
X126484D01*
Y98622D01*
X126740D01*
X128224Y98917D01*
X129621Y99496D01*
X130878Y100336D01*
X131948Y101405D01*
X132788Y102663D01*
X133366Y104060D01*
X133661Y105543D01*
Y105799D01*
D02*
G37*
G36*
X125484D02*
X118307D01*
Y105543D01*
X118602Y104060D01*
X119181Y102663D01*
X120021Y101405D01*
X121090Y100336D01*
X122348Y99496D01*
X123745Y98917D01*
X125228Y98622D01*
X125484D01*
Y105799D01*
D02*
G37*
G36*
X19488Y105799D02*
X12311D01*
Y98622D01*
X12567D01*
X14050Y98917D01*
X15448Y99496D01*
X16705Y100336D01*
X17774Y101405D01*
X18614Y102663D01*
X19193Y104060D01*
X19488Y105543D01*
Y105799D01*
D02*
G37*
G36*
X11311D02*
X4134D01*
Y105543D01*
X4429Y104060D01*
X5008Y102663D01*
X5848Y101405D01*
X6917Y100336D01*
X8174Y99496D01*
X9572Y98917D01*
X11055Y98622D01*
X11311D01*
Y105799D01*
D02*
G37*
G36*
X64273Y98718D02*
X62214D01*
Y97052D01*
X64273D01*
Y98718D01*
D02*
G37*
G36*
X61214D02*
X59154D01*
Y97052D01*
X61214D01*
Y98718D01*
D02*
G37*
G36*
X83109Y97840D02*
X82247D01*
X81452Y97510D01*
X80842Y96901D01*
X80795Y96786D01*
X72245D01*
Y97249D01*
X68702D01*
Y94099D01*
X72245D01*
Y94562D01*
X80795D01*
X80842Y94448D01*
X81452Y93839D01*
X82247Y93509D01*
X83109D01*
X83905Y93839D01*
X84514Y94448D01*
X84843Y95244D01*
Y96105D01*
X84514Y96901D01*
X83905Y97510D01*
X83109Y97840D01*
D02*
G37*
G36*
X14567Y97638D02*
X13295D01*
Y96169D01*
X14567D01*
Y97638D01*
D02*
G37*
G36*
X22638D02*
X21366D01*
Y96169D01*
X22638D01*
Y97638D01*
D02*
G37*
G36*
X20366D02*
X19094D01*
Y96169D01*
X20366D01*
Y97638D01*
D02*
G37*
G36*
X12295D02*
X11024D01*
Y96169D01*
X12295D01*
Y97638D01*
D02*
G37*
G36*
X22638Y95169D02*
X21366D01*
Y93701D01*
X22638D01*
Y95169D01*
D02*
G37*
G36*
X20366D02*
X19094D01*
Y93701D01*
X20366D01*
Y95169D01*
D02*
G37*
G36*
X14567D02*
X13295D01*
Y93701D01*
X14567D01*
Y95169D01*
D02*
G37*
G36*
X12295D02*
X11024D01*
Y93701D01*
X12295D01*
Y95169D01*
D02*
G37*
G36*
X26378Y97441D02*
X23228D01*
Y93898D01*
X23840D01*
Y92874D01*
X23378Y92682D01*
X23373Y92687D01*
X22577Y93017D01*
X21716D01*
X20920Y92687D01*
X20311Y92078D01*
X20223Y91865D01*
X18780D01*
X18595Y92142D01*
X18305Y92336D01*
X17964Y92404D01*
X13771D01*
X13429Y92336D01*
X13139Y92142D01*
X12946Y91853D01*
X12878Y91511D01*
Y89798D01*
X12946Y89456D01*
X13139Y89167D01*
X13295Y89062D01*
X13321Y88974D01*
Y88595D01*
X13295Y88507D01*
X13139Y88402D01*
X12946Y88112D01*
X12878Y87771D01*
Y86058D01*
X12946Y85716D01*
X13139Y85426D01*
X13295Y85322D01*
X13321Y85234D01*
Y84855D01*
X13295Y84767D01*
X13139Y84662D01*
X12946Y84372D01*
X12878Y84030D01*
Y82318D01*
X12946Y81976D01*
X13139Y81686D01*
X13429Y81493D01*
X13771Y81425D01*
X17964D01*
X18305Y81493D01*
X18595Y81686D01*
X18789Y81976D01*
X18816Y82111D01*
X20284D01*
X20311Y82045D01*
X20920Y81436D01*
X21716Y81106D01*
X22578D01*
X23373Y81436D01*
X23982Y82045D01*
X24312Y82841D01*
Y83702D01*
X23982Y84498D01*
X23373Y85107D01*
X22578Y85437D01*
X21716D01*
X20920Y85107D01*
X20311Y84498D01*
X20243Y84335D01*
X18796D01*
X18789Y84372D01*
X18595Y84662D01*
X18439Y84767D01*
X18414Y84855D01*
Y85234D01*
X18439Y85322D01*
X18595Y85426D01*
X18604Y85439D01*
X18933Y85691D01*
X19282Y85631D01*
X19510Y85536D01*
X20058D01*
X20565Y85746D01*
X20771Y85952D01*
X21635D01*
X22004Y86025D01*
X22316Y86234D01*
X25484Y89403D01*
X25693Y89715D01*
X25767Y90084D01*
Y93898D01*
X26378D01*
Y97441D01*
D02*
G37*
G36*
X64076Y93706D02*
X59351D01*
Y89769D01*
X64076D01*
Y90576D01*
X68702D01*
Y90162D01*
X72245D01*
Y93312D01*
X68702D01*
Y92800D01*
X64076D01*
Y93706D01*
D02*
G37*
G36*
X66832Y86619D02*
X64674D01*
Y84265D01*
X66832D01*
Y86619D01*
D02*
G37*
G36*
X63674D02*
X61517D01*
Y84265D01*
X63674D01*
Y86619D01*
D02*
G37*
G36*
X71647Y85044D02*
X70375D01*
Y83576D01*
X71647D01*
Y85044D01*
D02*
G37*
G36*
X73918Y82576D02*
X72647D01*
Y81107D01*
X73918D01*
Y82576D01*
D02*
G37*
G36*
X71647D02*
X70375D01*
Y81107D01*
X71647D01*
Y82576D01*
D02*
G37*
G36*
X66832Y83265D02*
X64674D01*
Y80910D01*
X66832D01*
Y83265D01*
D02*
G37*
G36*
X63674D02*
X61517D01*
Y80910D01*
X63674D01*
Y83265D01*
D02*
G37*
G36*
X130177Y84181D02*
X126976D01*
Y80717D01*
X131622D01*
Y82736D01*
X131512Y83289D01*
X131199Y83758D01*
X130730Y84071D01*
X130177Y84181D01*
D02*
G37*
G36*
X125976D02*
X122776D01*
X122223Y84071D01*
X121754Y83758D01*
X121440Y83289D01*
X121330Y82736D01*
Y80717D01*
X125976D01*
Y84181D01*
D02*
G37*
G36*
X64174Y78056D02*
X62115D01*
Y76391D01*
X64174D01*
Y78056D01*
D02*
G37*
G36*
X61115D02*
X59056D01*
Y76391D01*
X61115D01*
Y78056D01*
D02*
G37*
G36*
X131622Y79716D02*
X126976D01*
Y76252D01*
X130177D01*
X130730Y76362D01*
X131199Y76675D01*
X131512Y77144D01*
X131622Y77697D01*
Y79716D01*
D02*
G37*
G36*
X107481Y104843D02*
X107174Y104782D01*
X106948Y104631D01*
X106891D01*
Y104574D01*
X106740Y104348D01*
X106678Y104040D01*
Y73326D01*
X106678Y73326D01*
X106740Y73019D01*
X106914Y72758D01*
X106914Y72758D01*
X110259Y69413D01*
X110259Y69413D01*
X110421Y69304D01*
X110520Y69239D01*
X110827Y69177D01*
X115945Y69178D01*
X116252Y69239D01*
X116453Y69373D01*
X116457D01*
X116795Y69440D01*
X117081Y69631D01*
X117273Y69918D01*
X117340Y70256D01*
Y72461D01*
X117288Y72718D01*
X117470Y72923D01*
X117691Y73063D01*
X117932Y72924D01*
X118633Y72736D01*
X119359D01*
X120060Y72924D01*
X120688Y73287D01*
X121201Y73800D01*
X121564Y74428D01*
X121752Y75129D01*
Y75855D01*
X121680Y76123D01*
X122114Y76434D01*
X122223Y76362D01*
X122776Y76252D01*
X125976D01*
Y79716D01*
X121330D01*
Y77762D01*
X121176Y77644D01*
X120853Y77532D01*
X120688Y77697D01*
X120060Y78060D01*
X119359Y78248D01*
X118633D01*
X117932Y78060D01*
X117304Y77697D01*
X117248Y77641D01*
X116748Y77848D01*
Y100990D01*
X116748Y100990D01*
X116687Y101297D01*
X116513Y101558D01*
X113462Y104608D01*
X113462Y104608D01*
X113202Y104782D01*
X112895Y104843D01*
X107481Y104843D01*
D02*
G37*
G36*
X64174Y75391D02*
X62115D01*
Y73725D01*
X64174D01*
Y75391D01*
D02*
G37*
G36*
X61115D02*
X59056D01*
Y73725D01*
X61115D01*
Y75391D01*
D02*
G37*
G36*
X72245Y70477D02*
X68702D01*
Y69768D01*
X63977D01*
Y70379D01*
X59253D01*
Y66442D01*
X63977D01*
Y67545D01*
X68702D01*
Y67328D01*
X72245D01*
Y70477D01*
D02*
G37*
G36*
X104921Y55709D02*
X103650D01*
Y54240D01*
X104921D01*
Y55709D01*
D02*
G37*
G36*
X102650D02*
X101378D01*
Y54240D01*
X102650D01*
Y55709D01*
D02*
G37*
G36*
X104921Y53240D02*
X103650D01*
Y51772D01*
X104921D01*
Y53240D01*
D02*
G37*
G36*
X102650D02*
X101378D01*
Y51772D01*
X102650D01*
Y53240D01*
D02*
G37*
G36*
X116457Y48938D02*
X114279D01*
Y47252D01*
X117541D01*
Y47854D01*
X117458Y48269D01*
X117223Y48621D01*
X116872Y48856D01*
X116457Y48938D01*
D02*
G37*
G36*
X113279D02*
X111102D01*
X110688Y48856D01*
X110336Y48621D01*
X110101Y48269D01*
X110019Y47854D01*
Y47252D01*
X113279D01*
Y48938D01*
D02*
G37*
G36*
Y46252D02*
X110019D01*
Y45650D01*
X110101Y45235D01*
X110336Y44883D01*
X110688Y44648D01*
X111102Y44566D01*
X113279D01*
Y46252D01*
D02*
G37*
G36*
X130177Y41859D02*
X126976D01*
Y38394D01*
X131622D01*
Y40413D01*
X131512Y40966D01*
X131199Y41435D01*
X130730Y41748D01*
X130177Y41859D01*
D02*
G37*
G36*
X117541Y46252D02*
X114279D01*
Y44566D01*
X116365D01*
X116555Y44348D01*
X116668Y44098D01*
X116428Y43682D01*
X116240Y42981D01*
Y42255D01*
X116428Y41554D01*
X116791Y40926D01*
X117304Y40413D01*
X117932Y40050D01*
X118633Y39862D01*
X119359D01*
X120060Y40050D01*
X120688Y40413D01*
X120853Y40578D01*
X121176Y40467D01*
X121330Y40348D01*
Y38394D01*
X125976D01*
Y41859D01*
X122776D01*
X122223Y41748D01*
X122114Y41676D01*
X121680Y41987D01*
X121752Y42255D01*
Y42981D01*
X121564Y43682D01*
X121201Y44310D01*
X120688Y44823D01*
X120060Y45186D01*
X119359Y45374D01*
X118633D01*
X117932Y45186D01*
X117515Y45523D01*
X117541Y45650D01*
Y46252D01*
D02*
G37*
G36*
X131622Y37394D02*
X126976D01*
Y33929D01*
X130177D01*
X130730Y34039D01*
X131199Y34352D01*
X131512Y34821D01*
X131622Y35374D01*
Y37394D01*
D02*
G37*
G36*
X125976D02*
X121330D01*
Y35374D01*
X121440Y34821D01*
X121754Y34352D01*
X122223Y34039D01*
X122776Y33929D01*
X125976D01*
Y37394D01*
D02*
G37*
G36*
X117717Y28839D02*
X116248D01*
Y27567D01*
X117717D01*
Y28839D01*
D02*
G37*
G36*
X115248D02*
X113779D01*
Y27567D01*
X115248D01*
Y28839D01*
D02*
G37*
G36*
X117717Y26567D02*
X116248D01*
Y25295D01*
X117717D01*
Y26567D01*
D02*
G37*
G36*
X115248D02*
X113779D01*
Y25295D01*
X115248D01*
Y26567D01*
D02*
G37*
G36*
X15157Y21547D02*
X13886D01*
Y20079D01*
X15157D01*
Y21547D01*
D02*
G37*
G36*
X12886D02*
X11614D01*
Y20079D01*
X12886D01*
Y21547D01*
D02*
G37*
G36*
X61910Y24513D02*
X58761D01*
Y20969D01*
X58761Y20969D01*
X58761D01*
X58747Y20475D01*
X58500Y20228D01*
X58170Y19432D01*
Y18570D01*
X58500Y17774D01*
X59109Y17165D01*
X59905Y16836D01*
X60766D01*
X61562Y17165D01*
X62171Y17774D01*
X62501Y18570D01*
Y19432D01*
X62171Y20228D01*
X61924Y20475D01*
X61910Y20969D01*
X61910Y20969D01*
Y24513D01*
D02*
G37*
G36*
X126740Y19488D02*
X126484D01*
Y12311D01*
X133661D01*
Y12567D01*
X133366Y14050D01*
X132788Y15448D01*
X131948Y16705D01*
X130878Y17774D01*
X129621Y18614D01*
X128224Y19193D01*
X126740Y19488D01*
D02*
G37*
G36*
X12567D02*
X12311D01*
Y12311D01*
X19488D01*
Y12567D01*
X19193Y14050D01*
X18614Y15448D01*
X17774Y16705D01*
X16705Y17774D01*
X15448Y18614D01*
X14050Y19193D01*
X12567Y19488D01*
D02*
G37*
G36*
X11311D02*
X11055D01*
X9572Y19193D01*
X8174Y18614D01*
X6917Y17774D01*
X5848Y16705D01*
X5008Y15448D01*
X4429Y14050D01*
X4134Y12567D01*
Y12311D01*
X11311D01*
Y19488D01*
D02*
G37*
G36*
X108071Y13386D02*
X106602D01*
Y12114D01*
X108071D01*
Y13386D01*
D02*
G37*
G36*
X105602D02*
X104134D01*
Y12114D01*
X105602D01*
Y13386D01*
D02*
G37*
G36*
X108071Y11114D02*
X106602D01*
Y9843D01*
X108071D01*
Y11114D01*
D02*
G37*
G36*
X105602D02*
X104134D01*
Y9843D01*
X105602D01*
Y11114D01*
D02*
G37*
G36*
X87796Y9946D02*
X86328D01*
Y8674D01*
X87796D01*
Y9946D01*
D02*
G37*
G36*
X85328D02*
X83859D01*
Y8674D01*
X85328D01*
Y9946D01*
D02*
G37*
G36*
X34737Y8863D02*
X33072D01*
Y6804D01*
X34737D01*
Y8863D01*
D02*
G37*
G36*
X87796Y7674D02*
X86328D01*
Y6403D01*
X87796D01*
Y7674D01*
D02*
G37*
G36*
X85328D02*
X83859D01*
Y6403D01*
X85328D01*
Y7674D01*
D02*
G37*
G36*
X46949Y6988D02*
X44594D01*
Y4831D01*
X46949D01*
Y6988D01*
D02*
G37*
G36*
X39801Y10039D02*
X38939D01*
X38144Y9710D01*
X37691Y9257D01*
X37681Y9248D01*
X37681Y9248D01*
X37534Y9101D01*
X37485Y9012D01*
X37402Y8863D01*
Y8863D01*
X37402Y8863D01*
X35737D01*
Y6304D01*
Y3745D01*
X37402D01*
Y6072D01*
X37903Y6279D01*
X38144Y6038D01*
X38939Y5709D01*
X39801D01*
X40597Y6038D01*
X40740Y6182D01*
X41240Y5975D01*
Y4831D01*
X43595D01*
Y6988D01*
X41797D01*
X41519Y7404D01*
X41535Y7443D01*
Y8305D01*
X41206Y9101D01*
X40597Y9710D01*
X39801Y10039D01*
D02*
G37*
G36*
X71556Y6796D02*
X69202D01*
Y4639D01*
X71556D01*
Y6796D01*
D02*
G37*
G36*
X68202D02*
X65847D01*
Y4639D01*
X68202D01*
Y6796D01*
D02*
G37*
G36*
X133661Y11311D02*
X126484D01*
Y4134D01*
X126740D01*
X128224Y4429D01*
X129621Y5008D01*
X130878Y5848D01*
X131948Y6917D01*
X132788Y8174D01*
X133366Y9572D01*
X133661Y11055D01*
Y11311D01*
D02*
G37*
G36*
X125484D02*
X118307D01*
Y11055D01*
X118602Y9572D01*
X119181Y8174D01*
X120021Y6917D01*
X121090Y5848D01*
X122348Y5008D01*
X123745Y4429D01*
X125228Y4134D01*
X125484D01*
Y11311D01*
D02*
G37*
G36*
X19488Y11311D02*
X12311D01*
Y4134D01*
X12567D01*
X14050Y4429D01*
X15448Y5008D01*
X16705Y5848D01*
X17774Y6917D01*
X18614Y8174D01*
X19193Y9572D01*
X19488Y11055D01*
Y11311D01*
D02*
G37*
G36*
X11311D02*
X4134D01*
Y11055D01*
X4429Y9572D01*
X5008Y8174D01*
X5848Y6917D01*
X6917Y5848D01*
X8174Y5008D01*
X9572Y4429D01*
X11055Y4134D01*
X11311D01*
Y11311D01*
D02*
G37*
G36*
X62402Y5903D02*
X60737D01*
Y3844D01*
X62402D01*
Y5903D01*
D02*
G37*
G36*
X59737D02*
X58072D01*
Y3844D01*
X59737D01*
Y5903D01*
D02*
G37*
G36*
X34737Y5804D02*
X33072D01*
Y3745D01*
X34737D01*
Y5804D01*
D02*
G37*
G36*
X46949Y3831D02*
X44594D01*
Y1673D01*
X46949D01*
Y3831D01*
D02*
G37*
G36*
X43595D02*
X41240D01*
Y1673D01*
X43595D01*
Y3831D01*
D02*
G37*
%LPD*%
G36*
X90012Y99889D02*
X90206Y99600D01*
X90496Y99406D01*
X90838Y99338D01*
X95030D01*
X95372Y99406D01*
X95554Y99527D01*
X99570Y95511D01*
Y83820D01*
X96321Y80571D01*
X96275Y80557D01*
X96167Y80573D01*
X95688Y80687D01*
X95688Y80687D01*
X95675Y80709D01*
X95707Y81183D01*
X95717Y81290D01*
X95804Y81348D01*
X96041Y81703D01*
X96124Y82121D01*
Y82477D01*
X92934D01*
X89744D01*
Y82121D01*
X89827Y81703D01*
X90064Y81348D01*
X90151Y81290D01*
X90161Y81183D01*
X90193Y80709D01*
X90181Y80687D01*
X90012Y80435D01*
X89944Y80093D01*
Y78381D01*
X90012Y78039D01*
X90206Y77749D01*
X90227Y77736D01*
Y64350D01*
X90227Y64350D01*
X90311Y63925D01*
X90552Y63564D01*
X92947Y61169D01*
X93308Y60928D01*
X93723Y60846D01*
Y58120D01*
X93791Y57778D01*
X93985Y57489D01*
X94274Y57295D01*
X94325Y57285D01*
Y52614D01*
X94174Y52551D01*
X93565Y51942D01*
X93235Y51146D01*
Y50285D01*
X93565Y49489D01*
X94174Y48880D01*
X94289Y48832D01*
Y48129D01*
X93335Y47175D01*
X92220D01*
X91966Y47675D01*
X92224Y48299D01*
Y49160D01*
X92057Y49565D01*
X92268Y49883D01*
X92353Y50308D01*
X92353Y50308D01*
Y51374D01*
X92632Y51791D01*
X92746Y52367D01*
Y54729D01*
X92632Y55305D01*
X92305Y55794D01*
X91817Y56120D01*
X91241Y56235D01*
X90665Y56120D01*
X90294Y55872D01*
X89891Y56017D01*
X89794Y56094D01*
Y56655D01*
X90226Y57087D01*
X90227Y57087D01*
X91088D01*
X91884Y57416D01*
X92493Y58025D01*
X92823Y58821D01*
Y59683D01*
X92493Y60479D01*
X91884Y61088D01*
X91088Y61417D01*
X90227D01*
X89431Y61088D01*
X88822Y60479D01*
X88492Y59683D01*
Y58821D01*
X88587Y58592D01*
X87896Y57901D01*
X87735Y57661D01*
X87235Y57798D01*
Y76115D01*
X87696Y76576D01*
X87937Y76937D01*
X88021Y77362D01*
X88021Y77362D01*
Y94533D01*
X88505Y94637D01*
X88521Y94637D01*
X89128Y94030D01*
X89924Y93701D01*
X90785D01*
X91581Y94030D01*
X92190Y94640D01*
X92520Y95435D01*
Y96297D01*
X92190Y97093D01*
X91581Y97702D01*
X90785Y98032D01*
X90175D01*
X89499Y98708D01*
Y99909D01*
X89999Y99958D01*
X90012Y99889D01*
D02*
G37*
%LPC*%
G36*
X95117Y92820D02*
X94255D01*
X93459Y92490D01*
X92850Y91881D01*
X92521Y91085D01*
Y90224D01*
X92850Y89428D01*
X93311Y88967D01*
X93104Y88467D01*
X90838D01*
X90496Y88399D01*
X90206Y88205D01*
X90012Y87916D01*
X89944Y87574D01*
Y85861D01*
X90012Y85519D01*
X90181Y85268D01*
X90193Y85246D01*
X90161Y84772D01*
X90151Y84665D01*
X90064Y84607D01*
X89827Y84252D01*
X89744Y83834D01*
Y83477D01*
X92934D01*
X96124D01*
Y83834D01*
X96041Y84252D01*
X95804Y84607D01*
X95717Y84665D01*
X95707Y84772D01*
X95675Y85246D01*
X95688Y85268D01*
X95856Y85519D01*
X95924Y85861D01*
Y87574D01*
X95856Y87916D01*
X95720Y88118D01*
Y88739D01*
X95913Y88819D01*
X96522Y89428D01*
X96851Y90224D01*
Y91085D01*
X96522Y91881D01*
X95913Y92490D01*
X95117Y92820D01*
D02*
G37*
%LPD*%
G36*
X112895Y104040D02*
X115945Y100990D01*
Y69980D01*
X110827Y69980D01*
X107481Y73326D01*
Y104040D01*
X112895Y104040D01*
D02*
G37*
%LPC*%
G36*
X26772Y24122D02*
X25500D01*
Y22654D01*
X26772D01*
Y24122D01*
D02*
G37*
G36*
X24500D02*
X23228D01*
Y22654D01*
X24500D01*
Y24122D01*
D02*
G37*
G36*
X26772Y21654D02*
X25500D01*
Y20185D01*
X26772D01*
Y21654D01*
D02*
G37*
G36*
X24500D02*
X23228D01*
Y20185D01*
X24500D01*
Y21654D01*
D02*
G37*
%LPD*%
D14*
X103150Y53740D02*
D03*
X99213D02*
D03*
X25000Y22154D02*
D03*
X21063D02*
D03*
X13386Y22047D02*
D03*
X9449D02*
D03*
X31399Y22446D02*
D03*
X35336D02*
D03*
X56399Y22741D02*
D03*
X60336D02*
D03*
X20866Y95669D02*
D03*
X24803D02*
D03*
X12795D02*
D03*
X8858D02*
D03*
X26592Y54852D02*
D03*
X22655D02*
D03*
X26576Y50399D02*
D03*
X22639D02*
D03*
X26592Y59306D02*
D03*
X22655D02*
D03*
X26576Y68214D02*
D03*
X22639D02*
D03*
X26592Y63760D02*
D03*
X22655D02*
D03*
X108466Y91376D02*
D03*
X104528D02*
D03*
X108466Y102859D02*
D03*
X104528D02*
D03*
X108466Y85635D02*
D03*
X104528D02*
D03*
X108466Y97118D02*
D03*
X104528D02*
D03*
X64174Y57387D02*
D03*
X60237D02*
D03*
Y53647D02*
D03*
X64174D02*
D03*
X76379Y104828D02*
D03*
X72442D02*
D03*
X76084Y83076D02*
D03*
X72147D02*
D03*
X15257Y61029D02*
D03*
X19194D02*
D03*
X15257Y63391D02*
D03*
X19194D02*
D03*
X15257Y70477D02*
D03*
X19194D02*
D03*
X15257Y65753D02*
D03*
X19194D02*
D03*
X15257Y68115D02*
D03*
X19194D02*
D03*
X15257Y52564D02*
D03*
X19194D02*
D03*
X15257Y47840D02*
D03*
X19194D02*
D03*
X15257Y50203D02*
D03*
X19194D02*
D03*
X15257Y54926D02*
D03*
X19194D02*
D03*
X15257Y57288D02*
D03*
X19194D02*
D03*
D15*
X92934Y79237D02*
D03*
Y82977D02*
D03*
Y86718D02*
D03*
X83052Y79237D02*
D03*
Y82977D02*
D03*
Y86718D02*
D03*
X92934Y101088D02*
D03*
Y104828D02*
D03*
Y108568D02*
D03*
X83052Y101088D02*
D03*
Y104828D02*
D03*
Y108568D02*
D03*
X15867Y83174D02*
D03*
Y86914D02*
D03*
Y90655D02*
D03*
X5985Y83174D02*
D03*
Y86914D02*
D03*
Y90655D02*
D03*
X6084Y34946D02*
D03*
Y31206D02*
D03*
Y27466D02*
D03*
X15966Y34946D02*
D03*
Y31206D02*
D03*
Y27466D02*
D03*
D16*
X126476Y80216D02*
D03*
Y37894D02*
D03*
D17*
X113779Y71358D02*
D03*
Y66437D02*
D03*
Y61516D02*
D03*
Y56595D02*
D03*
Y51673D02*
D03*
Y46752D02*
D03*
D18*
X115748Y27067D02*
D03*
Y23130D02*
D03*
X77757Y5221D02*
D03*
Y9159D02*
D03*
Y19099D02*
D03*
Y15162D02*
D03*
X63584Y30911D02*
D03*
Y34848D02*
D03*
X58269Y34749D02*
D03*
Y30812D02*
D03*
X47540Y58273D02*
D03*
Y54336D02*
D03*
Y37800D02*
D03*
Y41737D02*
D03*
X70473Y95674D02*
D03*
Y91737D02*
D03*
X43111Y99808D02*
D03*
Y103745D02*
D03*
X70473Y72840D02*
D03*
Y68903D02*
D03*
X43210Y87308D02*
D03*
Y91245D02*
D03*
X34942Y41442D02*
D03*
Y37505D02*
D03*
X31300Y41442D02*
D03*
Y37505D02*
D03*
X38584D02*
D03*
Y41442D02*
D03*
X27659Y37505D02*
D03*
Y41442D02*
D03*
X24115Y37505D02*
D03*
Y41442D02*
D03*
X78446Y60536D02*
D03*
Y64473D02*
D03*
X85828Y8174D02*
D03*
Y12111D02*
D03*
X106102Y11614D02*
D03*
Y7677D02*
D03*
X9351Y71084D02*
D03*
Y75021D02*
D03*
X11714Y71084D02*
D03*
Y75021D02*
D03*
X6989Y71084D02*
D03*
Y75021D02*
D03*
X2265Y71068D02*
D03*
Y75005D02*
D03*
X4627Y71084D02*
D03*
Y75021D02*
D03*
X4626Y47151D02*
D03*
Y43214D02*
D03*
X2264Y47151D02*
D03*
Y43214D02*
D03*
X6989Y47151D02*
D03*
Y43214D02*
D03*
X9351Y47151D02*
D03*
Y43214D02*
D03*
X11714Y47151D02*
D03*
Y43214D02*
D03*
D19*
X102953Y70098D02*
D03*
X99213D02*
D03*
X95472D02*
D03*
X102953Y60216D02*
D03*
X99213D02*
D03*
X95472D02*
D03*
X109055Y34272D02*
D03*
X105315D02*
D03*
X101575D02*
D03*
X109055Y24390D02*
D03*
X105315D02*
D03*
X101575D02*
D03*
D20*
X44094Y4331D02*
D03*
Y16634D02*
D03*
X68702Y4139D02*
D03*
Y16442D02*
D03*
D21*
X56497Y14670D02*
D03*
X60237Y6403D02*
D03*
X52757D02*
D03*
X31497Y14572D02*
D03*
X35237Y6304D02*
D03*
X27757D02*
D03*
D22*
X31497Y46166D02*
D03*
X33072D02*
D03*
X34647D02*
D03*
X31497Y47741D02*
D03*
X33072D02*
D03*
X34647D02*
D03*
D23*
X42324Y46166D02*
D03*
D24*
X42363Y48135D02*
D03*
Y50103D02*
D03*
X39410Y48135D02*
D03*
Y50103D02*
D03*
Y46166D02*
D03*
D25*
X63584Y47938D02*
D03*
Y40458D02*
D03*
X54922Y47938D02*
D03*
Y44198D02*
D03*
Y40458D02*
D03*
D26*
X91241Y30320D02*
D03*
X88682D02*
D03*
X86123D02*
D03*
X83564D02*
D03*
X81005D02*
D03*
X78446D02*
D03*
X75887D02*
D03*
Y53548D02*
D03*
X78446D02*
D03*
X81005D02*
D03*
X83564D02*
D03*
X86123D02*
D03*
X88682D02*
D03*
X91241D02*
D03*
D27*
X92324Y15359D02*
D03*
X99804D02*
D03*
X92324Y6698D02*
D03*
X96064D02*
D03*
X99804D02*
D03*
D28*
X20951Y75675D02*
D03*
X23734Y78459D02*
D03*
D29*
X31395Y51284D02*
D03*
X34552D02*
D03*
D30*
X32973Y62308D02*
D03*
Y60733D02*
D03*
Y59158D02*
D03*
Y57584D02*
D03*
Y56009D02*
D03*
Y54434D02*
D03*
Y52859D02*
D03*
Y63883D02*
D03*
Y65458D02*
D03*
D31*
X53446Y95477D02*
D03*
X61714Y99218D02*
D03*
Y91737D02*
D03*
X53347Y72151D02*
D03*
X61615Y75891D02*
D03*
Y68410D02*
D03*
D32*
X31005Y101383D02*
D03*
D33*
X36812Y107387D02*
D03*
X25198D02*
D03*
D34*
X64273Y106993D02*
D03*
X51969D02*
D03*
X64174Y83765D02*
D03*
X51871D02*
D03*
X29233Y74906D02*
D03*
X41536D02*
D03*
D35*
X6674Y54306D02*
D03*
Y63895D02*
D03*
D36*
X7088Y57387D02*
D03*
Y60812D02*
D03*
D37*
X3712Y59099D02*
D03*
D38*
X43170Y60674D02*
D03*
Y54532D02*
D03*
X43111Y41462D02*
D03*
Y35320D02*
D03*
D67*
X28076Y82800D02*
G03*
X31005Y89872I-7071J7071D01*
G01*
X19784Y86914D02*
X19785Y86915D01*
X21635D01*
X24803Y90084D01*
Y95669D01*
X23734Y78459D02*
X28076Y82800D01*
X31005Y89872D02*
Y101383D01*
X27954Y54434D02*
X32973D01*
X28987Y57584D02*
X32973D01*
X27265Y60733D02*
X32973D01*
X28387Y63883D02*
X32973D01*
X27265Y62761D02*
X28387Y63883D01*
X38781Y54434D02*
X38879Y54532D01*
X32973Y54434D02*
X38781D01*
X32973Y63883D02*
X37698D01*
X37993Y60733D02*
X38584Y60143D01*
X32973Y60733D02*
X37993D01*
X27265Y59306D02*
X28987Y57584D01*
X27265Y55123D02*
X27954Y54434D01*
X37759Y52072D02*
X37993D01*
X36971Y51284D02*
X37759Y52072D01*
X34552Y51284D02*
X36971D01*
X38387Y57584D02*
X38485Y57682D01*
X32973Y57584D02*
X38387D01*
X38485Y67426D02*
X42128Y71069D01*
X38485Y61717D02*
Y67426D01*
X42363Y48135D02*
X44489D01*
X33072Y44198D02*
X34351D01*
X31792D02*
X33072D01*
Y46166D01*
X68308Y52662D02*
X72836D01*
X60139Y53745D02*
X60237Y53647D01*
X66241Y30911D02*
X66241Y30911D01*
X27658Y37505D02*
X27659Y37505D01*
X42737Y34946D02*
X43111Y35320D01*
X24115Y37505D02*
X27659D01*
X24115Y37505D02*
X24115Y37505D01*
X51280Y49513D02*
X52855Y47938D01*
X51280Y46363D02*
X52855Y47938D01*
X51280Y39670D02*
Y46363D01*
X34942Y41442D02*
X38584D01*
X26592Y61406D02*
X27265Y60733D01*
X26592Y61406D02*
Y63760D01*
X27265Y60733D02*
Y62761D01*
Y55123D02*
Y59306D01*
Y60733D01*
Y62544D02*
Y62761D01*
X63584Y34848D02*
Y40458D01*
X58318Y34798D02*
X63534D01*
X63584Y34848D01*
X58269Y34749D02*
X58318Y34798D01*
X64174Y53745D02*
Y57387D01*
X64076Y53647D02*
X64174Y53745D01*
X64076Y48430D02*
Y53647D01*
X63584Y47938D02*
X64076Y48430D01*
X42324Y42249D02*
X43111Y41462D01*
X42324Y42249D02*
Y46166D01*
X43111Y41462D02*
X43387Y41737D01*
X47540D01*
X43170Y54532D02*
X43367Y54336D01*
X47540D01*
X42363Y53726D02*
X43170Y54532D01*
X42363Y50103D02*
Y53726D01*
X37348Y47993D02*
X37419Y48064D01*
X39339D01*
X39410Y48135D01*
X38584Y41442D02*
Y43903D01*
X24115Y41442D02*
X27659D01*
X27363Y46166D02*
X31497D01*
X24115Y41442D02*
X24271Y41598D01*
Y43074D01*
X27363Y46166D01*
X27659Y41442D02*
X31300D01*
X52855Y47938D02*
X54922D01*
X47540Y58273D02*
X49410D01*
X51280Y49513D02*
Y56403D01*
X49410Y58273D02*
X51280Y56403D01*
X47540Y37800D02*
X47581Y37759D01*
X49369D01*
X51280Y39670D01*
X34647Y47741D02*
X36865Y49960D01*
X39267D01*
X39410Y50103D01*
X34647Y46166D02*
X39410D01*
D68*
X55340Y40876D02*
X58494D01*
X60638Y43020D02*
X81193D01*
X58494Y40876D02*
X60638Y43020D01*
X85778Y20995D02*
X87888Y23104D01*
X85778Y12161D02*
Y20995D01*
X87888Y23104D02*
Y23234D01*
X109643Y56976D02*
Y61516D01*
X108268Y55600D02*
X109643Y56976D01*
X108268Y55315D02*
Y55600D01*
X103595Y67565D02*
X109643Y61516D01*
X113779D01*
X103595Y67565D02*
Y69457D01*
X94095Y39173D02*
X99311D01*
Y30709D02*
Y39173D01*
Y42618D01*
X91831Y41437D02*
X94095Y39173D01*
X82776Y41437D02*
X91831D01*
X81193Y43020D02*
X82776Y41437D01*
X99311Y42618D02*
X108225Y51533D01*
X99311Y30709D02*
X100394Y29626D01*
X99213Y48149D02*
Y60216D01*
X80303Y46063D02*
X93795D01*
X79305Y47060D02*
X80303Y46063D01*
X93795D02*
X95401Y47668D01*
X78845Y47060D02*
X79305D01*
X91241Y50308D02*
Y53548D01*
X90059Y48729D02*
Y49126D01*
X91241Y50308D01*
X82355Y49141D02*
X85519D01*
X81005Y50491D02*
X82355Y49141D01*
X85519D02*
X85930Y48731D01*
X108225Y51533D02*
Y55273D01*
X115525Y21231D02*
Y22907D01*
X93602Y19094D02*
X113388D01*
X115525Y22907D02*
X115748Y23130D01*
X113388Y19094D02*
X115525Y21231D01*
X113160Y51054D02*
X113779Y51673D01*
X101575Y34272D02*
Y42520D01*
X110109Y51054D01*
X113160D01*
X95597Y73980D02*
X97154Y75538D01*
Y76120D01*
X91339Y64350D02*
Y78596D01*
Y64350D02*
X93734Y61955D01*
X91980Y79237D02*
X96560D01*
X91339Y78596D02*
X91980Y79237D01*
X95472Y60216D02*
Y61314D01*
X93734Y61955D02*
X94831D01*
X95472Y61314D01*
X90658Y59091D02*
Y59252D01*
X88682Y57115D02*
X90658Y59091D01*
X99213Y60216D02*
X102953D01*
Y70098D02*
X103595Y69457D01*
X95401Y47668D02*
Y50716D01*
X95374Y50689D02*
X95437Y50752D01*
Y60181D01*
X95472Y60216D01*
X54922Y40458D02*
X55340Y40876D01*
X86123Y76576D02*
X86910Y77362D01*
Y97663D01*
X86123Y53548D02*
Y76576D01*
X84292Y101088D02*
X84934Y100446D01*
Y99638D02*
X86910Y97663D01*
X83052Y101088D02*
X84292D01*
X84934Y99638D02*
Y100446D01*
X96560Y79237D02*
X100682Y83359D01*
Y95972D01*
X95989Y100665D02*
X100682Y95972D01*
X95472Y70098D02*
X95597Y70223D01*
Y73980D01*
X113779Y56595D02*
X120079D01*
X105315Y24390D02*
X109055D01*
X94390Y27559D02*
X97559Y24390D01*
X101575D01*
X94390Y27559D02*
Y35728D01*
X109055Y30610D02*
Y34272D01*
X100394Y29626D02*
X108071D01*
X109055Y30610D01*
X91339Y38780D02*
X94390Y35728D01*
X85827Y38780D02*
X91339D01*
X85827D02*
X86002Y38605D01*
X78446Y36221D02*
X81004Y38780D01*
X85827D01*
X86002Y30441D02*
Y38605D01*
Y30441D02*
X86123Y30320D01*
X92934Y86754D02*
X94003D01*
X94608Y87359D02*
Y90577D01*
X94686Y90655D01*
X94003Y86754D02*
X94608Y87359D01*
X92934Y101088D02*
X93357Y100665D01*
X95989D01*
X108225Y55273D02*
X108268Y55315D01*
X78446Y30320D02*
Y36221D01*
X83366Y34794D02*
X83465Y34695D01*
Y30419D02*
Y34695D01*
Y30419D02*
X83564Y30320D01*
X78446Y47605D02*
Y53548D01*
X75887Y37304D02*
X78543Y39961D01*
Y40453D01*
X75887Y30320D02*
Y37304D01*
X78446Y47605D02*
X78446Y47605D01*
X88387Y98247D02*
X90354Y96280D01*
Y95866D02*
Y96280D01*
X88387Y98247D02*
Y107092D01*
X88682Y53548D02*
Y57115D01*
X83367Y87033D02*
Y90556D01*
X83052Y86718D02*
X83367Y87033D01*
X83261Y75197D02*
Y79029D01*
X83052Y79237D02*
X83261Y79029D01*
X76133Y86373D02*
X76182Y86422D01*
X76133Y83125D02*
Y86373D01*
X76084Y83076D02*
X76133Y83125D01*
X83003Y83027D02*
X83052Y82977D01*
X76133Y83027D02*
X83003D01*
X76084Y83076D02*
X76133Y83027D01*
X92520Y15555D02*
Y18012D01*
X92324Y15359D02*
X92520Y15555D01*
Y18012D02*
X93602Y19094D01*
X109697Y23130D02*
X115748D01*
X109055Y23772D02*
X109697Y23130D01*
X109055Y23772D02*
Y24390D01*
X17717Y19685D02*
Y22837D01*
X22830Y14572D02*
X31497D01*
X17717Y19685D02*
X22830Y14572D01*
X31399Y14670D02*
X31497Y14572D01*
X31399Y14670D02*
Y22446D01*
X32375Y15844D02*
X43304D01*
X44094Y16634D01*
X81890Y6693D02*
Y20866D01*
X80418Y5221D02*
X81890Y6693D01*
Y20866D02*
X88682Y27659D01*
X75887Y56202D02*
X78323Y58638D01*
Y60414D02*
X78446Y60536D01*
X78323Y58638D02*
Y60414D01*
X75887Y53548D02*
Y56202D01*
X81005Y50491D02*
Y53548D01*
X88682Y27659D02*
Y30320D01*
X81005Y26674D02*
Y30320D01*
X77757Y19099D02*
Y23426D01*
X81005Y26674D01*
X77757Y5221D02*
X80418D01*
X83564Y53548D02*
Y62924D01*
X73648Y72840D02*
X83564Y62924D01*
X70473Y72840D02*
X73648D01*
X20769Y31304D02*
X20879Y31194D01*
Y22338D02*
Y31194D01*
Y22338D02*
X21063Y22154D01*
X1773Y23818D02*
X3543Y22047D01*
X9449D01*
X1773Y23818D02*
Y31206D01*
X9708Y25332D02*
X15222D01*
X17717Y22837D01*
X3543Y95669D02*
X8858D01*
X1773Y93899D02*
X3543Y95669D01*
X1773Y86914D02*
Y93899D01*
X1773Y31206D02*
Y36914D01*
Y31206D02*
X6084D01*
X8215Y26824D02*
X9708Y25332D01*
X6725Y26824D02*
X8215D01*
X6084Y27466D02*
X6725Y26824D01*
X42913Y25984D02*
X54205Y14693D01*
X32067Y25984D02*
X42913D01*
X20972Y37080D02*
X32067Y25984D01*
X56475Y14693D02*
X56497Y14670D01*
X54205Y14693D02*
X56475D01*
X31497Y14966D02*
X32375Y15844D01*
X68505Y16442D02*
X68702D01*
X67127Y15064D02*
X68505Y16442D01*
X56399Y15064D02*
Y22741D01*
X67127Y15064D02*
X68505Y16442D01*
X56497Y14670D02*
X56891Y15064D01*
X68505Y16442D02*
X68702D01*
X56891Y15064D02*
X67127D01*
X72762Y15162D02*
X77757D01*
X69408Y11808D02*
X72762Y15162D01*
X32867Y11808D02*
X69408D01*
X27757Y6698D02*
X32867Y11808D01*
X27757Y6304D02*
Y6698D01*
X66105Y9159D02*
X77757D01*
X66097Y9166D02*
X66105Y9159D01*
X55127Y9166D02*
X66097D01*
X52757Y6796D02*
X55127Y9166D01*
X52757Y6403D02*
Y6796D01*
X35336Y18706D02*
Y22446D01*
X60336Y19001D02*
Y22741D01*
X6084Y34946D02*
X7324D01*
X9458Y37080D02*
X20972D01*
X7324Y34946D02*
X9458Y37080D01*
X1773Y81107D02*
Y86914D01*
X5985D01*
X22098Y83223D02*
X22147Y83272D01*
X15916Y83223D02*
X22098D01*
X15867Y83174D02*
X15916Y83223D01*
X43111Y32387D02*
Y35320D01*
X43513Y61017D02*
X46840D01*
X43170Y60674D02*
X43513Y61017D01*
X46840D02*
X46950Y61127D01*
X86910Y108568D02*
X88387Y107092D01*
X40166Y103836D02*
Y104934D01*
X40355Y105320D02*
X42914Y107879D01*
X40166Y104934D02*
X40355Y105123D01*
Y105320D01*
X36418Y98036D02*
X40166D01*
Y103836D01*
Y91245D02*
Y98036D01*
Y76277D02*
Y91245D01*
X40166Y91245D02*
X43210D01*
X40166Y91245D02*
X40166Y91245D01*
X40166Y103836D02*
X40257Y103745D01*
X43111D01*
X40166Y76277D02*
X41536Y74906D01*
X91446Y14118D02*
X92324Y14996D01*
X85828Y12111D02*
X88091D01*
X90098Y14118D02*
X91446D01*
X88091Y12111D02*
X90098Y14118D01*
X92324Y14996D02*
Y15359D01*
X70473Y95674D02*
X82678D01*
X76280Y100989D02*
X76330Y101038D01*
Y104779D02*
X76379Y104828D01*
X76330Y101038D02*
Y104779D01*
X78397Y60586D02*
X78446Y60536D01*
X74853Y60586D02*
X78397D01*
X74804Y60635D02*
X74853Y60586D01*
X85778Y12161D02*
X85828Y12111D01*
X54922Y44198D02*
X58564D01*
X57481Y53745D02*
X60139D01*
X43013Y61029D02*
Y63883D01*
X63584Y28450D02*
Y30911D01*
X66241D01*
X27658Y34848D02*
Y37505D01*
X38584Y34946D02*
X42737D01*
X38584D02*
Y37505D01*
X10877Y83125D02*
Y90507D01*
X5956Y83125D02*
X10779D01*
X10877Y90507D02*
X10926Y90556D01*
X10828Y83076D02*
X10877Y83125D01*
X11025Y31009D02*
Y34848D01*
Y27269D02*
Y31009D01*
X11074Y34897D02*
X15916D01*
X15966Y34946D01*
X11025Y34848D02*
X11074Y34897D01*
X11123Y27367D02*
X15867D01*
X11025Y27269D02*
X11123Y27367D01*
X15867D02*
X15966Y27466D01*
X5906Y83174D02*
X5956Y83125D01*
X10779D02*
X10828Y83076D01*
X6054Y90605D02*
X10877D01*
X5906Y90753D02*
X6054Y90605D01*
X10877D02*
X10926Y90556D01*
X15867Y86914D02*
X19784D01*
X94559Y112181D02*
X94588Y112210D01*
X93917Y108568D02*
X94559Y109210D01*
X92934Y108568D02*
X93917D01*
X94559Y109210D02*
Y112181D01*
X83052Y108568D02*
X86910D01*
X76379Y104828D02*
X83052D01*
X70227Y68656D02*
X70473Y68903D01*
X61861Y68656D02*
X70227D01*
X61615Y68410D02*
X61861Y68656D01*
X70424Y91688D02*
X70473Y91737D01*
X61763Y91688D02*
X70424D01*
X61714Y91737D02*
X61763Y91688D01*
X43160Y95428D02*
Y99759D01*
X43111Y99808D02*
X43160Y99759D01*
Y95428D02*
X43210Y95379D01*
X43407Y83666D02*
Y87111D01*
X43210Y87308D02*
X43407Y87111D01*
Y83666D02*
X43603Y83469D01*
X15966Y31206D02*
X20670D01*
X20769Y31304D01*
X51576Y83469D02*
X51871Y83765D01*
X43603Y83469D02*
X51576D01*
X51969Y106993D02*
X52560Y106403D01*
X53438Y95477D02*
X53446D01*
X52560Y96355D02*
Y106403D01*
Y96355D02*
X53438Y95477D01*
X53397Y95428D02*
X53446Y95477D01*
X43259Y95428D02*
X53397D01*
X43210Y95379D02*
X43259Y95428D01*
X15966Y90753D02*
X22048D01*
X15867Y90655D02*
X15966Y90753D01*
X22048D02*
X22147Y90851D01*
X51871Y83765D02*
X52462Y83174D01*
X53340Y72151D02*
X53347D01*
X52462Y73029D02*
X53340Y72151D01*
X52462Y73029D02*
Y83174D01*
D69*
X108465Y66437D02*
X122736D01*
X106102Y7677D02*
X109449D01*
X99415D02*
X106102D01*
X99410Y7682D02*
X99415Y7677D01*
X99410Y7682D02*
Y8786D01*
X98053Y10143D02*
X99410Y8786D01*
X94074Y10143D02*
X98053D01*
X92717Y8786D02*
X94074Y10143D01*
X92717Y7092D02*
Y8786D01*
X92324Y6698D02*
X92717Y7092D01*
X109449Y7677D02*
X134153Y32382D01*
Y55020D01*
X122736Y66437D02*
X134153Y55020D01*
X55070Y57338D02*
X60237D01*
X33121Y33027D02*
Y37505D01*
X51604Y29139D02*
X53179Y30714D01*
X33121Y33027D02*
X37009Y29139D01*
X53179Y30714D02*
X53347D01*
X37009Y29139D02*
X51604D01*
X53347Y30714D02*
X53446Y30812D01*
X33121Y37505D02*
X34942D01*
X31300D02*
X33121D01*
X53446Y30812D02*
X58269D01*
X55021Y57288D02*
X55070Y57338D01*
X60237D02*
Y57387D01*
D70*
X31497Y47741D02*
X33072D01*
D71*
X38485Y61717D02*
D03*
D72*
X31399Y68017D02*
D03*
D73*
X103643Y94247D02*
D03*
D74*
X27215Y59306D02*
D03*
D75*
X21015Y59109D02*
D03*
D76*
X118996Y75492D02*
D03*
Y42618D02*
D03*
D77*
X125984Y106299D02*
D03*
Y11811D02*
D03*
X11811D02*
D03*
Y106299D02*
D03*
D78*
X87888Y23234D02*
D03*
X96457Y41929D02*
D03*
X99213Y48149D02*
D03*
X90059Y48729D02*
D03*
X85930Y48731D02*
D03*
X133071Y63287D02*
D03*
X97154Y76120D02*
D03*
X90658Y59252D02*
D03*
X108465Y66437D02*
D03*
X95401Y50716D02*
D03*
X97244Y94685D02*
D03*
X103347Y79626D02*
D03*
X99114Y65158D02*
D03*
X74114Y11811D02*
D03*
X123031Y47933D02*
D03*
X105020Y41831D02*
D03*
X92421Y22638D02*
D03*
X110039Y15551D02*
D03*
X121949Y28642D02*
D03*
X120079Y56595D02*
D03*
X94390Y35728D02*
D03*
X85880Y38780D02*
D03*
X94686Y90655D02*
D03*
X108268Y55315D02*
D03*
X83366Y34794D02*
D03*
X78543Y40453D02*
D03*
X78446Y47605D02*
D03*
X90354Y95866D02*
D03*
X83261Y75197D02*
D03*
X85827Y3937D02*
D03*
X48425Y8661D02*
D03*
X50787Y23228D02*
D03*
X42913Y21654D02*
D03*
X39370Y7874D02*
D03*
X22147Y83272D02*
D03*
X60336Y19001D02*
D03*
X53347Y30714D02*
D03*
X68308Y52662D02*
D03*
X57088Y65458D02*
D03*
X105808Y113292D02*
D03*
X57973Y106796D02*
D03*
X104332Y3548D02*
D03*
X42914Y107879D02*
D03*
X36418Y98036D02*
D03*
X35336Y18706D02*
D03*
X55021Y57288D02*
D03*
X82678Y95674D02*
D03*
X76280Y100989D02*
D03*
X76182Y86422D02*
D03*
X74804Y60635D02*
D03*
X30907Y109454D02*
D03*
X58367Y114277D02*
D03*
X71556Y114375D02*
D03*
X66832Y77958D02*
D03*
X76773Y76186D02*
D03*
X75395Y91343D02*
D03*
X57678Y83863D02*
D03*
X36221Y87702D02*
D03*
X35631Y78745D02*
D03*
X50493Y65655D02*
D03*
X68997Y63095D02*
D03*
X72047Y56693D02*
D03*
X72245Y49119D02*
D03*
X72147Y40359D02*
D03*
X71653Y31791D02*
D03*
X71359Y24808D02*
D03*
X64962Y24119D02*
D03*
X24410Y28351D02*
D03*
X94588Y112210D02*
D03*
X83367Y90556D02*
D03*
X43603Y83469D02*
D03*
X43210Y95379D02*
D03*
X22147Y90851D02*
D03*
D79*
X115058Y80605D02*
D03*
Y77160D02*
D03*
X112794Y75684D02*
D03*
X112795Y78937D02*
D03*
X108268Y78051D02*
D03*
X13386Y50394D02*
D03*
X13682Y68017D02*
D03*
X112796Y82190D02*
D03*
X43111Y32387D02*
D03*
X46950Y61127D02*
D03*
X37993Y52072D02*
D03*
X44489Y48135D02*
D03*
X34351Y44198D02*
D03*
X31792D02*
D03*
X66241Y30911D02*
D03*
X63584Y28450D02*
D03*
X54922Y44198D02*
D03*
X58564D02*
D03*
X57481Y53745D02*
D03*
X43013Y63883D02*
D03*
X27658Y34848D02*
D03*
X38584Y34946D02*
D03*
X11025Y31009D02*
D03*
X10926Y90556D02*
D03*
X11025Y27269D02*
D03*
Y34848D02*
D03*
X15966Y27466D02*
D03*
Y34946D02*
D03*
X10828Y83076D02*
D03*
Y86816D02*
D03*
X19784Y86914D02*
D03*
X5906Y90753D02*
D03*
Y83174D02*
D03*
X20769Y31304D02*
D03*
X1773Y81107D02*
D03*
X1773Y36914D02*
D03*
X37348Y47993D02*
D03*
X38584Y43903D02*
D03*
X2855Y49414D02*
D03*
X11880Y71530D02*
D03*
D80*
X112599Y103351D02*
D03*
Y102086D02*
D03*
Y100820D02*
D03*
Y99555D02*
D03*
Y98290D02*
D03*
Y94493D02*
D03*
Y93228D02*
D03*
Y91962D02*
D03*
Y90697D02*
D03*
Y89431D02*
D03*
Y88166D02*
D03*
Y86900D02*
D03*
Y85635D02*
D03*
Y95759D02*
D03*
Y97024D02*
D03*
X110729Y103351D02*
D03*
Y102086D02*
D03*
Y100820D02*
D03*
Y99555D02*
D03*
Y98290D02*
D03*
Y94493D02*
D03*
Y93228D02*
D03*
Y91962D02*
D03*
Y90697D02*
D03*
Y89431D02*
D03*
Y88166D02*
D03*
Y86900D02*
D03*
Y85635D02*
D03*
Y95759D02*
D03*
Y97024D02*
D03*
X102658Y96729D02*
D03*
Y95463D02*
D03*
Y85340D02*
D03*
Y86605D02*
D03*
Y87871D02*
D03*
Y89136D02*
D03*
Y90401D02*
D03*
Y91667D02*
D03*
Y92932D02*
D03*
Y94198D02*
D03*
Y97994D02*
D03*
Y99260D02*
D03*
Y100525D02*
D03*
Y101791D02*
D03*
Y103056D02*
D03*
X29233Y73627D02*
D03*
X27954D02*
D03*
X30414D02*
D03*
X29233Y76088D02*
D03*
X27954D02*
D03*
X30414D02*
D03*
Y74906D02*
D03*
X27954D02*
D03*
X29233D02*
D03*
D81*
X1340Y53423D02*
D03*
X2265Y60161D02*
D03*
X2265Y58067D02*
D03*
X1340Y60751D02*
D03*
Y64939D02*
D03*
Y56564D02*
D03*
X2265Y55973D02*
D03*
X1340Y62845D02*
D03*
Y54470D02*
D03*
X2265Y62254D02*
D03*
X2265Y59114D02*
D03*
X1340Y58657D02*
D03*
X2265Y64348D02*
D03*
X1340Y63892D02*
D03*
Y61798D02*
D03*
X2265Y63301D02*
D03*
X2265Y54926D02*
D03*
X1340Y59704D02*
D03*
X2265Y57020D02*
D03*
Y53879D02*
D03*
X1340Y57610D02*
D03*
Y55517D02*
D03*
X2265Y61207D02*
D03*
X34007Y65458D02*
D03*
X31940D02*
D03*
X32973Y65458D02*
D03*
X35040Y65458D02*
D03*
X35040Y62308D02*
D03*
X34007D02*
D03*
X32973Y62308D02*
D03*
X31940Y62308D02*
D03*
X35040Y56009D02*
D03*
Y52859D02*
D03*
Y59158D02*
D03*
X34007D02*
D03*
X32973Y59158D02*
D03*
X31940Y59158D02*
D03*
X30907D02*
D03*
X30907Y65458D02*
D03*
X34007Y56009D02*
D03*
X32973Y56009D02*
D03*
X31940Y56009D02*
D03*
X30907D02*
D03*
Y62308D02*
D03*
X34007Y52859D02*
D03*
X32973Y52859D02*
D03*
X31940Y52859D02*
D03*
X30907D02*
D03*
M02*
