G04*
G04 #@! TF.GenerationSoftware,Altium Limited,Altium Designer,21.6.4 (81)*
G04*
G04 Layer_Physical_Order=3*
G04 Layer_Color=128*
%FSLAX25Y25*%
%MOIN*%
G70*
G04*
G04 #@! TF.SameCoordinates,C4C27F94-8D06-4CED-BA01-644A42B81E3F*
G04*
G04*
G04 #@! TF.FilePolarity,Negative*
G04*
G01*
G75*
%ADD67C,0.01968*%
%ADD80C,0.04000*%
%ADD82C,0.05118*%
%ADD84C,0.02362*%
%ADD85C,0.03150*%
%ADD86C,0.01968*%
D67*
X592Y52170D02*
X35631D01*
Y65950D01*
X-196D02*
X35631D01*
X-97Y37800D02*
X18603D01*
X29824Y26580D01*
X67619D01*
X70178Y29139D01*
Y58469D01*
X65060Y63588D02*
X70178Y58469D01*
X47245Y63588D02*
X65060D01*
X30611Y80221D02*
X47245Y63588D01*
X1Y80221D02*
X30611D01*
D80*
X0Y11811D02*
G03*
X11811Y0I11811J0D01*
G01*
X125985D02*
G03*
X137796Y11811I0J11811D01*
G01*
Y106304D02*
G03*
X125985Y118115I-11811J0D01*
G01*
X11811D02*
G03*
X0Y106304I0J-11811D01*
G01*
X11811Y0D02*
X125985D01*
X137796Y11811D02*
Y106304D01*
X11811Y118115D02*
X125985D01*
X0Y11811D02*
Y106304D01*
D82*
X118701Y76476D02*
D03*
Y43602D02*
D03*
D84*
X13386Y50394D02*
D03*
X13682Y68017D02*
D03*
X108170Y77466D02*
D03*
X112796Y82190D02*
D03*
X108269Y82091D02*
D03*
X11025Y31009D02*
D03*
X10926Y90556D02*
D03*
X11025Y27269D02*
D03*
Y34848D02*
D03*
X15966Y27466D02*
D03*
Y34946D02*
D03*
X10828Y83076D02*
D03*
Y86816D02*
D03*
X19784Y86914D02*
D03*
X5906Y90753D02*
D03*
Y83174D02*
D03*
X20769Y31304D02*
D03*
X1773Y81107D02*
D03*
X1773Y36914D02*
D03*
X37348Y47993D02*
D03*
X38584Y43903D02*
D03*
X2855Y49414D02*
D03*
X11880Y71530D02*
D03*
D85*
X22147Y83272D02*
D03*
X57186Y19001D02*
D03*
X53347Y30714D02*
D03*
X42914Y107879D02*
D03*
X36418Y98036D02*
D03*
X22857Y10905D02*
D03*
X32186Y18706D02*
D03*
X108170Y66836D02*
D03*
X55021Y57288D02*
D03*
X82678Y95674D02*
D03*
X76280Y100989D02*
D03*
X76379Y83568D02*
D03*
X74804Y60635D02*
D03*
X85729Y20084D02*
D03*
X92330Y48228D02*
D03*
X94588Y112210D02*
D03*
X102174Y62477D02*
D03*
X101871Y57485D02*
D03*
X102174Y52564D02*
D03*
X94883Y87800D02*
D03*
X80513Y39966D02*
D03*
X80702Y47348D02*
D03*
X97639Y100891D02*
D03*
X99607Y76284D02*
D03*
X91143Y95969D02*
D03*
X91438Y59257D02*
D03*
X83564Y87702D02*
D03*
X86025Y48725D02*
D03*
X85828Y36324D02*
D03*
X83269Y72052D02*
D03*
X43603Y83469D02*
D03*
X43210Y95379D02*
D03*
X22147Y90851D02*
D03*
D86*
X112599Y103351D02*
D03*
Y102086D02*
D03*
Y100820D02*
D03*
Y99555D02*
D03*
Y98290D02*
D03*
Y94493D02*
D03*
Y93228D02*
D03*
Y91962D02*
D03*
Y90697D02*
D03*
Y89431D02*
D03*
Y88166D02*
D03*
Y86900D02*
D03*
Y85635D02*
D03*
Y95759D02*
D03*
Y97024D02*
D03*
X110729Y103351D02*
D03*
Y102086D02*
D03*
Y100820D02*
D03*
Y99555D02*
D03*
Y98290D02*
D03*
Y94493D02*
D03*
Y93228D02*
D03*
Y91962D02*
D03*
Y90697D02*
D03*
Y89431D02*
D03*
Y88166D02*
D03*
Y86900D02*
D03*
Y85635D02*
D03*
Y95759D02*
D03*
Y97024D02*
D03*
X102658Y96729D02*
D03*
Y95463D02*
D03*
Y85340D02*
D03*
Y86605D02*
D03*
Y87871D02*
D03*
Y89136D02*
D03*
Y90401D02*
D03*
Y91667D02*
D03*
Y92932D02*
D03*
Y94198D02*
D03*
Y97994D02*
D03*
Y99260D02*
D03*
Y100525D02*
D03*
Y101791D02*
D03*
Y103056D02*
D03*
X29233Y73627D02*
D03*
X27954D02*
D03*
X30414D02*
D03*
X29233Y76088D02*
D03*
X27954D02*
D03*
X30414D02*
D03*
Y74906D02*
D03*
X27954D02*
D03*
X29233D02*
D03*
X1340Y53423D02*
D03*
X2265Y60161D02*
D03*
X2265Y58067D02*
D03*
X1340Y60751D02*
D03*
Y64939D02*
D03*
Y56564D02*
D03*
X2265Y55973D02*
D03*
X1340Y62845D02*
D03*
Y54470D02*
D03*
X2265Y62254D02*
D03*
X2265Y59114D02*
D03*
X1340Y58657D02*
D03*
X2265Y64348D02*
D03*
X1340Y63892D02*
D03*
Y61798D02*
D03*
X2265Y63301D02*
D03*
X2265Y54926D02*
D03*
X1340Y59704D02*
D03*
X2265Y57020D02*
D03*
Y53879D02*
D03*
X1340Y57610D02*
D03*
Y55517D02*
D03*
X2265Y61207D02*
D03*
X34007Y65458D02*
D03*
X31940D02*
D03*
X32973Y65458D02*
D03*
X35040Y65458D02*
D03*
X35040Y62308D02*
D03*
X34007D02*
D03*
X32973Y62308D02*
D03*
X31940Y62308D02*
D03*
X35040Y56009D02*
D03*
Y52859D02*
D03*
Y59158D02*
D03*
X34007D02*
D03*
X32973Y59158D02*
D03*
X31940Y59158D02*
D03*
X30907D02*
D03*
X30907Y65458D02*
D03*
X34007Y56009D02*
D03*
X32973Y56009D02*
D03*
X31940Y56009D02*
D03*
X30907D02*
D03*
Y62308D02*
D03*
X34007Y52859D02*
D03*
X32973Y52859D02*
D03*
X31940Y52859D02*
D03*
X30907D02*
D03*
M02*
