G04*
G04 #@! TF.GenerationSoftware,Altium Limited,Altium Designer,21.6.4 (81)*
G04*
G04 Layer_Color=8388736*
%FSLAX25Y25*%
%MOIN*%
G70*
G04*
G04 #@! TF.SameCoordinates,C4C27F94-8D06-4CED-BA01-644A42B81E3F*
G04*
G04*
G04 #@! TF.FilePolarity,Negative*
G04*
G01*
G75*
%ADD38R,0.02362X0.00787*%
%ADD39C,0.01102*%
G04:AMPARAMS|DCode=40|XSize=13.78mil|YSize=22.44mil|CornerRadius=1.58mil|HoleSize=0mil|Usage=FLASHONLY|Rotation=90.000|XOffset=0mil|YOffset=0mil|HoleType=Round|Shape=RoundedRectangle|*
%AMROUNDEDRECTD40*
21,1,0.01378,0.01929,0,0,90.0*
21,1,0.01063,0.02244,0,0,90.0*
1,1,0.00315,0.00965,0.00532*
1,1,0.00315,0.00965,-0.00532*
1,1,0.00315,-0.00965,-0.00532*
1,1,0.00315,-0.00965,0.00532*
%
%ADD40ROUNDEDRECTD40*%
G04:AMPARAMS|DCode=41|XSize=13.78mil|YSize=21.26mil|CornerRadius=1.58mil|HoleSize=0mil|Usage=FLASHONLY|Rotation=90.000|XOffset=0mil|YOffset=0mil|HoleType=Round|Shape=RoundedRectangle|*
%AMROUNDEDRECTD41*
21,1,0.01378,0.01811,0,0,90.0*
21,1,0.01063,0.02126,0,0,90.0*
1,1,0.00315,0.00906,0.00532*
1,1,0.00315,0.00906,-0.00532*
1,1,0.00315,-0.00906,-0.00532*
1,1,0.00315,-0.00906,0.00532*
%
%ADD41ROUNDEDRECTD41*%
%ADD42R,0.04291X0.03110*%
%ADD43O,0.01968X0.04331*%
%ADD44R,0.03110X0.04291*%
G04:AMPARAMS|DCode=45|XSize=51.58mil|YSize=26.77mil|CornerRadius=4.82mil|HoleSize=0mil|Usage=FLASHONLY|Rotation=180.000|XOffset=0mil|YOffset=0mil|HoleType=Round|Shape=RoundedRectangle|*
%AMROUNDEDRECTD45*
21,1,0.05158,0.01713,0,0,180.0*
21,1,0.04193,0.02677,0,0,180.0*
1,1,0.00965,-0.02097,0.00856*
1,1,0.00965,0.02097,0.00856*
1,1,0.00965,0.02097,-0.00856*
1,1,0.00965,-0.02097,-0.00856*
%
%ADD45ROUNDEDRECTD45*%
%ADD46R,0.02756X0.02362*%
%ADD47R,0.02362X0.02756*%
G04:AMPARAMS|DCode=48|XSize=23.62mil|YSize=27.56mil|CornerRadius=0mil|HoleSize=0mil|Usage=FLASHONLY|Rotation=45.000|XOffset=0mil|YOffset=0mil|HoleType=Round|Shape=Rectangle|*
%AMROTATEDRECTD48*
4,1,4,0.00139,-0.01810,-0.01810,0.00139,-0.00139,0.01810,0.01810,-0.00139,0.00139,-0.01810,0.0*
%
%ADD48ROTATEDRECTD48*%

%ADD49O,0.02402X0.00906*%
%ADD50O,0.05551X0.00906*%
%ADD51R,0.03937X0.03150*%
%ADD52R,0.03150X0.03937*%
G04:AMPARAMS|DCode=53|XSize=43.31mil|YSize=45.28mil|CornerRadius=5.91mil|HoleSize=0mil|Usage=FLASHONLY|Rotation=0.000|XOffset=0mil|YOffset=0mil|HoleType=Round|Shape=RoundedRectangle|*
%AMROUNDEDRECTD53*
21,1,0.04331,0.03347,0,0,0.0*
21,1,0.03150,0.04528,0,0,0.0*
1,1,0.01181,0.01575,-0.01673*
1,1,0.01181,-0.01575,-0.01673*
1,1,0.01181,-0.01575,0.01673*
1,1,0.01181,0.01575,0.01673*
%
%ADD53ROUNDEDRECTD53*%
G04:AMPARAMS|DCode=54|XSize=44.29mil|YSize=122.05mil|CornerRadius=6mil|HoleSize=0mil|Usage=FLASHONLY|Rotation=180.000|XOffset=0mil|YOffset=0mil|HoleType=Round|Shape=RoundedRectangle|*
%AMROUNDEDRECTD54*
21,1,0.04429,0.11004,0,0,180.0*
21,1,0.03228,0.12205,0,0,180.0*
1,1,0.01201,-0.01614,0.05502*
1,1,0.01201,0.01614,0.05502*
1,1,0.01201,0.01614,-0.05502*
1,1,0.01201,-0.01614,-0.05502*
%
%ADD54ROUNDEDRECTD54*%
G04:AMPARAMS|DCode=55|XSize=66.93mil|YSize=90.55mil|CornerRadius=8.27mil|HoleSize=0mil|Usage=FLASHONLY|Rotation=90.000|XOffset=0mil|YOffset=0mil|HoleType=Round|Shape=RoundedRectangle|*
%AMROUNDEDRECTD55*
21,1,0.06693,0.07402,0,0,90.0*
21,1,0.05039,0.09055,0,0,90.0*
1,1,0.01654,0.03701,0.02520*
1,1,0.01654,0.03701,-0.02520*
1,1,0.01654,-0.03701,-0.02520*
1,1,0.01654,-0.03701,0.02520*
%
%ADD55ROUNDEDRECTD55*%
G04:AMPARAMS|DCode=56|XSize=31.5mil|YSize=62.99mil|CornerRadius=4.72mil|HoleSize=0mil|Usage=FLASHONLY|Rotation=90.000|XOffset=0mil|YOffset=0mil|HoleType=Round|Shape=RoundedRectangle|*
%AMROUNDEDRECTD56*
21,1,0.03150,0.05354,0,0,90.0*
21,1,0.02205,0.06299,0,0,90.0*
1,1,0.00945,0.02677,0.01102*
1,1,0.00945,0.02677,-0.01102*
1,1,0.00945,-0.02677,-0.01102*
1,1,0.00945,-0.02677,0.01102*
%
%ADD56ROUNDEDRECTD56*%
%ADD57R,0.04134X0.04528*%
%ADD58R,0.04528X0.04134*%
G04:AMPARAMS|DCode=59|XSize=19.09mil|YSize=41.34mil|CornerRadius=2.35mil|HoleSize=0mil|Usage=FLASHONLY|Rotation=90.000|XOffset=0mil|YOffset=0mil|HoleType=Round|Shape=RoundedRectangle|*
%AMROUNDEDRECTD59*
21,1,0.01909,0.03664,0,0,90.0*
21,1,0.01440,0.04134,0,0,90.0*
1,1,0.00470,0.01832,0.00720*
1,1,0.00470,0.01832,-0.00720*
1,1,0.00470,-0.01832,-0.00720*
1,1,0.00470,-0.01832,0.00720*
%
%ADD59ROUNDEDRECTD59*%
G04:AMPARAMS|DCode=60|XSize=25.98mil|YSize=33.07mil|CornerRadius=2.52mil|HoleSize=0mil|Usage=FLASHONLY|Rotation=90.000|XOffset=0mil|YOffset=0mil|HoleType=Round|Shape=RoundedRectangle|*
%AMROUNDEDRECTD60*
21,1,0.02598,0.02803,0,0,90.0*
21,1,0.02095,0.03307,0,0,90.0*
1,1,0.00504,0.01402,0.01047*
1,1,0.00504,0.01402,-0.01047*
1,1,0.00504,-0.01402,-0.01047*
1,1,0.00504,-0.01402,0.01047*
%
%ADD60ROUNDEDRECTD60*%
G04:AMPARAMS|DCode=61|XSize=64.96mil|YSize=18.7mil|CornerRadius=2.34mil|HoleSize=0mil|Usage=FLASHONLY|Rotation=90.000|XOffset=0mil|YOffset=0mil|HoleType=Round|Shape=RoundedRectangle|*
%AMROUNDEDRECTD61*
21,1,0.06496,0.01403,0,0,90.0*
21,1,0.06029,0.01870,0,0,90.0*
1,1,0.00468,0.00701,0.03014*
1,1,0.00468,0.00701,-0.03014*
1,1,0.00468,-0.00701,-0.03014*
1,1,0.00468,-0.00701,0.03014*
%
%ADD61ROUNDEDRECTD61*%
%ADD62R,0.03937X0.02756*%
%ADD63C,0.03937*%
%ADD64C,0.14173*%
D38*
X1505Y65694D02*
D03*
X1505Y52505D02*
D03*
D39*
X31497Y46166D02*
D03*
X33072D02*
D03*
X34647D02*
D03*
X31497Y47741D02*
D03*
X33072D02*
D03*
X34647D02*
D03*
D40*
X42324Y46166D02*
D03*
D41*
X42363Y48135D02*
D03*
Y50103D02*
D03*
X39410Y48135D02*
D03*
Y50103D02*
D03*
Y46166D02*
D03*
D42*
X63584Y47938D02*
D03*
Y40458D02*
D03*
X54922Y47938D02*
D03*
Y44198D02*
D03*
Y40458D02*
D03*
D43*
X93800Y30320D02*
D03*
X91241D02*
D03*
X88682D02*
D03*
X86123D02*
D03*
X83564D02*
D03*
X81005D02*
D03*
X78446D02*
D03*
Y53548D02*
D03*
X81005D02*
D03*
X83564D02*
D03*
X86123D02*
D03*
X88682D02*
D03*
X91241D02*
D03*
X93800D02*
D03*
D44*
X92324Y15359D02*
D03*
X99804D02*
D03*
X92324Y6698D02*
D03*
X96064D02*
D03*
X99804D02*
D03*
D45*
X92934Y101088D02*
D03*
Y104828D02*
D03*
Y108568D02*
D03*
X83052Y101088D02*
D03*
Y104828D02*
D03*
Y108568D02*
D03*
X93131Y76383D02*
D03*
Y80123D02*
D03*
Y83863D02*
D03*
X83249Y76383D02*
D03*
Y80123D02*
D03*
Y83863D02*
D03*
X15867Y83174D02*
D03*
Y86914D02*
D03*
Y90655D02*
D03*
X5985Y83174D02*
D03*
Y86914D02*
D03*
Y90655D02*
D03*
X6084Y34946D02*
D03*
Y31206D02*
D03*
Y27466D02*
D03*
X15966Y34946D02*
D03*
Y31206D02*
D03*
Y27466D02*
D03*
D46*
X63584Y30911D02*
D03*
Y34848D02*
D03*
X58269Y34749D02*
D03*
Y30812D02*
D03*
X47540Y58273D02*
D03*
Y54336D02*
D03*
Y37800D02*
D03*
Y41737D02*
D03*
X70473Y95674D02*
D03*
Y91737D02*
D03*
X43111Y99808D02*
D03*
Y103745D02*
D03*
X70473Y72840D02*
D03*
Y68903D02*
D03*
X43210Y87308D02*
D03*
Y91245D02*
D03*
X74607Y5221D02*
D03*
Y9159D02*
D03*
Y19099D02*
D03*
Y15162D02*
D03*
X34942Y41442D02*
D03*
Y37505D02*
D03*
X31300Y41442D02*
D03*
Y37505D02*
D03*
X38584D02*
D03*
Y41442D02*
D03*
X27659Y37505D02*
D03*
Y41442D02*
D03*
X24115Y37505D02*
D03*
Y41442D02*
D03*
X78446Y60536D02*
D03*
Y64473D02*
D03*
X85828Y8174D02*
D03*
Y12111D02*
D03*
X106202Y12210D02*
D03*
Y8273D02*
D03*
X9351Y71084D02*
D03*
Y75021D02*
D03*
X11714Y71084D02*
D03*
Y75021D02*
D03*
X6989Y71084D02*
D03*
Y75021D02*
D03*
X2265Y71068D02*
D03*
Y75005D02*
D03*
X4627Y71084D02*
D03*
Y75021D02*
D03*
X4626Y47151D02*
D03*
Y43214D02*
D03*
X2264Y47151D02*
D03*
Y43214D02*
D03*
X6989Y47151D02*
D03*
Y43214D02*
D03*
X9351Y47151D02*
D03*
Y43214D02*
D03*
X11714Y47151D02*
D03*
Y43214D02*
D03*
D47*
X26592Y54852D02*
D03*
X22655D02*
D03*
X26576Y50399D02*
D03*
X22639D02*
D03*
X26592Y59306D02*
D03*
X22655D02*
D03*
X26576Y68214D02*
D03*
X22639D02*
D03*
X26592Y63760D02*
D03*
X22655D02*
D03*
X53249Y22741D02*
D03*
X57186D02*
D03*
X28249Y22446D02*
D03*
X32186D02*
D03*
X108466Y91376D02*
D03*
X104528D02*
D03*
X108466Y102859D02*
D03*
X104528D02*
D03*
X108466Y85635D02*
D03*
X104528D02*
D03*
X108466Y97118D02*
D03*
X104528D02*
D03*
X64174Y57387D02*
D03*
X60237D02*
D03*
Y53647D02*
D03*
X64174D02*
D03*
X76379Y104828D02*
D03*
X72442D02*
D03*
X76280Y80221D02*
D03*
X72343D02*
D03*
X15257Y61029D02*
D03*
X19194D02*
D03*
X15257Y63391D02*
D03*
X19194D02*
D03*
X15257Y70477D02*
D03*
X19194D02*
D03*
X15257Y65753D02*
D03*
X19194D02*
D03*
X15257Y68115D02*
D03*
X19194D02*
D03*
X15257Y52564D02*
D03*
X19194D02*
D03*
X15257Y47840D02*
D03*
X19194D02*
D03*
X15257Y50203D02*
D03*
X19194D02*
D03*
X15257Y54926D02*
D03*
X19194D02*
D03*
X15257Y57288D02*
D03*
X19194D02*
D03*
D48*
X20951Y75675D02*
D03*
X23734Y78459D02*
D03*
D49*
X31395Y51284D02*
D03*
X34552D02*
D03*
D50*
X32973Y62308D02*
D03*
Y60733D02*
D03*
Y59158D02*
D03*
Y57584D02*
D03*
Y56009D02*
D03*
Y54434D02*
D03*
Y52859D02*
D03*
Y63883D02*
D03*
Y65458D02*
D03*
D51*
X53446Y95477D02*
D03*
X61714Y99218D02*
D03*
Y91737D02*
D03*
X53347Y72151D02*
D03*
X61615Y75891D02*
D03*
Y68410D02*
D03*
D52*
X53347Y14670D02*
D03*
X57088Y6403D02*
D03*
X49607D02*
D03*
X28347Y14572D02*
D03*
X32088Y6304D02*
D03*
X24607D02*
D03*
D53*
X31005Y101383D02*
D03*
D54*
X36812Y107387D02*
D03*
X25198D02*
D03*
D55*
X126181Y81201D02*
D03*
Y38878D02*
D03*
D56*
X113484Y72342D02*
D03*
Y67421D02*
D03*
Y62500D02*
D03*
Y57579D02*
D03*
Y52658D02*
D03*
Y47736D02*
D03*
D57*
X64273Y106993D02*
D03*
X51969D02*
D03*
X64174Y83765D02*
D03*
X51871D02*
D03*
X29233Y74906D02*
D03*
X41536D02*
D03*
D58*
X65552Y4139D02*
D03*
Y16442D02*
D03*
X40700Y3991D02*
D03*
Y16294D02*
D03*
D59*
X6674Y54306D02*
D03*
Y63895D02*
D03*
D60*
X7088Y57387D02*
D03*
Y60812D02*
D03*
D61*
X3712Y59099D02*
D03*
D62*
X43170Y60674D02*
D03*
Y54532D02*
D03*
X43111Y41462D02*
D03*
Y35320D02*
D03*
D63*
X118701Y76476D02*
D03*
Y43602D02*
D03*
D64*
X125984Y106299D02*
D03*
Y11811D02*
D03*
X11811D02*
D03*
Y106299D02*
D03*
M02*
