G04*
G04 #@! TF.GenerationSoftware,Altium Limited,Altium Designer,21.6.4 (81)*
G04*
G04 Layer_Color=65535*
%FSLAX25Y25*%
%MOIN*%
G70*
G04*
G04 #@! TF.SameCoordinates,C1900F0A-900D-499D-9597-BB550FD85569*
G04*
G04*
G04 #@! TF.FilePolarity,Positive*
G04*
G01*
G75*
%ADD10C,0.00984*%
%ADD11C,0.00787*%
%ADD12C,0.00394*%
%ADD13C,0.00500*%
D10*
X78741Y35438D02*
G03*
X78741Y35438I-394J0D01*
G01*
D11*
X98229Y101088D02*
G03*
X98229Y101088I-394J0D01*
G01*
X98426Y76383D02*
G03*
X98426Y76383I-394J0D01*
G01*
X21162Y83174D02*
G03*
X21162Y83174I-394J0D01*
G01*
X3151Y34946D02*
G03*
X3151Y34946I-394J0D01*
G01*
X50099Y104237D02*
Y109749D01*
X50001Y81009D02*
Y86521D01*
X63584Y19099D02*
X69095D01*
X38731Y18952D02*
X44243D01*
X44981Y72151D02*
Y77662D01*
X33531Y67952D02*
Y70051D01*
X33007Y70575D01*
X31957D01*
X31432Y70051D01*
Y67952D01*
X31957Y67427D01*
X33007D01*
X32482Y68476D02*
X33531Y67427D01*
X33007D02*
X33531Y67952D01*
X34581Y70575D02*
X36680D01*
Y70051D01*
X34581Y67952D01*
Y67427D01*
X111386Y101383D02*
Y104532D01*
X112961D01*
X113485Y104007D01*
Y102958D01*
X112961Y102433D01*
X111386D01*
X112436D02*
X113485Y101383D01*
X114535D02*
X115584D01*
X115059D01*
Y104532D01*
X114535Y104007D01*
X111354Y89572D02*
Y92721D01*
X112928D01*
X113453Y92196D01*
Y91147D01*
X112928Y90622D01*
X111354D01*
X112403D02*
X113453Y89572D01*
X114502Y92196D02*
X115027Y92721D01*
X116076D01*
X116601Y92196D01*
Y91672D01*
X116076Y91147D01*
X115552D01*
X116076D01*
X116601Y90622D01*
Y90097D01*
X116076Y89572D01*
X115027D01*
X114502Y90097D01*
X111354Y95576D02*
Y98725D01*
X112928D01*
X113453Y98200D01*
Y97151D01*
X112928Y96626D01*
X111354D01*
X112403D02*
X113453Y95576D01*
X116601D02*
X114502D01*
X116601Y97675D01*
Y98200D01*
X116076Y98725D01*
X115027D01*
X114502Y98200D01*
X111452Y84454D02*
Y87603D01*
X113026D01*
X113551Y87078D01*
Y86029D01*
X113026Y85504D01*
X111452D01*
X112502D02*
X113551Y84454D01*
X116175D02*
Y87603D01*
X114601Y86029D01*
X116700D01*
X19752Y116343D02*
X18702D01*
X19227D01*
Y113719D01*
X18702Y113194D01*
X18178D01*
X17653Y113719D01*
X22900Y113194D02*
X20801D01*
X22900Y115294D01*
Y115818D01*
X22376Y116343D01*
X21326D01*
X20801Y115818D01*
X26998Y43299D02*
X29622D01*
X30147Y43824D01*
Y44873D01*
X29622Y45398D01*
X26998D01*
X29622Y46448D02*
X30147Y46972D01*
Y48022D01*
X29622Y48547D01*
X27523D01*
X26998Y48022D01*
Y46972D01*
X27523Y46448D01*
X28047D01*
X28572Y46972D01*
Y48547D01*
X44785Y45905D02*
X47409D01*
X47934Y46429D01*
Y47479D01*
X47409Y48004D01*
X44785D01*
X45310Y49053D02*
X44785Y49578D01*
Y50628D01*
X45310Y51152D01*
X45834D01*
X46359Y50628D01*
X46884Y51152D01*
X47409D01*
X47934Y50628D01*
Y49578D01*
X47409Y49053D01*
X46884D01*
X46359Y49578D01*
X45834Y49053D01*
X45310D01*
X46359Y49578D02*
Y50628D01*
X49805Y44527D02*
X52428D01*
X52953Y45052D01*
Y46101D01*
X52428Y46626D01*
X49805D01*
Y47675D02*
Y49774D01*
X50329D01*
X52428Y47675D01*
X52953D01*
X72442Y46397D02*
X75066D01*
X75591Y46922D01*
Y47971D01*
X75066Y48496D01*
X72442D01*
Y51644D02*
X72967Y50595D01*
X74017Y49545D01*
X75066D01*
X75591Y50070D01*
Y51120D01*
X75066Y51644D01*
X74541D01*
X74017Y51120D01*
Y49545D01*
X82023Y115260D02*
Y112636D01*
X82548Y112112D01*
X83597D01*
X84122Y112636D01*
Y115260D01*
X87270Y112112D02*
X85171D01*
X87270Y114211D01*
Y114736D01*
X86746Y115260D01*
X85696D01*
X85171Y114736D01*
X95376Y18050D02*
X97999D01*
X98524Y18575D01*
Y19625D01*
X97999Y20150D01*
X95376D01*
X98524Y22773D02*
X95376D01*
X96950Y21199D01*
Y23298D01*
X82252Y90556D02*
Y87932D01*
X82777Y87407D01*
X83827D01*
X84351Y87932D01*
Y90556D01*
X85401Y87407D02*
X86450D01*
X85926D01*
Y90556D01*
X85401Y90031D01*
X69587Y27204D02*
X66439D01*
Y28779D01*
X66963Y29304D01*
X68013D01*
X68537Y28779D01*
Y27204D01*
Y28254D02*
X69587Y29304D01*
Y32452D02*
Y30353D01*
X67488Y32452D01*
X66963D01*
X66439Y31927D01*
Y30878D01*
X66963Y30353D01*
X66439Y35601D02*
X66963Y34551D01*
X68013Y33502D01*
X69062D01*
X69587Y34026D01*
Y35076D01*
X69062Y35601D01*
X68537D01*
X68013Y35076D01*
Y33502D01*
X56989Y27008D02*
X53840D01*
Y28582D01*
X54365Y29107D01*
X55414D01*
X55939Y28582D01*
Y27008D01*
Y28057D02*
X56989Y29107D01*
Y32255D02*
Y30156D01*
X54890Y32255D01*
X54365D01*
X53840Y31730D01*
Y30681D01*
X54365Y30156D01*
X53840Y35404D02*
Y33305D01*
X55414D01*
X54890Y34354D01*
Y34879D01*
X55414Y35404D01*
X56464D01*
X56989Y34879D01*
Y33830D01*
X56464Y33305D01*
X50197Y60669D02*
X47049D01*
Y62243D01*
X47574Y62768D01*
X48623D01*
X49148Y62243D01*
Y60669D01*
Y61719D02*
X50197Y62768D01*
Y65917D02*
Y63818D01*
X48098Y65917D01*
X47574D01*
X47049Y65392D01*
Y64342D01*
X47574Y63818D01*
X50197Y68541D02*
X47049D01*
X48623Y66966D01*
Y69065D01*
X29430Y85538D02*
X26281D01*
Y87112D01*
X26806Y87637D01*
X27855D01*
X28380Y87112D01*
Y85538D01*
Y86587D02*
X29430Y87637D01*
Y88686D02*
Y89736D01*
Y89211D01*
X26281D01*
X26806Y88686D01*
Y91310D02*
X26281Y91835D01*
Y92884D01*
X26806Y93409D01*
X27330D01*
X27855Y92884D01*
X28380Y93409D01*
X28905D01*
X29430Y92884D01*
Y91835D01*
X28905Y91310D01*
X28380D01*
X27855Y91835D01*
X27330Y91310D01*
X26806D01*
X27855Y91835D02*
Y92884D01*
X50296Y27762D02*
X47147D01*
Y29336D01*
X47672Y29861D01*
X48721D01*
X49246Y29336D01*
Y27762D01*
Y28812D02*
X50296Y29861D01*
Y30911D02*
Y31960D01*
Y31435D01*
X47147D01*
X47672Y30911D01*
X47147Y33535D02*
Y35634D01*
X47672D01*
X49771Y33535D01*
X50296D01*
X68997Y90754D02*
X65848D01*
Y92329D01*
X66373Y92853D01*
X67422D01*
X67947Y92329D01*
Y90754D01*
Y91804D02*
X68997Y92853D01*
Y93903D02*
Y94952D01*
Y94428D01*
X65848D01*
X66373Y93903D01*
X68997Y98101D02*
X65848D01*
X67422Y96527D01*
Y98626D01*
X45375Y105715D02*
X42226D01*
Y107289D01*
X42751Y107814D01*
X43800D01*
X44325Y107289D01*
Y105715D01*
Y106764D02*
X45375Y107814D01*
Y108863D02*
Y109913D01*
Y109388D01*
X42226D01*
X42751Y108863D01*
Y111487D02*
X42226Y112012D01*
Y113062D01*
X42751Y113586D01*
X43275D01*
X43800Y113062D01*
Y112537D01*
Y113062D01*
X44325Y113586D01*
X44850D01*
X45375Y113062D01*
Y112012D01*
X44850Y111487D01*
X68898Y68018D02*
X65750D01*
Y69592D01*
X66274Y70117D01*
X67324D01*
X67849Y69592D01*
Y68018D01*
Y69068D02*
X68898Y70117D01*
Y71167D02*
Y72216D01*
Y71691D01*
X65750D01*
X66274Y71167D01*
X68898Y75889D02*
Y73790D01*
X66799Y75889D01*
X66274D01*
X65750Y75365D01*
Y74315D01*
X66274Y73790D01*
X41930Y86063D02*
X38781D01*
Y87637D01*
X39306Y88161D01*
X40355D01*
X40880Y87637D01*
Y86063D01*
Y87112D02*
X41930Y88161D01*
Y89211D02*
Y90261D01*
Y89736D01*
X38781D01*
X39306Y89211D01*
X41930Y91835D02*
Y92884D01*
Y92360D01*
X38781D01*
X39306Y91835D01*
X80592Y3137D02*
X77443D01*
Y4711D01*
X77968Y5236D01*
X79018D01*
X79542Y4711D01*
Y3137D01*
Y4186D02*
X80592Y5236D01*
Y6285D02*
Y7335D01*
Y6810D01*
X77443D01*
X77968Y6285D01*
Y8909D02*
X77443Y9434D01*
Y10484D01*
X77968Y11008D01*
X80067D01*
X80592Y10484D01*
Y9434D01*
X80067Y8909D01*
X77968D01*
X59779Y22053D02*
Y25201D01*
X61353D01*
X61878Y24677D01*
Y23627D01*
X61353Y23102D01*
X59779D01*
X60828D02*
X61878Y22053D01*
X62927Y25201D02*
X65026D01*
Y24677D01*
X62927Y22578D01*
Y22053D01*
X76871Y21102D02*
X73722D01*
Y22676D01*
X74247Y23201D01*
X75296D01*
X75821Y22676D01*
Y21102D01*
Y22151D02*
X76871Y23201D01*
X73722Y26349D02*
X74247Y25300D01*
X75296Y24250D01*
X76346D01*
X76871Y24775D01*
Y25824D01*
X76346Y26349D01*
X75821D01*
X75296Y25824D01*
Y24250D01*
X34582Y21856D02*
Y25004D01*
X36156D01*
X36681Y24480D01*
Y23430D01*
X36156Y22905D01*
X34582D01*
X35631D02*
X36681Y21856D01*
X39829Y25004D02*
X37731D01*
Y23430D01*
X38780Y23955D01*
X39305D01*
X39829Y23430D01*
Y22381D01*
X39305Y21856D01*
X38255D01*
X37731Y22381D01*
X51445Y98365D02*
Y100464D01*
X50920Y100989D01*
X49870D01*
X49346Y100464D01*
Y98365D01*
X49870Y97840D01*
X50920D01*
X50395Y98890D02*
X51445Y97840D01*
X50920D02*
X51445Y98365D01*
X54593Y100989D02*
X53544Y100464D01*
X52494Y99414D01*
Y98365D01*
X53019Y97840D01*
X54068D01*
X54593Y98365D01*
Y98890D01*
X54068Y99414D01*
X52494D01*
X50953Y75235D02*
Y77334D01*
X50428Y77859D01*
X49378D01*
X48853Y77334D01*
Y75235D01*
X49378Y74710D01*
X50428D01*
X49903Y75760D02*
X50953Y74710D01*
X50428D02*
X50953Y75235D01*
X54101Y77859D02*
X52002D01*
Y76284D01*
X53052Y76809D01*
X53576D01*
X54101Y76284D01*
Y75235D01*
X53576Y74710D01*
X52527D01*
X52002Y75235D01*
X51346Y16705D02*
X49247D01*
X48722Y16180D01*
Y15130D01*
X49247Y14605D01*
X51346D01*
X51871Y15130D01*
Y16180D01*
X50821Y15655D02*
X51871Y16705D01*
Y16180D02*
X51346Y16705D01*
X51871Y19328D02*
X48722D01*
X50296Y17754D01*
Y19853D01*
X25361Y16803D02*
X23262D01*
X22738Y16278D01*
Y15229D01*
X23262Y14704D01*
X25361D01*
X25886Y15229D01*
Y16278D01*
X24837Y15754D02*
X25886Y16803D01*
Y16278D02*
X25361Y16803D01*
X23262Y17853D02*
X22738Y18377D01*
Y19427D01*
X23262Y19952D01*
X23787D01*
X24312Y19427D01*
Y18902D01*
Y19427D01*
X24837Y19952D01*
X25361D01*
X25886Y19427D01*
Y18377D01*
X25361Y17853D01*
X6464Y94428D02*
Y96527D01*
X5940Y97052D01*
X4890D01*
X4365Y96527D01*
Y94428D01*
X4890Y93903D01*
X5940D01*
X5415Y94953D02*
X6464Y93903D01*
X5940D02*
X6464Y94428D01*
X9613Y93903D02*
X7514D01*
X9613Y96002D01*
Y96527D01*
X9088Y97052D01*
X8039D01*
X7514Y96527D01*
X6694Y38818D02*
Y40917D01*
X6169Y41441D01*
X5120D01*
X4595Y40917D01*
Y38818D01*
X5120Y38293D01*
X6169D01*
X5644Y39342D02*
X6694Y38293D01*
X6169D02*
X6694Y38818D01*
X7743Y38293D02*
X8793D01*
X8268D01*
Y41441D01*
X7743Y40917D01*
X33761Y29960D02*
X36910D01*
Y32059D01*
X34286Y33108D02*
X33761Y33633D01*
Y34683D01*
X34286Y35208D01*
X34811D01*
X35336Y34683D01*
Y34158D01*
Y34683D01*
X35860Y35208D01*
X36385D01*
X36910Y34683D01*
Y33633D01*
X36385Y33108D01*
X54070Y59945D02*
Y56797D01*
X56169D01*
X59318D02*
X57219D01*
X59318Y58896D01*
Y59421D01*
X58793Y59945D01*
X57743D01*
X57219Y59421D01*
X29332Y30878D02*
X32481D01*
Y32977D01*
Y34027D02*
Y35076D01*
Y34552D01*
X29332D01*
X29857Y34027D01*
X126378Y90255D02*
X125328D01*
X125853D01*
Y87632D01*
X125328Y87107D01*
X124804D01*
X124279Y87632D01*
X127427Y87107D02*
X128477D01*
X127952D01*
Y90255D01*
X127427Y89731D01*
X49641Y114571D02*
Y111423D01*
X51215D01*
X51740Y111948D01*
Y114047D01*
X51215Y114571D01*
X49641D01*
X54889D02*
X53839Y114047D01*
X52789Y112997D01*
Y111948D01*
X53314Y111423D01*
X54364D01*
X54889Y111948D01*
Y112472D01*
X54364Y112997D01*
X52789D01*
X49149Y91245D02*
Y88096D01*
X50723D01*
X51248Y88621D01*
Y90720D01*
X50723Y91245D01*
X49149D01*
X54396D02*
X52297D01*
Y89670D01*
X53347Y90195D01*
X53872D01*
X54396Y89670D01*
Y88621D01*
X53872Y88096D01*
X52822D01*
X52297Y88621D01*
X58565Y14310D02*
X61713D01*
Y15885D01*
X61188Y16409D01*
X59089D01*
X58565Y15885D01*
Y14310D01*
X61713Y19033D02*
X58565D01*
X60139Y17459D01*
Y19558D01*
X33761Y14310D02*
X36910D01*
Y15885D01*
X36385Y16409D01*
X34286D01*
X33761Y15885D01*
Y14310D01*
X34286Y17459D02*
X33761Y17984D01*
Y19033D01*
X34286Y19558D01*
X34811D01*
X35336Y19033D01*
Y18508D01*
Y19033D01*
X35860Y19558D01*
X36385D01*
X36910Y19033D01*
Y17984D01*
X36385Y17459D01*
X34090Y82485D02*
Y79336D01*
X35664D01*
X36189Y79861D01*
Y81960D01*
X35664Y82485D01*
X34090D01*
X39337Y79336D02*
X37238D01*
X39337Y81435D01*
Y81960D01*
X38813Y82485D01*
X37763D01*
X37238Y81960D01*
X38617Y30419D02*
X38092Y29894D01*
Y28844D01*
X38617Y28320D01*
X40716D01*
X41241Y28844D01*
Y29894D01*
X40716Y30419D01*
X38617Y31468D02*
X38092Y31993D01*
Y33043D01*
X38617Y33567D01*
X39142D01*
X39666Y33043D01*
Y32518D01*
Y33043D01*
X40191Y33567D01*
X40716D01*
X41241Y33043D01*
Y31993D01*
X40716Y31468D01*
X41241Y34617D02*
Y35666D01*
Y35142D01*
X38092D01*
X38617Y34617D01*
X42948Y64933D02*
X42423Y64409D01*
Y63359D01*
X42948Y62834D01*
X45047D01*
X45571Y63359D01*
Y64409D01*
X45047Y64933D01*
X42948Y65983D02*
X42423Y66508D01*
Y67557D01*
X42948Y68082D01*
X43472D01*
X43997Y67557D01*
Y67032D01*
Y67557D01*
X44522Y68082D01*
X45047D01*
X45571Y67557D01*
Y66508D01*
X45047Y65983D01*
X42948Y69132D02*
X42423Y69656D01*
Y70706D01*
X42948Y71231D01*
X45047D01*
X45571Y70706D01*
Y69656D01*
X45047Y69132D01*
X42948D01*
Y27040D02*
X42423Y26515D01*
Y25466D01*
X42948Y24941D01*
X45047D01*
X45571Y25466D01*
Y26515D01*
X45047Y27040D01*
X45571Y30188D02*
Y28089D01*
X43472Y30188D01*
X42948D01*
X42423Y29664D01*
Y28614D01*
X42948Y28089D01*
X45047Y31238D02*
X45571Y31763D01*
Y32812D01*
X45047Y33337D01*
X42948D01*
X42423Y32812D01*
Y31763D01*
X42948Y31238D01*
X43472D01*
X43997Y31763D01*
Y33337D01*
X25723Y29107D02*
X25198Y28582D01*
Y27532D01*
X25723Y27008D01*
X27822D01*
X28347Y27532D01*
Y28582D01*
X27822Y29107D01*
X28347Y32255D02*
Y30156D01*
X26248Y32255D01*
X25723D01*
X25198Y31730D01*
Y30681D01*
X25723Y30156D01*
Y33305D02*
X25198Y33830D01*
Y34879D01*
X25723Y35404D01*
X26248D01*
X26773Y34879D01*
X27297Y35404D01*
X27822D01*
X28347Y34879D01*
Y33830D01*
X27822Y33305D01*
X27297D01*
X26773Y33830D01*
X26248Y33305D01*
X25723D01*
X26773Y33830D02*
Y34879D01*
X53020Y54499D02*
X52495Y55024D01*
X51446D01*
X50921Y54499D01*
Y52400D01*
X51446Y51876D01*
X52495D01*
X53020Y52400D01*
X56169Y51876D02*
X54070D01*
X56169Y53975D01*
Y54499D01*
X55644Y55024D01*
X54594D01*
X54070Y54499D01*
X57218Y55024D02*
X59317D01*
Y54499D01*
X57218Y52400D01*
Y51876D01*
X21392Y29008D02*
X20868Y28484D01*
Y27434D01*
X21392Y26909D01*
X23491D01*
X24016Y27434D01*
Y28484D01*
X23491Y29008D01*
X24016Y32157D02*
Y30058D01*
X21917Y32157D01*
X21392D01*
X20868Y31632D01*
Y30582D01*
X21392Y30058D01*
X20868Y35305D02*
X21392Y34256D01*
X22442Y33206D01*
X23491D01*
X24016Y33731D01*
Y34781D01*
X23491Y35305D01*
X22967D01*
X22442Y34781D01*
Y33206D01*
X73853Y58437D02*
X73328Y57913D01*
Y56863D01*
X73853Y56338D01*
X75952D01*
X76477Y56863D01*
Y57913D01*
X75952Y58437D01*
X76477Y61586D02*
Y59487D01*
X74378Y61586D01*
X73853D01*
X73328Y61061D01*
Y60012D01*
X73853Y59487D01*
X73328Y64735D02*
Y62635D01*
X74902D01*
X74378Y63685D01*
Y64210D01*
X74902Y64735D01*
X75952D01*
X76477Y64210D01*
Y63160D01*
X75952Y62635D01*
X73000Y109617D02*
X72476Y110142D01*
X71426D01*
X70901Y109617D01*
Y107518D01*
X71426Y106994D01*
X72476D01*
X73000Y107518D01*
X76149Y106994D02*
X74050D01*
X76149Y109093D01*
Y109617D01*
X75624Y110142D01*
X74575D01*
X74050Y109617D01*
X78773Y106994D02*
Y110142D01*
X77198Y108568D01*
X79298D01*
X85270Y16607D02*
X84746Y16082D01*
Y15032D01*
X85270Y14508D01*
X87369D01*
X87894Y15032D01*
Y16082D01*
X87369Y16607D01*
X87894Y19755D02*
Y17656D01*
X85795Y19755D01*
X85270D01*
X84746Y19230D01*
Y18181D01*
X85270Y17656D01*
Y20805D02*
X84746Y21330D01*
Y22379D01*
X85270Y22904D01*
X85795D01*
X86320Y22379D01*
Y21854D01*
Y22379D01*
X86845Y22904D01*
X87369D01*
X87894Y22379D01*
Y21330D01*
X87369Y20805D01*
X105940Y16115D02*
X105415Y15590D01*
Y14540D01*
X105940Y14016D01*
X108039D01*
X108563Y14540D01*
Y15590D01*
X108039Y16115D01*
X108563Y19263D02*
Y17164D01*
X106464Y19263D01*
X105940D01*
X105415Y18738D01*
Y17689D01*
X105940Y17164D01*
X108563Y22412D02*
Y20313D01*
X106464Y22412D01*
X105940D01*
X105415Y21887D01*
Y20837D01*
X105940Y20313D01*
X73427Y84913D02*
X72902Y85438D01*
X71852D01*
X71328Y84913D01*
Y82814D01*
X71852Y82289D01*
X72902D01*
X73427Y82814D01*
X76575Y82289D02*
X74476D01*
X76575Y84388D01*
Y84913D01*
X76051Y85438D01*
X75001D01*
X74476Y84913D01*
X77625Y82289D02*
X78674D01*
X78150D01*
Y85438D01*
X77625Y84913D01*
D12*
X31103Y45576D02*
X31694Y44985D01*
X31103Y45576D02*
Y48922D01*
X36615D01*
Y44985D02*
Y48922D01*
X31694Y44985D02*
X36615D01*
X40099Y51186D02*
X43249D01*
X40099Y45084D02*
X43249D01*
X56891Y37899D02*
X63288D01*
X56891Y50497D02*
X63288D01*
Y49907D02*
Y50497D01*
Y42328D02*
Y46068D01*
Y37899D02*
Y38588D01*
X56891Y37899D02*
Y38588D01*
Y49907D02*
Y50497D01*
X76477Y33470D02*
Y50399D01*
Y33470D02*
X97245D01*
Y50399D01*
X76477D02*
X97245D01*
X103151Y7879D02*
Y14277D01*
X90552Y7879D02*
Y14277D01*
X91143D01*
X94981D02*
X98721D01*
X102462D02*
X103151D01*
X102462Y7879D02*
X103151D01*
X90552D02*
X91143D01*
X63190Y32387D02*
Y33371D01*
X65552Y32387D02*
Y33371D01*
X60237Y32288D02*
Y33273D01*
X57875Y32288D02*
Y33273D01*
X49509Y55812D02*
Y56796D01*
X47147Y55812D02*
Y56796D01*
X24918Y53671D02*
X25903D01*
X24918Y56033D02*
X25903D01*
X24903Y49218D02*
X25887D01*
X24903Y51580D02*
X25887D01*
X24918Y58125D02*
X25903D01*
X24918Y60487D02*
X25903D01*
X24903Y67032D02*
X25887D01*
X24903Y69395D02*
X25887D01*
X24918Y62579D02*
X25903D01*
X24918Y64941D02*
X25903D01*
X30611Y87308D02*
Y88292D01*
X32973Y87308D02*
Y88292D01*
X47147Y39277D02*
Y40261D01*
X49509Y39277D02*
Y40261D01*
X72442Y93214D02*
Y94198D01*
X70080Y93214D02*
Y94198D01*
X42717Y101285D02*
Y102269D01*
X45080Y101285D02*
Y102269D01*
X72442Y70379D02*
Y71363D01*
X70080Y70379D02*
Y71363D01*
X42816Y88784D02*
Y89769D01*
X45178Y88784D02*
Y89769D01*
X74214Y6698D02*
Y7682D01*
X76576Y6698D02*
Y7682D01*
X55513Y23922D02*
X56497D01*
X55513Y21560D02*
X56497D01*
X76576Y16639D02*
Y17623D01*
X74214Y16639D02*
Y17623D01*
X30513Y23627D02*
X31497D01*
X30513Y21265D02*
X31497D01*
X106792Y90195D02*
X107777D01*
X106792Y92557D02*
X107777D01*
X106792Y101678D02*
X107777D01*
X106792Y104040D02*
X107777D01*
X106792Y84454D02*
X107777D01*
X106792Y86816D02*
X107777D01*
X106792Y95937D02*
X107777D01*
X106792Y98299D02*
X107777D01*
X30316Y50103D02*
X37206D01*
X30316Y66737D02*
X37206D01*
X30316Y50103D02*
Y66737D01*
X37206Y50103D02*
Y66737D01*
X55316Y90162D02*
Y93410D01*
Y97544D02*
Y100792D01*
X59942D01*
X55316Y90162D02*
X59942D01*
X55217Y66836D02*
Y70084D01*
Y74217D02*
Y77466D01*
X59843D01*
X55217Y66836D02*
X59843D01*
X48820Y13588D02*
X52068D01*
X56202D02*
X59450D01*
Y8962D02*
Y13588D01*
X48820Y8962D02*
Y13588D01*
X23820Y13489D02*
X27068D01*
X31202D02*
X34450D01*
Y8863D02*
Y13489D01*
X23820Y8863D02*
Y13489D01*
X36910Y38981D02*
Y39966D01*
X34548Y38981D02*
Y39966D01*
X62501Y56206D02*
X63485D01*
X62501Y58568D02*
X63485D01*
X33269Y38981D02*
Y39966D01*
X30907Y38981D02*
Y39966D01*
X29036Y114277D02*
X37501D01*
X26084D02*
X29036D01*
X34548Y100497D02*
X37501D01*
X26084D02*
X29036D01*
X117815Y45768D02*
Y74114D01*
X122146Y42618D02*
X137598D01*
Y77461D01*
X122146D02*
X137598D01*
X131890Y38878D02*
X134055D01*
Y42618D01*
X119882Y38878D02*
X122047D01*
X119882D02*
Y40945D01*
Y79134D02*
Y81201D01*
X122047D01*
X134055Y77461D02*
Y81201D01*
X131890D02*
X134055D01*
X53151Y103351D02*
Y104237D01*
Y109749D02*
Y110635D01*
X64568Y109749D02*
Y110635D01*
Y103351D02*
Y104237D01*
X53151Y110635D02*
X64568D01*
X53151Y103351D02*
X64568D01*
X53052Y80123D02*
Y81009D01*
Y86521D02*
Y87406D01*
X64469Y86521D02*
Y87406D01*
Y80123D02*
Y81009D01*
X53052Y87406D02*
X64469D01*
X53052Y80123D02*
X64469D01*
X62698Y16048D02*
X63584D01*
X69095D02*
X69981D01*
X69095Y4631D02*
X69981D01*
X62698D02*
X63584D01*
X69981D02*
Y16048D01*
X62698Y4631D02*
Y16048D01*
X37845Y15901D02*
X38731D01*
X44243D02*
X45129D01*
X44243Y4483D02*
X45129D01*
X37845D02*
X38731D01*
X45129D02*
Y15901D01*
X37845Y4483D02*
Y15901D01*
X41930Y77662D02*
Y78548D01*
Y71265D02*
Y72151D01*
X30513Y71265D02*
Y72151D01*
Y77662D02*
Y78548D01*
Y71265D02*
X41930D01*
X30513Y78548D02*
X41930D01*
X1162Y65891D02*
X11005D01*
Y52308D02*
Y65891D01*
X1162Y52308D02*
X11005D01*
X38190Y38981D02*
Y39966D01*
X40552Y38981D02*
Y39966D01*
X42186Y56225D02*
Y58981D01*
X45729Y56225D02*
Y58981D01*
X42127Y37013D02*
Y39769D01*
X45670Y37013D02*
Y39769D01*
X27265Y38981D02*
Y39966D01*
X29627Y38981D02*
Y39966D01*
X62501Y54828D02*
X63485D01*
X62501Y52466D02*
X63485D01*
X23721Y38981D02*
Y39966D01*
X26084Y38981D02*
Y39966D01*
X78052Y62013D02*
Y62997D01*
X80414Y62013D02*
Y62997D01*
X74706Y103647D02*
X75690D01*
X74706Y106009D02*
X75690D01*
X85434Y9651D02*
Y10635D01*
X87796Y9651D02*
Y10635D01*
X108170Y9749D02*
Y10733D01*
X105808Y9749D02*
Y10733D01*
X74607Y79040D02*
X75591D01*
X74607Y81403D02*
X75591D01*
X8958Y72560D02*
Y73544D01*
X11320Y72560D02*
Y73544D01*
X11320Y72560D02*
Y73544D01*
X13682Y72560D02*
Y73544D01*
X6595Y72560D02*
Y73544D01*
X8958Y72560D02*
Y73544D01*
X1871Y72544D02*
Y73529D01*
X4233Y72544D02*
Y73529D01*
X4233Y72560D02*
Y73544D01*
X6595Y72560D02*
Y73544D01*
X17521Y62210D02*
X18505D01*
X17521Y59847D02*
X18505D01*
X17521Y64572D02*
X18505D01*
X17521Y62210D02*
X18505D01*
X17521Y71658D02*
X18505D01*
X17521Y69296D02*
X18505D01*
X17521Y66934D02*
X18505D01*
X17521Y64572D02*
X18505D01*
X17521Y69296D02*
X18505D01*
X17521Y66934D02*
X18505D01*
X17521Y53745D02*
X18505D01*
X17521Y51383D02*
X18505D01*
X17521Y49021D02*
X18505D01*
X17521Y46659D02*
X18505D01*
X17521Y51384D02*
X18505D01*
X17521Y49022D02*
X18505D01*
X17521Y56107D02*
X18505D01*
X17521Y53745D02*
X18505D01*
X17521Y58469D02*
X18505D01*
X17521Y56107D02*
X18505D01*
X6594Y44690D02*
Y45674D01*
X4232Y44690D02*
Y45674D01*
Y44690D02*
Y45674D01*
X1870Y44690D02*
Y45674D01*
X8958Y44690D02*
Y45674D01*
X6595Y44690D02*
Y45674D01*
X11320Y44690D02*
Y45674D01*
X8958Y44690D02*
Y45674D01*
X13682Y44690D02*
Y45674D01*
X11320Y44690D02*
Y45674D01*
D13*
X85631Y98686D02*
X91930D01*
X85631Y110969D02*
X91930D01*
X85828Y73981D02*
X92127D01*
X85828Y86265D02*
X92127D01*
X8564Y80773D02*
X14863D01*
X8564Y93056D02*
X14863D01*
X8662Y37347D02*
X14962D01*
X8662Y25064D02*
X14962D01*
M02*
