G04*
G04 #@! TF.GenerationSoftware,Altium Limited,Altium Designer,21.6.4 (81)*
G04*
G04 Layer_Color=32896*
%FSLAX25Y25*%
%MOIN*%
G70*
G04*
G04 #@! TF.SameCoordinates,C1900F0A-900D-499D-9597-BB550FD85569*
G04*
G04*
G04 #@! TF.FilePolarity,Positive*
G04*
G01*
G75*
%ADD11C,0.00787*%
D11*
X11354Y71690D02*
X12009Y72346D01*
X13321D01*
X13977Y71690D01*
Y69066D01*
X13321Y68410D01*
X12009D01*
X11354Y69066D01*
X10042Y72346D02*
Y68410D01*
Y70378D01*
X9386Y71034D01*
X8074D01*
X7418Y70378D01*
Y68410D01*
X4138D02*
Y72346D01*
X6106Y70378D01*
X3482D01*
X27692Y71789D02*
X28348Y72445D01*
X29660D01*
X30316Y71789D01*
Y69165D01*
X29660Y68509D01*
X28348D01*
X27692Y69165D01*
X26380Y72445D02*
Y68509D01*
Y70477D01*
X25724Y71133D01*
X24412D01*
X23756Y70477D01*
Y68509D01*
X22445Y71789D02*
X21789Y72445D01*
X20477D01*
X19821Y71789D01*
Y71133D01*
X20477Y70477D01*
X21133D01*
X20477D01*
X19821Y69821D01*
Y69165D01*
X20477Y68509D01*
X21789D01*
X22445Y69165D01*
X11157Y38324D02*
X11813Y38980D01*
X13125D01*
X13780Y38324D01*
Y35700D01*
X13125Y35044D01*
X11813D01*
X11157Y35700D01*
X9845Y38980D02*
Y35044D01*
Y37012D01*
X9189Y37668D01*
X7877D01*
X7221Y37012D01*
Y35044D01*
X5909D02*
X4597D01*
X5253D01*
Y38980D01*
X5909Y38324D01*
X27987Y38226D02*
X28643Y38882D01*
X29955D01*
X30611Y38226D01*
Y35602D01*
X29955Y34946D01*
X28643D01*
X27987Y35602D01*
X26676Y38882D02*
Y34946D01*
Y36914D01*
X26019Y37570D01*
X24708D01*
X24052Y36914D01*
Y34946D01*
X20116D02*
X22740D01*
X20116Y37570D01*
Y38226D01*
X20772Y38882D01*
X22084D01*
X22740Y38226D01*
X104430Y39341D02*
Y35405D01*
X101806D01*
X99838Y38029D02*
X98527D01*
X97870Y37373D01*
Y35405D01*
X99838D01*
X100494Y36061D01*
X99838Y36717D01*
X97870D01*
X96559Y35405D02*
X94591D01*
X93935Y36061D01*
X94591Y36717D01*
X95903D01*
X96559Y37373D01*
X95903Y38029D01*
X93935D01*
X90655Y35405D02*
X91967D01*
X92623Y36061D01*
Y37373D01*
X91967Y38029D01*
X90655D01*
X89999Y37373D01*
Y36717D01*
X92623D01*
X88687Y38029D02*
Y35405D01*
Y36717D01*
X88031Y37373D01*
X87375Y38029D01*
X86719D01*
X82128Y38685D02*
X82784Y39341D01*
X84095D01*
X84751Y38685D01*
Y36061D01*
X84095Y35405D01*
X82784D01*
X82128Y36061D01*
X80816Y39341D02*
Y35405D01*
Y37373D01*
X80160Y38029D01*
X78848D01*
X78192Y37373D01*
Y35405D01*
X76880Y34749D02*
X74256D01*
X72944Y35405D02*
X71632D01*
X72288D01*
Y39341D01*
X72944Y38685D01*
X102594Y60994D02*
X103250Y61650D01*
X104562D01*
X105218Y60994D01*
Y60338D01*
X104562Y59682D01*
X103250D01*
X102594Y59026D01*
Y58371D01*
X103250Y57714D01*
X104562D01*
X105218Y58371D01*
X100626Y60994D02*
Y60338D01*
X101282D01*
X99970D01*
X100626D01*
Y58371D01*
X99970Y57714D01*
X97346Y60338D02*
X96034D01*
X95378Y59682D01*
Y57714D01*
X97346D01*
X98002Y58371D01*
X97346Y59026D01*
X95378D01*
X94066Y60338D02*
Y57714D01*
Y59026D01*
X93410Y59682D01*
X92754Y60338D01*
X92098D01*
X89474Y60994D02*
Y60338D01*
X90131D01*
X88819D01*
X89474D01*
Y58371D01*
X88819Y57714D01*
X86851Y57059D02*
X84227D01*
X80291Y60994D02*
X80947Y61650D01*
X82259D01*
X82915Y60994D01*
Y60338D01*
X82259Y59682D01*
X80947D01*
X80291Y59026D01*
Y58371D01*
X80947Y57714D01*
X82259D01*
X82915Y58371D01*
X78979Y57714D02*
X77667D01*
X78323D01*
Y60338D01*
X78979D01*
X74388Y56403D02*
X73732D01*
X73076Y57059D01*
Y60338D01*
X75043D01*
X75700Y59682D01*
Y58371D01*
X75043Y57714D01*
X73076D01*
X104528Y51053D02*
Y47118D01*
X101905D01*
X99937Y49741D02*
X98625D01*
X97969Y49086D01*
Y47118D01*
X99937D01*
X100593Y47774D01*
X99937Y48430D01*
X97969D01*
X96657Y47118D02*
X94689D01*
X94033Y47774D01*
X94689Y48430D01*
X96001D01*
X96657Y49086D01*
X96001Y49741D01*
X94033D01*
X90753Y47118D02*
X92065D01*
X92721Y47774D01*
Y49086D01*
X92065Y49741D01*
X90753D01*
X90097Y49086D01*
Y48430D01*
X92721D01*
X88786Y49741D02*
Y47118D01*
Y48430D01*
X88130Y49086D01*
X87474Y49741D01*
X86818D01*
X82226Y50397D02*
X82882Y51053D01*
X84194D01*
X84850Y50397D01*
Y47774D01*
X84194Y47118D01*
X82882D01*
X82226Y47774D01*
X80914Y51053D02*
Y47118D01*
Y49086D01*
X80258Y49741D01*
X78946D01*
X78290Y49086D01*
Y47118D01*
X76978Y46462D02*
X74354D01*
X73043Y50397D02*
X72387Y51053D01*
X71075D01*
X70419Y50397D01*
Y47774D01*
X71075Y47118D01*
X72387D01*
X73043Y47774D01*
Y50397D01*
X101314Y72346D02*
X103938D01*
Y70378D01*
X102626Y71034D01*
X101970D01*
X101314Y70378D01*
Y69066D01*
X101970Y68410D01*
X103282D01*
X103938Y69066D01*
X100002Y72346D02*
Y69722D01*
X98690Y68410D01*
X97378Y69722D01*
Y72346D01*
X104725Y83271D02*
Y80648D01*
X103413Y79336D01*
X102102Y80648D01*
Y83271D01*
X98166Y82615D02*
X98822Y83271D01*
X100134D01*
X100790Y82615D01*
Y79992D01*
X100134Y79336D01*
X98822D01*
X98166Y79992D01*
X94230Y82615D02*
X94886Y83271D01*
X96198D01*
X96854Y82615D01*
Y79992D01*
X96198Y79336D01*
X94886D01*
X94230Y79992D01*
X13451Y81697D02*
X11352D01*
X12402D01*
Y78549D01*
X10302D02*
Y81697D01*
X8728D01*
X8203Y81173D01*
Y80123D01*
X8728Y79598D01*
X10302D01*
X7154Y79074D02*
X6629Y78549D01*
X5580D01*
X5055Y79074D01*
Y81173D01*
X5580Y81697D01*
X6629D01*
X7154Y81173D01*
Y80648D01*
X6629Y80123D01*
X5055D01*
X13353Y48331D02*
X11254D01*
X12303D01*
Y45183D01*
X10204D02*
Y48331D01*
X8630D01*
X8105Y47807D01*
Y46757D01*
X8630Y46232D01*
X10204D01*
X7056Y47807D02*
X6531Y48331D01*
X5481D01*
X4956Y47807D01*
Y47282D01*
X5481Y46757D01*
X4956Y46232D01*
Y45707D01*
X5481Y45183D01*
X6531D01*
X7056Y45707D01*
Y46232D01*
X6531Y46757D01*
X7056Y47282D01*
Y47807D01*
X6531Y46757D02*
X5481D01*
X28215Y81894D02*
X26116D01*
X27165D01*
Y78746D01*
X25066D02*
Y81894D01*
X23492D01*
X22967Y81369D01*
Y80320D01*
X23492Y79795D01*
X25066D01*
X21918Y81894D02*
X19819D01*
Y81369D01*
X21918Y79270D01*
Y78746D01*
X28313Y48528D02*
X26214D01*
X27264D01*
Y45379D01*
X25165D02*
Y48528D01*
X23590D01*
X23066Y48003D01*
Y46954D01*
X23590Y46429D01*
X25165D01*
X19917Y48528D02*
X20967Y48003D01*
X22016Y46954D01*
Y45904D01*
X21491Y45379D01*
X20442D01*
X19917Y45904D01*
Y46429D01*
X20442Y46954D01*
X22016D01*
X115420Y44001D02*
X113321D01*
X114370D01*
Y40852D01*
X112271D02*
Y44001D01*
X110697D01*
X110172Y43476D01*
Y42426D01*
X110697Y41901D01*
X112271D01*
X107023Y44001D02*
X109122D01*
Y42426D01*
X108073Y42951D01*
X107548D01*
X107023Y42426D01*
Y41377D01*
X107548Y40852D01*
X108598D01*
X109122Y41377D01*
X115223Y55024D02*
X113124D01*
X114173D01*
Y51876D01*
X112074D02*
Y55024D01*
X110500D01*
X109975Y54499D01*
Y53450D01*
X110500Y52925D01*
X112074D01*
X107351Y51876D02*
Y55024D01*
X108925Y53450D01*
X106826D01*
X115420Y66146D02*
X113321D01*
X114370D01*
Y62998D01*
X112271D02*
Y66146D01*
X110697D01*
X110172Y65621D01*
Y64572D01*
X110697Y64047D01*
X112271D01*
X109122Y65621D02*
X108598Y66146D01*
X107548D01*
X107023Y65621D01*
Y65097D01*
X107548Y64572D01*
X108073D01*
X107548D01*
X107023Y64047D01*
Y63522D01*
X107548Y62998D01*
X108598D01*
X109122Y63522D01*
X115912Y77170D02*
X113813D01*
X114862D01*
Y74021D01*
X112763D02*
Y77170D01*
X111189D01*
X110664Y76645D01*
Y75595D01*
X111189Y75071D01*
X112763D01*
X107516Y74021D02*
X109615D01*
X107516Y76120D01*
Y76645D01*
X108040Y77170D01*
X109090D01*
X109615Y76645D01*
X114600Y88292D02*
X112501D01*
X113550D01*
Y85143D01*
X111451D02*
Y88292D01*
X109877D01*
X109352Y87767D01*
Y86718D01*
X109877Y86193D01*
X111451D01*
X108302Y85143D02*
X107253D01*
X107778D01*
Y88292D01*
X108302Y87767D01*
M02*
