G04*
G04 #@! TF.GenerationSoftware,Altium Limited,Altium Designer,21.6.4 (81)*
G04*
G04 Layer_Physical_Order=1*
G04 Layer_Color=255*
%FSLAX25Y25*%
%MOIN*%
G70*
G04*
G04 #@! TF.SameCoordinates,C1900F0A-900D-499D-9597-BB550FD85569*
G04*
G04*
G04 #@! TF.FilePolarity,Positive*
G04*
G01*
G75*
%ADD14C,0.00906*%
G04:AMPARAMS|DCode=15|XSize=11.81mil|YSize=20.47mil|CornerRadius=0.59mil|HoleSize=0mil|Usage=FLASHONLY|Rotation=90.000|XOffset=0mil|YOffset=0mil|HoleType=Round|Shape=RoundedRectangle|*
%AMROUNDEDRECTD15*
21,1,0.01181,0.01929,0,0,90.0*
21,1,0.01063,0.02047,0,0,90.0*
1,1,0.00118,0.00965,0.00532*
1,1,0.00118,0.00965,-0.00532*
1,1,0.00118,-0.00965,-0.00532*
1,1,0.00118,-0.00965,0.00532*
%
%ADD15ROUNDEDRECTD15*%
G04:AMPARAMS|DCode=16|XSize=11.81mil|YSize=19.29mil|CornerRadius=0.59mil|HoleSize=0mil|Usage=FLASHONLY|Rotation=90.000|XOffset=0mil|YOffset=0mil|HoleType=Round|Shape=RoundedRectangle|*
%AMROUNDEDRECTD16*
21,1,0.01181,0.01811,0,0,90.0*
21,1,0.01063,0.01929,0,0,90.0*
1,1,0.00118,0.00906,0.00532*
1,1,0.00118,0.00906,-0.00532*
1,1,0.00118,-0.00906,-0.00532*
1,1,0.00118,-0.00906,0.00532*
%
%ADD16ROUNDEDRECTD16*%
%ADD17R,0.03937X0.02756*%
%ADD18O,0.01772X0.04134*%
%ADD19R,0.02756X0.03937*%
G04:AMPARAMS|DCode=20|XSize=47.64mil|YSize=22.84mil|CornerRadius=2.85mil|HoleSize=0mil|Usage=FLASHONLY|Rotation=180.000|XOffset=0mil|YOffset=0mil|HoleType=Round|Shape=RoundedRectangle|*
%AMROUNDEDRECTD20*
21,1,0.04764,0.01713,0,0,180.0*
21,1,0.04193,0.02284,0,0,180.0*
1,1,0.00571,-0.02097,0.00856*
1,1,0.00571,0.02097,0.00856*
1,1,0.00571,0.02097,-0.00856*
1,1,0.00571,-0.02097,-0.00856*
%
%ADD20ROUNDEDRECTD20*%
%ADD21R,0.02362X0.01968*%
%ADD22R,0.01968X0.02362*%
%ADD23O,0.02205X0.00709*%
%ADD24O,0.05354X0.00709*%
%ADD25R,0.03543X0.02756*%
%ADD26R,0.02756X0.03543*%
G04:AMPARAMS|DCode=27|XSize=39.37mil|YSize=41.34mil|CornerRadius=3.94mil|HoleSize=0mil|Usage=FLASHONLY|Rotation=0.000|XOffset=0mil|YOffset=0mil|HoleType=Round|Shape=RoundedRectangle|*
%AMROUNDEDRECTD27*
21,1,0.03937,0.03347,0,0,0.0*
21,1,0.03150,0.04134,0,0,0.0*
1,1,0.00787,0.01575,-0.01673*
1,1,0.00787,-0.01575,-0.01673*
1,1,0.00787,-0.01575,0.01673*
1,1,0.00787,0.01575,0.01673*
%
%ADD27ROUNDEDRECTD27*%
G04:AMPARAMS|DCode=28|XSize=40.35mil|YSize=118.11mil|CornerRadius=4.04mil|HoleSize=0mil|Usage=FLASHONLY|Rotation=180.000|XOffset=0mil|YOffset=0mil|HoleType=Round|Shape=RoundedRectangle|*
%AMROUNDEDRECTD28*
21,1,0.04035,0.11004,0,0,180.0*
21,1,0.03228,0.11811,0,0,180.0*
1,1,0.00807,-0.01614,0.05502*
1,1,0.00807,0.01614,0.05502*
1,1,0.00807,0.01614,-0.05502*
1,1,0.00807,-0.01614,-0.05502*
%
%ADD28ROUNDEDRECTD28*%
G04:AMPARAMS|DCode=29|XSize=62.99mil|YSize=86.61mil|CornerRadius=6.3mil|HoleSize=0mil|Usage=FLASHONLY|Rotation=90.000|XOffset=0mil|YOffset=0mil|HoleType=Round|Shape=RoundedRectangle|*
%AMROUNDEDRECTD29*
21,1,0.06299,0.07402,0,0,90.0*
21,1,0.05039,0.08661,0,0,90.0*
1,1,0.01260,0.03701,0.02520*
1,1,0.01260,0.03701,-0.02520*
1,1,0.01260,-0.03701,-0.02520*
1,1,0.01260,-0.03701,0.02520*
%
%ADD29ROUNDEDRECTD29*%
G04:AMPARAMS|DCode=30|XSize=27.56mil|YSize=59.06mil|CornerRadius=2.76mil|HoleSize=0mil|Usage=FLASHONLY|Rotation=90.000|XOffset=0mil|YOffset=0mil|HoleType=Round|Shape=RoundedRectangle|*
%AMROUNDEDRECTD30*
21,1,0.02756,0.05354,0,0,90.0*
21,1,0.02205,0.05906,0,0,90.0*
1,1,0.00551,0.02677,0.01102*
1,1,0.00551,0.02677,-0.01102*
1,1,0.00551,-0.02677,-0.01102*
1,1,0.00551,-0.02677,0.01102*
%
%ADD30ROUNDEDRECTD30*%
%ADD31R,0.03740X0.04134*%
%ADD32R,0.04134X0.03740*%
G04:AMPARAMS|DCode=33|XSize=15.16mil|YSize=37.4mil|CornerRadius=0.38mil|HoleSize=0mil|Usage=FLASHONLY|Rotation=90.000|XOffset=0mil|YOffset=0mil|HoleType=Round|Shape=RoundedRectangle|*
%AMROUNDEDRECTD33*
21,1,0.01516,0.03664,0,0,90.0*
21,1,0.01440,0.03740,0,0,90.0*
1,1,0.00076,0.01832,0.00720*
1,1,0.00076,0.01832,-0.00720*
1,1,0.00076,-0.01832,-0.00720*
1,1,0.00076,-0.01832,0.00720*
%
%ADD33ROUNDEDRECTD33*%
G04:AMPARAMS|DCode=34|XSize=22.05mil|YSize=29.13mil|CornerRadius=0.55mil|HoleSize=0mil|Usage=FLASHONLY|Rotation=90.000|XOffset=0mil|YOffset=0mil|HoleType=Round|Shape=RoundedRectangle|*
%AMROUNDEDRECTD34*
21,1,0.02205,0.02803,0,0,90.0*
21,1,0.02095,0.02913,0,0,90.0*
1,1,0.00110,0.01402,0.01047*
1,1,0.00110,0.01402,-0.01047*
1,1,0.00110,-0.01402,-0.01047*
1,1,0.00110,-0.01402,0.01047*
%
%ADD34ROUNDEDRECTD34*%
G04:AMPARAMS|DCode=35|XSize=61.02mil|YSize=14.76mil|CornerRadius=0.37mil|HoleSize=0mil|Usage=FLASHONLY|Rotation=90.000|XOffset=0mil|YOffset=0mil|HoleType=Round|Shape=RoundedRectangle|*
%AMROUNDEDRECTD35*
21,1,0.06102,0.01403,0,0,90.0*
21,1,0.06029,0.01476,0,0,90.0*
1,1,0.00074,0.00701,0.03014*
1,1,0.00074,0.00701,-0.03014*
1,1,0.00074,-0.00701,-0.03014*
1,1,0.00074,-0.00701,0.03014*
%
%ADD35ROUNDEDRECTD35*%
%ADD36R,0.03543X0.02362*%
%ADD63C,0.01968*%
%ADD64C,0.01000*%
%ADD65C,0.00709*%
%ADD66C,0.00906*%
%ADD67R,0.03937X0.15354*%
%ADD68R,0.12598X0.02756*%
%ADD69R,0.03740X0.19587*%
%ADD70R,0.04232X0.20177*%
%ADD71R,0.06004X0.26476*%
%ADD72C,0.03543*%
%ADD73C,0.13780*%
%ADD74C,0.01575*%
%ADD75C,0.03150*%
%ADD76C,0.00787*%
%ADD77C,0.00709*%
G36*
X128098Y116927D02*
X129466Y116560D01*
X130775Y116018D01*
X132002Y115310D01*
X133126Y114447D01*
X134128Y113445D01*
X134990Y112321D01*
X135698Y111094D01*
X136241Y109785D01*
X136607Y108417D01*
X136792Y107013D01*
Y106304D01*
Y11811D01*
Y11103D01*
X136607Y9698D01*
X136241Y8330D01*
X135698Y7021D01*
X134990Y5794D01*
X134128Y4670D01*
X133126Y3668D01*
X132002Y2806D01*
X130775Y2097D01*
X129466Y1555D01*
X128098Y1188D01*
X126693Y1003D01*
X69247D01*
X69194Y1481D01*
X69194Y1503D01*
Y3639D01*
X66339D01*
X63485D01*
Y1503D01*
X63485Y1481D01*
X63432Y1003D01*
X44705D01*
X44341Y1334D01*
X44341Y1503D01*
Y3491D01*
X41487D01*
X38633D01*
Y1503D01*
X38633Y1334D01*
X38270Y1003D01*
X11103D01*
X9698Y1188D01*
X8330Y1555D01*
X7021Y2097D01*
X5794Y2806D01*
X4670Y3668D01*
X3668Y4670D01*
X2806Y5794D01*
X2097Y7021D01*
X1555Y8330D01*
X1188Y9698D01*
X1003Y11103D01*
Y11811D01*
Y31744D01*
X1503Y31793D01*
X1533Y31646D01*
X1774Y31286D01*
X2640Y30419D01*
X2640Y30419D01*
X3001Y30178D01*
X3426Y30094D01*
X3932D01*
X3949Y30008D01*
X4143Y29718D01*
X4299Y29613D01*
X4325Y29525D01*
Y29146D01*
X4299Y29058D01*
X4143Y28953D01*
X3949Y28664D01*
X3881Y28322D01*
Y26609D01*
X3949Y26267D01*
X4143Y25978D01*
X4433Y25784D01*
X4775Y25716D01*
X7498D01*
Y24959D01*
X7498Y24959D01*
X7583Y24533D01*
X7824Y24173D01*
X11616Y20380D01*
X11616Y20380D01*
X11977Y20139D01*
X12403Y20054D01*
X19324D01*
X24805Y14573D01*
X24805Y14573D01*
X25166Y14332D01*
X25591Y14247D01*
X25592Y14247D01*
X27166D01*
Y12210D01*
X28627D01*
X28834Y11710D01*
X25791Y8666D01*
X25121D01*
X25092Y8714D01*
X24968Y9166D01*
X25480Y9679D01*
X25810Y10475D01*
Y11336D01*
X25480Y12132D01*
X24871Y12741D01*
X24075Y13071D01*
X23213D01*
X22418Y12741D01*
X21809Y12132D01*
X21479Y11336D01*
Y10475D01*
X21809Y9679D01*
X22418Y9070D01*
X22994Y8831D01*
X23213Y8740D01*
X23426Y8299D01*
Y3942D01*
X27363D01*
Y7094D01*
X30284Y10015D01*
X51334D01*
X51541Y9515D01*
X50791Y8765D01*
X48426D01*
Y4040D01*
X52363D01*
Y7192D01*
X53225Y8055D01*
X55710D01*
Y6903D01*
X60040D01*
Y8055D01*
X73623D01*
Y7584D01*
X77166D01*
Y10733D01*
X74471D01*
X74279Y11195D01*
X75500Y12415D01*
X75500Y12415D01*
X75741Y12776D01*
X75826Y13202D01*
Y13588D01*
X77166D01*
Y16737D01*
X73623D01*
Y14786D01*
X73602Y14678D01*
X73602Y14678D01*
Y13662D01*
X72178Y12239D01*
X56575D01*
X56103Y12308D01*
X56103Y12739D01*
Y13997D01*
X63682D01*
Y13981D01*
X68997D01*
Y18903D01*
X63682D01*
Y16221D01*
X56103D01*
Y17032D01*
X55148D01*
Y20969D01*
X55611D01*
Y24513D01*
X52462D01*
Y20969D01*
X52925D01*
Y17032D01*
X52166D01*
Y16995D01*
X51704Y16803D01*
X42428Y26080D01*
X42551Y26494D01*
X42614Y26580D01*
X68505D01*
X71064Y29139D01*
Y43086D01*
X82141D01*
X82348Y42586D01*
X81845Y42083D01*
X81731Y42131D01*
X80870D01*
X80074Y41801D01*
X79465Y41192D01*
X79135Y40396D01*
Y39535D01*
X79245Y39268D01*
X78447Y38470D01*
X78206Y38110D01*
X78121Y37684D01*
X78121Y37684D01*
Y32494D01*
X77842Y32077D01*
X77728Y31501D01*
Y29139D01*
X77842Y28563D01*
X78169Y28074D01*
X78657Y27748D01*
X79233Y27634D01*
X79809Y27748D01*
X80179Y27995D01*
X80513Y28043D01*
X80846Y27995D01*
X81216Y27748D01*
X81792Y27634D01*
X82368Y27748D01*
X82738Y27995D01*
X82740Y27996D01*
X83142Y27851D01*
X83239Y27775D01*
Y25312D01*
X78623Y20696D01*
X75879D01*
X75771Y20674D01*
X73623D01*
Y17525D01*
X77166D01*
Y18472D01*
X79084D01*
X79084Y18472D01*
X79106Y18454D01*
Y7651D01*
X77788Y6333D01*
X77166D01*
Y6796D01*
X73623D01*
Y3647D01*
X77166D01*
Y4110D01*
X78249D01*
X78249Y4110D01*
X78675Y4194D01*
X79035Y4435D01*
X81004Y6404D01*
X81245Y6764D01*
X81329Y7190D01*
X81329Y7190D01*
Y18147D01*
X83890Y20707D01*
X84216Y20571D01*
X84351Y20462D01*
Y19653D01*
X84681Y18857D01*
X85290Y18248D01*
X85454Y18180D01*
Y13686D01*
X84843D01*
Y10536D01*
X88387D01*
Y10999D01*
X88879D01*
X88879Y10999D01*
X89304Y11084D01*
X89665Y11325D01*
X90810Y12469D01*
X91143Y12800D01*
Y12800D01*
X91143Y12800D01*
X95080D01*
Y17918D01*
X91143D01*
Y15613D01*
X90885Y15229D01*
X90460Y15145D01*
X90099Y14904D01*
X88885Y13690D01*
X88387Y13686D01*
Y13686D01*
X87678D01*
Y18221D01*
X87743Y18248D01*
X88352Y18857D01*
X88682Y19653D01*
Y20514D01*
X88352Y21310D01*
X87743Y21919D01*
X86947Y22249D01*
X86139D01*
X86029Y22384D01*
X85893Y22710D01*
X86387Y23204D01*
X89371D01*
X89371Y23204D01*
X89797Y23289D01*
X90157Y23530D01*
X92815Y26187D01*
X93056Y26548D01*
X93141Y26974D01*
X93140Y26974D01*
Y27492D01*
X93640Y27759D01*
X93935Y27563D01*
X94088Y27532D01*
Y30320D01*
Y33108D01*
X93935Y33077D01*
X93532Y32808D01*
X93093Y32565D01*
X92605Y32892D01*
X92028Y33006D01*
X91452Y32892D01*
X91082Y32645D01*
X91081Y32644D01*
X90679Y32789D01*
X90581Y32865D01*
Y38952D01*
X93997D01*
X93997Y38952D01*
X94423Y39037D01*
X94783Y39278D01*
X103748Y48242D01*
X103989Y48603D01*
X104074Y49029D01*
Y50681D01*
X104188Y50728D01*
X104797Y51337D01*
X104864Y51499D01*
X110723D01*
X110779Y51217D01*
X110970Y50931D01*
X111257Y50739D01*
X111594Y50672D01*
X116949D01*
X117287Y50739D01*
X117573Y50931D01*
X117765Y51217D01*
X117832Y51555D01*
Y53760D01*
X117765Y54098D01*
X117573Y54384D01*
X117287Y54576D01*
X116949Y54643D01*
X111594D01*
X111257Y54576D01*
X110970Y54384D01*
X110779Y54098D01*
X110711Y53760D01*
Y53723D01*
X104825D01*
X104797Y53791D01*
X104188Y54400D01*
X103392Y54729D01*
X102531D01*
X102437Y54690D01*
X101818Y54975D01*
X101801Y55026D01*
X102137Y55357D01*
X102228Y55320D01*
X103089D01*
X103885Y55650D01*
X104494Y56259D01*
X104561Y56420D01*
X110723D01*
X110779Y56138D01*
X110970Y55852D01*
X111257Y55660D01*
X111594Y55593D01*
X116949D01*
X117287Y55660D01*
X117573Y55852D01*
X117765Y56138D01*
X117832Y56476D01*
Y58681D01*
X117765Y59019D01*
X117573Y59306D01*
X117287Y59497D01*
X116949Y59564D01*
X111594D01*
X111257Y59497D01*
X110970Y59306D01*
X110779Y59019D01*
X110711Y58681D01*
Y58644D01*
X104522D01*
X104494Y58712D01*
X103885Y59321D01*
X103089Y59651D01*
X102228D01*
X101432Y59321D01*
X100823Y58712D01*
X100493Y57916D01*
Y57055D01*
X100541Y56940D01*
X100197Y56596D01*
X99735Y56788D01*
Y58403D01*
X101903Y60571D01*
X102531Y60311D01*
X103392D01*
X104188Y60641D01*
X104797Y61250D01*
X104850Y61376D01*
X110716D01*
X110779Y61060D01*
X110970Y60773D01*
X111257Y60582D01*
X111594Y60514D01*
X116949D01*
X117287Y60582D01*
X117573Y60773D01*
X117765Y61060D01*
X117832Y61398D01*
Y63602D01*
X117765Y63940D01*
X117573Y64227D01*
X117287Y64418D01*
X116949Y64486D01*
X111594D01*
X111257Y64418D01*
X110970Y64227D01*
X110779Y63940D01*
X110711Y63602D01*
Y63600D01*
X104840D01*
X104797Y63703D01*
X104188Y64312D01*
X103392Y64642D01*
X102531D01*
X101735Y64312D01*
X101126Y63703D01*
X100796Y62907D01*
Y62609D01*
X97837Y59649D01*
X97596Y59289D01*
X97511Y58863D01*
X97511Y58863D01*
Y50564D01*
X95930Y48983D01*
X95379Y49121D01*
X95294Y49414D01*
X95374Y49494D01*
X95374Y49494D01*
X95615Y49854D01*
X95700Y50280D01*
X95700Y50280D01*
Y51374D01*
X95978Y51791D01*
X96093Y52367D01*
Y54729D01*
X95978Y55305D01*
X95652Y55794D01*
X95164Y56120D01*
X94588Y56235D01*
X94011Y56120D01*
X93739Y55938D01*
X93239Y56200D01*
Y57333D01*
X93452Y57421D01*
X94061Y58030D01*
X94391Y58826D01*
Y59688D01*
X94061Y60483D01*
X93452Y61093D01*
X92656Y61422D01*
X91795D01*
X91081Y61127D01*
X90581Y61329D01*
Y74906D01*
X91081Y75058D01*
X91190Y74895D01*
X91480Y74701D01*
X91822Y74634D01*
X96015D01*
X96356Y74701D01*
X96646Y74895D01*
X96840Y75185D01*
X96847Y75222D01*
X98491D01*
X98559Y75058D01*
X99168Y74449D01*
X99964Y74119D01*
X100825D01*
X101621Y74449D01*
X102230Y75058D01*
X102560Y75854D01*
Y76715D01*
X102230Y77511D01*
X101621Y78120D01*
X100825Y78450D01*
X99964D01*
X99168Y78120D01*
X98559Y77511D01*
X98532Y77446D01*
X96969D01*
X96672Y77833D01*
X96672Y77833D01*
X96659Y77855D01*
X96691Y78329D01*
X96701Y78435D01*
X96788Y78493D01*
X97025Y78848D01*
X97109Y79267D01*
Y79623D01*
X93918D01*
Y80623D01*
X97109D01*
Y80979D01*
X97025Y81398D01*
X96788Y81753D01*
X96701Y81811D01*
X96691Y81917D01*
X96659Y82391D01*
X96672Y82413D01*
X96840Y82665D01*
X96908Y83007D01*
Y84720D01*
X96840Y85061D01*
X96704Y85264D01*
Y85885D01*
X96897Y85965D01*
X97506Y86574D01*
X97836Y87370D01*
Y88231D01*
X97506Y89027D01*
X96897Y89636D01*
X96101Y89966D01*
X95240D01*
X94444Y89636D01*
X93835Y89027D01*
X93505Y88231D01*
Y87370D01*
X93835Y86574D01*
X94296Y86113D01*
X94089Y85613D01*
X91822D01*
X91480Y85545D01*
X91190Y85351D01*
X91081Y85188D01*
X90581Y85340D01*
Y93410D01*
X90581Y93410D01*
X90531Y93664D01*
X90883Y94021D01*
X90927Y94041D01*
X91499Y93804D01*
X92361D01*
X93157Y94134D01*
X93766Y94743D01*
X94095Y95539D01*
Y96400D01*
X93766Y97196D01*
X93157Y97805D01*
X92361Y98135D01*
X91499D01*
X91385Y98087D01*
X90286Y99186D01*
Y99909D01*
X90786Y99958D01*
X90800Y99889D01*
X90993Y99600D01*
X91283Y99406D01*
X91625Y99338D01*
X95818D01*
X96160Y99406D01*
X96181Y99420D01*
X96467Y99590D01*
X96892Y99362D01*
X97200Y99055D01*
X97996Y98725D01*
X98857D01*
X99653Y99055D01*
X100262Y99664D01*
X100592Y100460D01*
Y101321D01*
X100262Y102117D01*
X99653Y102726D01*
X98857Y103056D01*
X97996D01*
X97200Y102726D01*
X96749Y102859D01*
X96591Y103198D01*
X96829Y103553D01*
X96912Y103972D01*
Y104328D01*
X93721D01*
Y105328D01*
X96912D01*
Y105684D01*
X96829Y106103D01*
X96591Y106457D01*
X96504Y106516D01*
X96494Y106622D01*
X96463Y107096D01*
X96475Y107118D01*
X96643Y107370D01*
X96711Y107712D01*
Y109424D01*
X96643Y109766D01*
X96585Y109853D01*
X96602Y110374D01*
X97211Y110983D01*
X97540Y111779D01*
Y112640D01*
X97211Y113436D01*
X96601Y114045D01*
X95806Y114375D01*
X94944D01*
X94148Y114045D01*
X93539Y113436D01*
X93210Y112640D01*
Y111779D01*
X93539Y110983D01*
X93705Y110817D01*
X93498Y110317D01*
X91625D01*
X91283Y110249D01*
X90993Y110056D01*
X90800Y109766D01*
X90732Y109424D01*
Y107712D01*
X90800Y107370D01*
X90968Y107118D01*
X90980Y107096D01*
X90961Y106805D01*
X90786Y106679D01*
X90286Y106935D01*
Y107091D01*
X90286Y107092D01*
X90201Y107517D01*
X89960Y107878D01*
X89960Y107878D01*
X88484Y109354D01*
X88123Y109595D01*
X87698Y109680D01*
X87698Y109680D01*
X86778D01*
X86761Y109766D01*
X86568Y110056D01*
X86278Y110249D01*
X85936Y110317D01*
X81743D01*
X81401Y110249D01*
X81112Y110056D01*
X80918Y109766D01*
X80850Y109424D01*
Y107712D01*
X80918Y107370D01*
X81112Y107080D01*
X81268Y106976D01*
X81293Y106887D01*
Y106509D01*
X81268Y106420D01*
X81112Y106316D01*
X80918Y106026D01*
X80901Y105940D01*
X78741D01*
Y106599D01*
X75591D01*
Y103056D01*
X75591Y103056D01*
X75591D01*
X75578Y102562D01*
X75232Y102216D01*
X74902Y101420D01*
Y100558D01*
X75232Y99763D01*
X75841Y99154D01*
X76637Y98824D01*
X77499D01*
X78294Y99154D01*
X78904Y99763D01*
X79233Y100558D01*
Y101420D01*
X78904Y102216D01*
X78563Y102556D01*
X78741Y103056D01*
X78741D01*
Y103716D01*
X80901D01*
X80918Y103630D01*
X81112Y103340D01*
X81268Y103235D01*
X81293Y103147D01*
Y102769D01*
X81268Y102680D01*
X81112Y102576D01*
X80918Y102286D01*
X80850Y101944D01*
Y100231D01*
X80918Y99889D01*
X81112Y99600D01*
X81401Y99406D01*
X81743Y99338D01*
X82385D01*
X82736Y99032D01*
X82821Y98606D01*
X83007Y98328D01*
X83012Y98243D01*
X82967Y98036D01*
X82841Y97759D01*
X82239Y97510D01*
X81630Y96901D01*
X81582Y96786D01*
X73032D01*
Y97249D01*
X69489D01*
Y94099D01*
X73032D01*
Y94562D01*
X81582D01*
X81630Y94448D01*
X82239Y93839D01*
X83035Y93509D01*
X83896D01*
X84692Y93839D01*
X85301Y94448D01*
X85551Y95050D01*
X86093Y95215D01*
X88358Y92950D01*
Y63187D01*
X87858Y63050D01*
X87697Y63291D01*
X87697Y63291D01*
X77362Y73626D01*
X77001Y73867D01*
X76576Y73952D01*
X76576Y73952D01*
X73032D01*
Y74414D01*
X69489D01*
Y71265D01*
X73032D01*
Y71728D01*
X76115D01*
X81098Y66745D01*
X80891Y66245D01*
X79733D01*
Y64973D01*
X81202D01*
Y65934D01*
X81702Y66141D01*
X85799Y62044D01*
Y56094D01*
X85701Y56017D01*
X85299Y55872D01*
X85298Y55873D01*
X84927Y56120D01*
X84351Y56235D01*
X83775Y56120D01*
X83405Y55873D01*
X83072Y55825D01*
X82738Y55873D01*
X82368Y56120D01*
X81792Y56235D01*
X81216Y56120D01*
X80846Y55873D01*
X80845Y55872D01*
X80443Y56017D01*
X80345Y56094D01*
Y58962D01*
X81005D01*
Y62111D01*
X77462D01*
X77462Y62111D01*
X77462Y62111D01*
X77431Y62214D01*
X77808Y62702D01*
X78733D01*
Y63973D01*
X77265D01*
Y62731D01*
X76890Y62398D01*
X76818Y62471D01*
X76022Y62800D01*
X75161D01*
X74365Y62471D01*
X73756Y61861D01*
X73426Y61066D01*
Y60204D01*
X73756Y59408D01*
X74365Y58799D01*
X75161Y58469D01*
X76022D01*
X76818Y58799D01*
X76967Y58948D01*
X77462Y58962D01*
X77462Y58962D01*
X78121D01*
Y55723D01*
X77842Y55305D01*
X77728Y54729D01*
Y52367D01*
X77842Y51791D01*
X78169Y51303D01*
X78657Y50976D01*
X79233Y50862D01*
X79809Y50976D01*
X80179Y51224D01*
X80181Y51224D01*
X80583Y51079D01*
X80680Y51003D01*
Y49356D01*
X80263Y49183D01*
X79654Y48574D01*
X79324Y47778D01*
Y46917D01*
X79654Y46121D01*
X79965Y45810D01*
X79757Y45310D01*
X71064D01*
Y58174D01*
X65552Y63686D01*
X47836D01*
X39709Y71813D01*
X39980Y72249D01*
X40315Y72249D01*
X44784D01*
Y77564D01*
X42066D01*
Y82118D01*
X42507Y82231D01*
X42566Y82232D01*
X43164Y81634D01*
X43960Y81304D01*
X44821D01*
X45617Y81634D01*
X46226Y82243D01*
X46274Y82358D01*
X50198D01*
Y81107D01*
X52137D01*
Y74119D01*
X51773D01*
Y70182D01*
X56497D01*
Y74119D01*
X54361D01*
Y81107D01*
X55119D01*
Y86422D01*
X50198D01*
Y84581D01*
X46274D01*
X46226Y84696D01*
X45689Y85233D01*
X45769Y85733D01*
X45769D01*
Y88883D01*
X42378Y88883D01*
X42155Y89277D01*
X42378Y89670D01*
X45769D01*
Y92820D01*
X44784D01*
X44684Y93320D01*
X45224Y93543D01*
X45833Y94152D01*
X45901Y94316D01*
X51871D01*
Y93509D01*
X56595D01*
Y97446D01*
X54459D01*
Y104336D01*
X55217D01*
Y109651D01*
X50296D01*
Y104336D01*
X52236D01*
Y97446D01*
X51871D01*
Y96540D01*
X45860D01*
X45833Y96605D01*
X45224Y97215D01*
X45060Y97282D01*
Y98233D01*
X45670D01*
Y101383D01*
X42387D01*
X42154Y101777D01*
X42387Y102170D01*
X45670D01*
Y105320D01*
X44488D01*
X44389Y105820D01*
X44928Y106043D01*
X45537Y106652D01*
X45867Y107448D01*
Y108310D01*
X45537Y109106D01*
X44928Y109715D01*
X44133Y110044D01*
X43271D01*
X42475Y109715D01*
X41866Y109106D01*
X41536Y108310D01*
Y107448D01*
X41584Y107334D01*
X40890Y106640D01*
X40428Y106831D01*
Y106887D01*
X37599D01*
X34771D01*
Y103770D01*
X34307Y103470D01*
X34271Y103475D01*
X34077Y103766D01*
X33751Y103983D01*
X33367Y104060D01*
X30217D01*
X29833Y103983D01*
X29508Y103766D01*
X29314Y103475D01*
X29277Y103470D01*
X28814Y103770D01*
Y106887D01*
X26485D01*
Y100671D01*
X27599D01*
X28064Y100763D01*
X28458Y101026D01*
X28721Y101420D01*
X29214Y101335D01*
Y99710D01*
X29290Y99326D01*
X29508Y99000D01*
X29833Y98782D01*
X30217Y98706D01*
X30829D01*
Y91343D01*
X30021D01*
Y88194D01*
X33564D01*
Y91343D01*
X32756D01*
Y98706D01*
X33367D01*
X33751Y98782D01*
X34077Y99000D01*
X34294Y99326D01*
X34371Y99710D01*
Y101335D01*
X34863Y101420D01*
X35127Y101026D01*
X35520Y100763D01*
X35985Y100671D01*
X36700D01*
X36775Y100202D01*
X35979Y99872D01*
X35370Y99263D01*
X35040Y98467D01*
Y97606D01*
X35370Y96810D01*
X35979Y96201D01*
X36775Y95871D01*
X37636D01*
X38432Y96201D01*
X39041Y96810D01*
X39089Y96925D01*
X39842D01*
Y91245D01*
X39842Y91245D01*
X39842Y91245D01*
Y76277D01*
X39842Y76277D01*
X39863Y76169D01*
Y72734D01*
X39863Y72366D01*
X39427Y72095D01*
X31300Y80221D01*
X30068D01*
X29877Y80683D01*
X32318Y83125D01*
X32527Y83437D01*
X32600Y83806D01*
Y84257D01*
X33564D01*
Y87406D01*
X30021D01*
Y84257D01*
X30021D01*
X30225Y83757D01*
X26690Y80221D01*
X4226D01*
X3892Y80721D01*
X3938Y80833D01*
Y81156D01*
X4127Y81316D01*
X4394Y81479D01*
X4400Y81480D01*
X4676Y81425D01*
X8869D01*
X9211Y81493D01*
X9501Y81686D01*
X9694Y81976D01*
X9702Y82013D01*
X10729D01*
X10835Y81908D01*
X11341Y81698D01*
X11889D01*
X12396Y81908D01*
X12783Y82295D01*
X12993Y82802D01*
Y83350D01*
X12783Y83856D01*
X12776Y83863D01*
Y86028D01*
X12783Y86035D01*
X12993Y86542D01*
Y87090D01*
X12783Y87596D01*
X12776Y87603D01*
Y89670D01*
X12882Y89776D01*
X13092Y90282D01*
Y90830D01*
X12882Y91337D01*
X12494Y91724D01*
X11988Y91934D01*
X11440D01*
X10933Y91724D01*
X10926Y91717D01*
X9721D01*
X9694Y91853D01*
X9501Y92142D01*
X9211Y92336D01*
X8869Y92404D01*
X4676D01*
X4334Y92336D01*
X4045Y92142D01*
X3851Y91853D01*
X3783Y91511D01*
Y89798D01*
X3851Y89456D01*
X4045Y89167D01*
X4201Y89062D01*
X4226Y88974D01*
Y88595D01*
X4201Y88507D01*
X4045Y88402D01*
X3851Y88112D01*
X3834Y88026D01*
X3741D01*
X3316Y87942D01*
X2955Y87701D01*
X2955Y87701D01*
X1774Y86519D01*
X1533Y86159D01*
X1503Y86012D01*
X1003Y86061D01*
Y106304D01*
Y107012D01*
X1188Y108417D01*
X1555Y109786D01*
X2097Y111094D01*
X2806Y112321D01*
X3668Y113445D01*
X4670Y114447D01*
X5794Y115310D01*
X7021Y116018D01*
X8330Y116560D01*
X9698Y116927D01*
X11103Y117112D01*
X126693D01*
X128098Y116927D01*
D02*
G37*
G36*
X24804Y74021D02*
Y69984D01*
X19644Y71033D01*
X17463Y73214D01*
X1871D01*
Y78843D01*
X19981D01*
X24804Y74021D01*
D02*
G37*
G36*
X13682Y69867D02*
X9351Y65536D01*
Y63144D01*
X5585D01*
Y65661D01*
X1871Y69375D01*
X1871Y72328D01*
X13682D01*
Y69867D01*
D02*
G37*
G36*
X17324Y59729D02*
X6399D01*
Y61895D01*
X9351D01*
X10139Y62682D01*
Y65143D01*
X15060Y70064D01*
Y71540D01*
X17324D01*
Y59729D01*
D02*
G37*
G36*
X4497Y61914D02*
X5099Y61927D01*
Y56245D01*
X4497D01*
Y52505D01*
X3473D01*
Y52899D01*
X1111D01*
Y65300D01*
X3473D01*
Y65694D01*
X4497D01*
Y61914D01*
D02*
G37*
G36*
X34305Y50248D02*
Y47711D01*
X31844D01*
X31103Y48452D01*
Y49414D01*
Y51284D01*
X33269D01*
X34305Y50248D01*
D02*
G37*
G36*
X17324Y46659D02*
X15060D01*
Y48135D01*
X10139Y53056D01*
Y55517D01*
X9351Y56304D01*
X6399D01*
Y58863D01*
X17324D01*
Y46659D01*
D02*
G37*
G36*
X9351Y52662D02*
X13682Y48332D01*
Y45871D01*
X1871D01*
X1871Y48824D01*
X5585Y52538D01*
Y55055D01*
X9351D01*
Y52662D01*
D02*
G37*
G36*
X24804Y44493D02*
X19784Y39473D01*
X1871D01*
Y44985D01*
X17463D01*
X19644Y47166D01*
X24804Y48215D01*
Y44493D01*
D02*
G37*
G36*
X10999Y36114D02*
X11007Y35991D01*
X10644Y35628D01*
X10434Y35122D01*
Y34573D01*
X10644Y34067D01*
X10700Y34011D01*
Y31846D01*
X10644Y31789D01*
X10434Y31283D01*
Y30735D01*
X10644Y30228D01*
X10700Y30172D01*
Y28106D01*
X10644Y28049D01*
X10434Y27543D01*
Y26995D01*
X10644Y26488D01*
X11031Y26101D01*
X11538Y25891D01*
X12086D01*
X12593Y26101D01*
X12747Y26255D01*
X13839D01*
X14025Y25978D01*
X14315Y25784D01*
X14657Y25716D01*
X18849D01*
X19191Y25784D01*
X19481Y25978D01*
X19674Y26267D01*
X19742Y26609D01*
Y28322D01*
X19674Y28664D01*
X19481Y28953D01*
X19325Y29058D01*
X19299Y29146D01*
Y29525D01*
X19325Y29613D01*
X19481Y29718D01*
X19674Y30008D01*
X19692Y30094D01*
X20877D01*
X21282Y29926D01*
X21830D01*
X22337Y30136D01*
X22724Y30524D01*
X22934Y31030D01*
Y31578D01*
X22724Y32085D01*
X22337Y32472D01*
X21830Y32682D01*
X21282D01*
X20775Y32472D01*
X20621Y32318D01*
X19692D01*
X19674Y32404D01*
X19481Y32694D01*
X19325Y32798D01*
X19299Y32887D01*
Y33265D01*
X19325Y33354D01*
X19481Y33458D01*
X19674Y33748D01*
X19742Y34090D01*
Y35169D01*
X20243Y35376D01*
X31006Y24612D01*
X31006Y24612D01*
X31059Y24577D01*
X31375Y24242D01*
X31399Y23894D01*
Y20674D01*
X31399Y20674D01*
X31399D01*
X31385Y20180D01*
X31138Y19932D01*
X30808Y19136D01*
Y18275D01*
X31138Y17479D01*
X31239Y17378D01*
X30976Y16934D01*
X30198D01*
Y20674D01*
X30611D01*
Y24217D01*
X27462D01*
Y20674D01*
X27974D01*
Y16934D01*
X27166D01*
Y16471D01*
X26052D01*
X20571Y21953D01*
X20210Y22194D01*
X19784Y22278D01*
X19784Y22278D01*
X12863D01*
X9722Y25420D01*
Y26162D01*
X9793Y26267D01*
X9861Y26609D01*
Y28322D01*
X9793Y28664D01*
X9599Y28953D01*
X9443Y29058D01*
X9417Y29146D01*
Y29525D01*
X9443Y29613D01*
X9599Y29718D01*
X9793Y30008D01*
X9861Y30349D01*
Y32062D01*
X9793Y32404D01*
X9599Y32694D01*
X9443Y32798D01*
X9417Y32887D01*
Y33265D01*
X9443Y33354D01*
X9599Y33458D01*
X9793Y33748D01*
X9861Y34090D01*
Y35802D01*
X9808Y36066D01*
X10018Y36356D01*
X10162Y36491D01*
X10874D01*
X10999Y36114D01*
D02*
G37*
G36*
X51039Y14323D02*
X51039Y14323D01*
X51400Y14082D01*
X51826Y13997D01*
X52166Y13669D01*
X52166Y12308D01*
X51695Y12239D01*
X31103D01*
Y14346D01*
X38830D01*
Y13834D01*
X44145D01*
Y18755D01*
X38830D01*
Y16570D01*
X34607D01*
X34400Y17070D01*
X34809Y17479D01*
X35139Y18275D01*
Y19136D01*
X34809Y19932D01*
X34562Y20180D01*
X34548Y20674D01*
X34548Y20674D01*
X34548Y24217D01*
X35020Y24287D01*
X41076D01*
X51039Y14323D01*
D02*
G37*
%LPC*%
G36*
X27599Y114103D02*
X26485D01*
Y107887D01*
X28814D01*
Y112889D01*
X28721Y113354D01*
X28458Y113747D01*
X28064Y114011D01*
X27599Y114103D01*
D02*
G37*
G36*
X25485D02*
X24371D01*
X23906Y114011D01*
X23512Y113747D01*
X23249Y113354D01*
X23157Y112889D01*
Y107887D01*
X25485D01*
Y114103D01*
D02*
G37*
G36*
X39214D02*
X38099D01*
Y107887D01*
X40428D01*
Y112889D01*
X40335Y113354D01*
X40072Y113747D01*
X39678Y114011D01*
X39214Y114103D01*
D02*
G37*
G36*
X37099D02*
X35985D01*
X35520Y114011D01*
X35127Y113747D01*
X34863Y113354D01*
X34771Y112889D01*
Y107887D01*
X37099D01*
Y114103D01*
D02*
G37*
G36*
X67717Y109847D02*
X65560D01*
Y107493D01*
X67717D01*
Y109847D01*
D02*
G37*
G36*
X64560D02*
X62402D01*
Y107493D01*
X64560D01*
Y109847D01*
D02*
G37*
G36*
X126740Y113976D02*
X126484D01*
Y106799D01*
X133661D01*
Y107055D01*
X133366Y108539D01*
X132788Y109936D01*
X131948Y111193D01*
X130878Y112262D01*
X129621Y113103D01*
X128224Y113681D01*
X126740Y113976D01*
D02*
G37*
G36*
X125484D02*
X125228D01*
X123745Y113681D01*
X122348Y113103D01*
X121090Y112262D01*
X120021Y111193D01*
X119181Y109936D01*
X118602Y108539D01*
X118307Y107055D01*
Y106799D01*
X125484D01*
Y113976D01*
D02*
G37*
G36*
X12567D02*
X12311D01*
Y106799D01*
X19488D01*
Y107055D01*
X19193Y108539D01*
X18614Y109936D01*
X17774Y111193D01*
X16705Y112262D01*
X15448Y113103D01*
X14050Y113681D01*
X12567Y113976D01*
D02*
G37*
G36*
X11311D02*
X11055D01*
X9572Y113681D01*
X8174Y113103D01*
X6917Y112262D01*
X5848Y111193D01*
X5008Y109936D01*
X4429Y108539D01*
X4134Y107055D01*
Y106799D01*
X11311D01*
Y113976D01*
D02*
G37*
G36*
X75001Y106796D02*
X73729D01*
Y105328D01*
X75001D01*
Y106796D01*
D02*
G37*
G36*
X72729D02*
X71458D01*
Y105328D01*
X72729D01*
Y106796D01*
D02*
G37*
G36*
X67717Y106493D02*
X65560D01*
Y104139D01*
X67717D01*
Y106493D01*
D02*
G37*
G36*
X64560D02*
X62402D01*
Y104139D01*
X64560D01*
Y106493D01*
D02*
G37*
G36*
X75001Y104328D02*
X73729D01*
Y102859D01*
X75001D01*
Y104328D01*
D02*
G37*
G36*
X72729D02*
X71458D01*
Y102859D01*
X72729D01*
Y104328D01*
D02*
G37*
G36*
X25485Y106887D02*
X23157D01*
Y101885D01*
X23249Y101420D01*
X23512Y101026D01*
X23906Y100763D01*
X24371Y100671D01*
X25485D01*
Y106887D01*
D02*
G37*
G36*
X65060Y101383D02*
X63001D01*
Y99717D01*
X65060D01*
Y101383D01*
D02*
G37*
G36*
X62001D02*
X59942D01*
Y99717D01*
X62001D01*
Y101383D01*
D02*
G37*
G36*
X133661Y105799D02*
X126484D01*
Y98622D01*
X126740D01*
X128224Y98917D01*
X129621Y99496D01*
X130878Y100336D01*
X131948Y101405D01*
X132788Y102663D01*
X133366Y104060D01*
X133661Y105543D01*
Y105799D01*
D02*
G37*
G36*
X125484D02*
X118307D01*
Y105543D01*
X118602Y104060D01*
X119181Y102663D01*
X120021Y101405D01*
X121090Y100336D01*
X122348Y99496D01*
X123745Y98917D01*
X125228Y98622D01*
X125484D01*
Y105799D01*
D02*
G37*
G36*
X19488Y105799D02*
X12311D01*
Y98622D01*
X12567D01*
X14050Y98917D01*
X15448Y99496D01*
X16705Y100336D01*
X17774Y101405D01*
X18614Y102663D01*
X19193Y104060D01*
X19488Y105543D01*
Y105799D01*
D02*
G37*
G36*
X11311D02*
X4134D01*
Y105543D01*
X4429Y104060D01*
X5008Y102663D01*
X5848Y101405D01*
X6917Y100336D01*
X8174Y99496D01*
X9572Y98917D01*
X11055Y98622D01*
X11311D01*
Y105799D01*
D02*
G37*
G36*
X65060Y98717D02*
X63001D01*
Y97052D01*
X65060D01*
Y98717D01*
D02*
G37*
G36*
X62001D02*
X59942D01*
Y97052D01*
X62001D01*
Y98717D01*
D02*
G37*
G36*
X23365Y93017D02*
X22503D01*
X21708Y92687D01*
X21098Y92078D01*
X21010Y91865D01*
X19568D01*
X19383Y92142D01*
X19093Y92336D01*
X18751Y92404D01*
X14558D01*
X14216Y92336D01*
X13927Y92142D01*
X13733Y91853D01*
X13665Y91511D01*
Y89798D01*
X13733Y89456D01*
X13927Y89167D01*
X14083Y89062D01*
X14108Y88974D01*
Y88595D01*
X14083Y88507D01*
X13927Y88402D01*
X13733Y88112D01*
X13665Y87771D01*
Y86058D01*
X13733Y85716D01*
X13927Y85426D01*
X14083Y85322D01*
X14108Y85233D01*
Y84855D01*
X14083Y84767D01*
X13927Y84662D01*
X13733Y84372D01*
X13665Y84030D01*
Y82318D01*
X13733Y81976D01*
X13927Y81686D01*
X14216Y81493D01*
X14558Y81425D01*
X18751D01*
X19093Y81493D01*
X19383Y81686D01*
X19576Y81976D01*
X19593Y82062D01*
X21149D01*
X21197Y81948D01*
X21806Y81339D01*
X22602Y81009D01*
X23463D01*
X24259Y81339D01*
X24868Y81948D01*
X25198Y82744D01*
Y83605D01*
X24868Y84401D01*
X24259Y85010D01*
X23463Y85340D01*
X22602D01*
X21806Y85010D01*
X21197Y84401D01*
X21149Y84286D01*
X19593D01*
X19576Y84372D01*
X19383Y84662D01*
X19226Y84767D01*
X19201Y84855D01*
Y85233D01*
X19226Y85322D01*
X19383Y85426D01*
X19391Y85439D01*
X19720Y85691D01*
X20069Y85631D01*
X20298Y85536D01*
X20846D01*
X21352Y85746D01*
X21740Y86134D01*
X21950Y86640D01*
Y87189D01*
X21740Y87695D01*
X21352Y88083D01*
X20846Y88292D01*
X20298D01*
X20069Y88198D01*
X19720Y88137D01*
X19391Y88389D01*
X19383Y88402D01*
X19226Y88507D01*
X19201Y88595D01*
Y88974D01*
X19226Y89062D01*
X19383Y89167D01*
X19576Y89456D01*
X19613Y89641D01*
X21092D01*
X21098Y89625D01*
X21708Y89016D01*
X22503Y88686D01*
X23365D01*
X24161Y89016D01*
X24770Y89625D01*
X25099Y90421D01*
Y91282D01*
X24770Y92078D01*
X24161Y92687D01*
X23365Y93017D01*
D02*
G37*
G36*
X64863Y93706D02*
X60139D01*
Y89769D01*
X64863D01*
Y90576D01*
X69489D01*
Y90162D01*
X73032D01*
Y93312D01*
X69489D01*
Y92800D01*
X64863D01*
Y93706D01*
D02*
G37*
G36*
X67619Y86619D02*
X65462D01*
Y84265D01*
X67619D01*
Y86619D01*
D02*
G37*
G36*
X64462D02*
X62304D01*
Y84265D01*
X64462D01*
Y86619D01*
D02*
G37*
G36*
X106300Y104680D02*
X102560D01*
X102108Y104492D01*
X101921Y104040D01*
Y84454D01*
X102108Y84002D01*
X102560Y83815D01*
X106300D01*
X106418Y83863D01*
X106891D01*
Y84336D01*
X106939Y84454D01*
Y104040D01*
X106891Y104158D01*
Y104631D01*
X106418D01*
X106300Y104680D01*
D02*
G37*
G36*
X130669Y85166D02*
X127469D01*
Y81701D01*
X132114D01*
Y83720D01*
X132004Y84273D01*
X131691Y84742D01*
X131222Y85056D01*
X130669Y85166D01*
D02*
G37*
G36*
X126469D02*
X123268D01*
X122715Y85056D01*
X122246Y84742D01*
X121933Y84273D01*
X121823Y83720D01*
Y81701D01*
X126469D01*
Y85166D01*
D02*
G37*
G36*
X84782Y89867D02*
X83921D01*
X83125Y89538D01*
X82516Y88928D01*
X82186Y88133D01*
Y87271D01*
X82516Y86475D01*
X82878Y86113D01*
X82671Y85613D01*
X81940D01*
X81598Y85545D01*
X81308Y85351D01*
X81115Y85061D01*
X81047Y84720D01*
Y83007D01*
X81115Y82665D01*
X81308Y82375D01*
X81465Y82271D01*
X81490Y82182D01*
Y81804D01*
X81465Y81715D01*
X81308Y81611D01*
X81115Y81321D01*
X81107Y81284D01*
X78643D01*
Y81982D01*
X79002Y82341D01*
X79332Y83137D01*
Y83999D01*
X79002Y84794D01*
X78393Y85404D01*
X77597Y85733D01*
X76736D01*
X75940Y85404D01*
X75331Y84794D01*
X75001Y83999D01*
Y83198D01*
X75001Y83137D01*
X75167Y82736D01*
X75187Y82498D01*
X75180Y82489D01*
X74881Y82216D01*
X74739Y82190D01*
X74433Y82190D01*
X73631D01*
Y80721D01*
X74902D01*
Y81605D01*
X75151Y81900D01*
X75402Y81968D01*
X75422Y81953D01*
X75493Y81847D01*
Y78450D01*
X78643D01*
Y79060D01*
X81088D01*
X81115Y78925D01*
X81308Y78635D01*
X81465Y78531D01*
X81490Y78442D01*
Y78064D01*
X81465Y77975D01*
X81308Y77871D01*
X81115Y77581D01*
X81047Y77239D01*
Y75527D01*
X81115Y75185D01*
X81308Y74895D01*
X81598Y74701D01*
X81940Y74634D01*
X82944D01*
Y73935D01*
X82829Y73888D01*
X82220Y73279D01*
X81891Y72483D01*
Y71622D01*
X82220Y70826D01*
X82829Y70217D01*
X83625Y69887D01*
X84487D01*
X85283Y70217D01*
X85892Y70826D01*
X86221Y71622D01*
Y72483D01*
X85892Y73279D01*
X85283Y73888D01*
X85168Y73935D01*
Y74634D01*
X86133D01*
X86475Y74701D01*
X86764Y74895D01*
X86958Y75185D01*
X87026Y75527D01*
Y77239D01*
X86958Y77581D01*
X86764Y77871D01*
X86608Y77975D01*
X86583Y78064D01*
Y78442D01*
X86608Y78531D01*
X86764Y78635D01*
X86958Y78925D01*
X87026Y79267D01*
Y80979D01*
X86958Y81321D01*
X86764Y81611D01*
X86608Y81715D01*
X86583Y81804D01*
Y82182D01*
X86608Y82271D01*
X86764Y82375D01*
X86958Y82665D01*
X87026Y83007D01*
Y84720D01*
X86958Y85061D01*
X86764Y85351D01*
X86475Y85545D01*
X86133Y85613D01*
X86032D01*
X85825Y86113D01*
X86187Y86475D01*
X86517Y87271D01*
Y88133D01*
X86187Y88928D01*
X85578Y89538D01*
X84782Y89867D01*
D02*
G37*
G36*
X67619Y83265D02*
X65462D01*
Y80910D01*
X67619D01*
Y83265D01*
D02*
G37*
G36*
X64462D02*
X62304D01*
Y80910D01*
X64462D01*
Y83265D01*
D02*
G37*
G36*
X72631Y82190D02*
X71359D01*
Y80721D01*
X72631D01*
Y82190D01*
D02*
G37*
G36*
X74902Y79721D02*
X73631D01*
Y78253D01*
X74902D01*
Y79721D01*
D02*
G37*
G36*
X72631D02*
X71359D01*
Y78253D01*
X72631D01*
Y79721D01*
D02*
G37*
G36*
X132114Y80701D02*
X127469D01*
Y77236D01*
X130669D01*
X131222Y77346D01*
X131691Y77659D01*
X132004Y78128D01*
X132114Y78681D01*
Y80701D01*
D02*
G37*
G36*
X108269Y104843D02*
X107961Y104782D01*
X107735Y104631D01*
X107678D01*
Y104574D01*
X107527Y104348D01*
X107466Y104040D01*
Y74015D01*
X107466Y74015D01*
X107527Y73708D01*
X107701Y73447D01*
X107701Y73447D01*
X110748Y70400D01*
X110748Y70400D01*
X111008Y70226D01*
X111315Y70165D01*
X116732Y70165D01*
X117040Y70226D01*
X117300Y70400D01*
X117340Y70460D01*
X117573Y70616D01*
X117765Y70902D01*
X117832Y71240D01*
Y73445D01*
X117781Y73703D01*
X117962Y73908D01*
X118183Y74048D01*
X118424Y73908D01*
X119125Y73721D01*
X119851D01*
X120552Y73908D01*
X121180Y74271D01*
X121694Y74784D01*
X122056Y75413D01*
X122244Y76114D01*
Y76839D01*
X122172Y77107D01*
X122607Y77418D01*
X122715Y77346D01*
X123268Y77236D01*
X126469D01*
Y80701D01*
X121823D01*
Y78746D01*
X121668Y78628D01*
X121346Y78516D01*
X121180Y78682D01*
X120552Y79045D01*
X119851Y79232D01*
X119125D01*
X118424Y79045D01*
X118035Y78820D01*
X117535Y79101D01*
X117535Y100990D01*
X117535Y100990D01*
X117474Y101297D01*
X117300Y101558D01*
X114250Y104608D01*
X114250Y104608D01*
X113989Y104782D01*
X113682Y104843D01*
X108269Y104843D01*
D02*
G37*
G36*
X64962Y78056D02*
X62902D01*
Y76391D01*
X64962D01*
Y78056D01*
D02*
G37*
G36*
X61902D02*
X59843D01*
Y76391D01*
X61902D01*
Y78056D01*
D02*
G37*
G36*
X64962Y75391D02*
X62902D01*
Y73725D01*
X64962D01*
Y75391D01*
D02*
G37*
G36*
X61902D02*
X59843D01*
Y73725D01*
X61902D01*
Y75391D01*
D02*
G37*
G36*
X73032Y70477D02*
X69489D01*
Y69768D01*
X64765D01*
Y70379D01*
X60040D01*
Y66442D01*
X64765D01*
Y67545D01*
X69489D01*
Y67328D01*
X73032D01*
Y70477D01*
D02*
G37*
G36*
X116949Y69407D02*
X111594D01*
X111257Y69340D01*
X110970Y69148D01*
X110779Y68862D01*
X110740Y68667D01*
X110188D01*
X110184Y68671D01*
X109388Y69001D01*
X108527D01*
X107731Y68671D01*
X107122Y68062D01*
X106792Y67266D01*
Y66405D01*
X107122Y65609D01*
X107731Y65000D01*
X108527Y64670D01*
X109388D01*
X110184Y65000D01*
X110640Y65456D01*
X111493D01*
X111594Y65436D01*
X116949D01*
X117287Y65503D01*
X117573Y65694D01*
X117657Y65821D01*
X120104D01*
X131761Y54163D01*
Y42974D01*
X131261Y42707D01*
X131222Y42733D01*
X130669Y42843D01*
X127469D01*
Y38878D01*
Y34913D01*
X130669D01*
X131222Y35023D01*
X131261Y35049D01*
X131761Y34782D01*
Y33639D01*
X109420Y11297D01*
X108958Y11488D01*
Y11710D01*
X107489D01*
Y10217D01*
X107638Y9938D01*
X107598Y9878D01*
X103840D01*
X103225Y9756D01*
X102704Y9408D01*
X102556Y9260D01*
X102294D01*
X101804Y9355D01*
X101681Y9970D01*
X101333Y10491D01*
X100152Y11672D01*
X99631Y12020D01*
X99017Y12142D01*
X99017Y12142D01*
X94784D01*
X94784Y12142D01*
X94170Y12020D01*
X93649Y11672D01*
X92370Y10392D01*
X92022Y9871D01*
X91899Y9257D01*
X91899Y9257D01*
X91143D01*
Y4139D01*
X94686D01*
Y3942D01*
X96351D01*
Y6698D01*
X97351D01*
Y3942D01*
X99017D01*
Y4139D01*
X102560D01*
Y6048D01*
X103221D01*
X103221Y6048D01*
X103835Y6170D01*
X104356Y6519D01*
X104505Y6667D01*
X108666D01*
X108666Y6667D01*
X109281Y6789D01*
X109802Y7137D01*
X119521Y16857D01*
X119909Y16538D01*
X119181Y15448D01*
X118602Y14050D01*
X118307Y12567D01*
Y12311D01*
X125484D01*
Y19488D01*
X125228D01*
X123745Y19193D01*
X122348Y18614D01*
X121257Y17886D01*
X120939Y18274D01*
X134502Y31838D01*
X134502Y31838D01*
X134851Y32359D01*
X134973Y32973D01*
Y54828D01*
X134973Y54828D01*
X134851Y55442D01*
X134502Y55963D01*
X121904Y68562D01*
X121383Y68910D01*
X120769Y69032D01*
X120769Y69032D01*
X117651D01*
X117573Y69148D01*
X117287Y69340D01*
X116949Y69407D01*
D02*
G37*
G36*
X78733Y66245D02*
X77265D01*
Y64973D01*
X78733D01*
Y66245D01*
D02*
G37*
G36*
X81202Y63973D02*
X79733D01*
Y62702D01*
X81202D01*
Y63973D01*
D02*
G37*
G36*
X116949Y49922D02*
X114772D01*
Y48236D01*
X118033D01*
Y48839D01*
X117950Y49253D01*
X117715Y49605D01*
X117364Y49840D01*
X116949Y49922D01*
D02*
G37*
G36*
X113772D02*
X111594D01*
X111180Y49840D01*
X110828Y49605D01*
X110593Y49253D01*
X110511Y48839D01*
Y48236D01*
X113772D01*
Y49922D01*
D02*
G37*
G36*
Y47236D02*
X110511D01*
Y46634D01*
X110593Y46219D01*
X110828Y45867D01*
X111180Y45632D01*
X111594Y45550D01*
X113772D01*
Y47236D01*
D02*
G37*
G36*
X118033D02*
X114772D01*
Y45550D01*
X116857D01*
X117047Y45333D01*
X117160Y45082D01*
X116920Y44666D01*
X116732Y43965D01*
Y43240D01*
X116920Y42539D01*
X117283Y41910D01*
X117796Y41397D01*
X118424Y41034D01*
X119125Y40846D01*
X119851D01*
X120552Y41034D01*
X121180Y41397D01*
X121346Y41562D01*
X121668Y41451D01*
X121823Y41332D01*
Y39378D01*
X126469D01*
Y42843D01*
X123268D01*
X122715Y42733D01*
X122607Y42660D01*
X122172Y42972D01*
X122244Y43240D01*
Y43965D01*
X122056Y44666D01*
X121694Y45294D01*
X121180Y45808D01*
X120552Y46170D01*
X119851Y46358D01*
X119125D01*
X118424Y46170D01*
X118007Y46507D01*
X118033Y46634D01*
Y47236D01*
D02*
G37*
G36*
X126469Y38378D02*
X121823D01*
Y36358D01*
X121933Y35805D01*
X122246Y35336D01*
X122715Y35023D01*
X123268Y34913D01*
X126469D01*
Y38378D01*
D02*
G37*
G36*
X95088Y33108D02*
Y30820D01*
X96294D01*
Y31501D01*
X96164Y32154D01*
X95794Y32707D01*
X95240Y33077D01*
X95088Y33108D01*
D02*
G37*
G36*
X96294Y29820D02*
X95088D01*
Y27532D01*
X95240Y27563D01*
X95794Y27933D01*
X96164Y28486D01*
X96294Y29139D01*
Y29820D01*
D02*
G37*
G36*
X59548Y24513D02*
X56399D01*
Y20969D01*
X56399Y20969D01*
X56399D01*
X56385Y20475D01*
X56138Y20228D01*
X55808Y19432D01*
Y18570D01*
X56138Y17774D01*
X56747Y17165D01*
X57543Y16836D01*
X58404D01*
X59200Y17165D01*
X59809Y17774D01*
X60139Y18570D01*
Y19432D01*
X59809Y20228D01*
X59562Y20475D01*
X59548Y20969D01*
X59548Y20969D01*
Y24513D01*
D02*
G37*
G36*
X102560Y17918D02*
X98623D01*
Y12800D01*
X102560D01*
Y17918D01*
D02*
G37*
G36*
X108958Y13981D02*
X107489D01*
Y12710D01*
X108958D01*
Y13981D01*
D02*
G37*
G36*
X106489D02*
X105021D01*
Y12710D01*
X106489D01*
Y13981D01*
D02*
G37*
G36*
X126740Y19488D02*
X126484D01*
Y12311D01*
X133661D01*
Y12567D01*
X133366Y14050D01*
X132788Y15448D01*
X131948Y16705D01*
X130878Y17774D01*
X129621Y18614D01*
X128224Y19193D01*
X126740Y19488D01*
D02*
G37*
G36*
X12567D02*
X12311D01*
Y12311D01*
X19488D01*
Y12567D01*
X19193Y14050D01*
X18614Y15448D01*
X17774Y16705D01*
X16705Y17774D01*
X15448Y18614D01*
X14050Y19193D01*
X12567Y19488D01*
D02*
G37*
G36*
X11311D02*
X11055D01*
X9572Y19193D01*
X8174Y18614D01*
X6917Y17774D01*
X5848Y16705D01*
X5008Y15448D01*
X4429Y14050D01*
X4134Y12567D01*
Y12311D01*
X11311D01*
Y19488D01*
D02*
G37*
G36*
X106489Y11710D02*
X105021D01*
Y10438D01*
X106489D01*
Y11710D01*
D02*
G37*
G36*
X88584Y9946D02*
X87115D01*
Y8674D01*
X88584D01*
Y9946D01*
D02*
G37*
G36*
X86115D02*
X84647D01*
Y8674D01*
X86115D01*
Y9946D01*
D02*
G37*
G36*
X35040Y8863D02*
X33375D01*
Y6804D01*
X35040D01*
Y8863D01*
D02*
G37*
G36*
X32375D02*
X30710D01*
Y6804D01*
X32375D01*
Y8863D01*
D02*
G37*
G36*
X88584Y7674D02*
X87115D01*
Y6403D01*
X88584D01*
Y7674D01*
D02*
G37*
G36*
X86115D02*
X84647D01*
Y6403D01*
X86115D01*
Y7674D01*
D02*
G37*
G36*
X69194Y6796D02*
X66839D01*
Y4639D01*
X69194D01*
Y6796D01*
D02*
G37*
G36*
X65839D02*
X63485D01*
Y4639D01*
X65839D01*
Y6796D01*
D02*
G37*
G36*
X44341Y6649D02*
X41987D01*
Y4491D01*
X44341D01*
Y6649D01*
D02*
G37*
G36*
X40987D02*
X38633D01*
Y4491D01*
X40987D01*
Y6649D01*
D02*
G37*
G36*
X133661Y11311D02*
X126484D01*
Y4134D01*
X126740D01*
X128224Y4429D01*
X129621Y5008D01*
X130878Y5848D01*
X131948Y6917D01*
X132788Y8174D01*
X133366Y9572D01*
X133661Y11055D01*
Y11311D01*
D02*
G37*
G36*
X125484D02*
X118307D01*
Y11055D01*
X118602Y9572D01*
X119181Y8174D01*
X120021Y6917D01*
X121090Y5848D01*
X122348Y5008D01*
X123745Y4429D01*
X125228Y4134D01*
X125484D01*
Y11311D01*
D02*
G37*
G36*
X19488Y11311D02*
X12311D01*
Y4134D01*
X12567D01*
X14050Y4429D01*
X15448Y5008D01*
X16705Y5848D01*
X17774Y6917D01*
X18614Y8174D01*
X19193Y9572D01*
X19488Y11055D01*
Y11311D01*
D02*
G37*
G36*
X11311D02*
X4134D01*
Y11055D01*
X4429Y9572D01*
X5008Y8174D01*
X5848Y6917D01*
X6917Y5848D01*
X8174Y5008D01*
X9572Y4429D01*
X11055Y4134D01*
X11311D01*
Y11311D01*
D02*
G37*
G36*
X60040Y5903D02*
X58375D01*
Y3844D01*
X60040D01*
Y5903D01*
D02*
G37*
G36*
X57375D02*
X55710D01*
Y3844D01*
X57375D01*
Y5903D01*
D02*
G37*
G36*
X35040Y5804D02*
X33375D01*
Y3745D01*
X35040D01*
Y5804D01*
D02*
G37*
G36*
X32375D02*
X30710D01*
Y3745D01*
X32375D01*
Y5804D01*
D02*
G37*
%LPD*%
G36*
X113682Y104040D02*
X116732Y100990D01*
X116732Y70968D01*
X111315Y70968D01*
X108269Y74015D01*
Y104040D01*
X113682Y104040D01*
D02*
G37*
D14*
X32284Y46166D02*
D03*
X33859D02*
D03*
X35434D02*
D03*
X32284Y47741D02*
D03*
X33859D02*
D03*
X35434D02*
D03*
D15*
X43111Y46166D02*
D03*
D16*
X43151Y48135D02*
D03*
Y50103D02*
D03*
X40198Y48135D02*
D03*
Y50103D02*
D03*
Y46166D02*
D03*
D17*
X64371Y47938D02*
D03*
Y40458D02*
D03*
X55710Y47938D02*
D03*
Y44198D02*
D03*
Y40458D02*
D03*
D18*
X94588Y30320D02*
D03*
X92028D02*
D03*
X89469D02*
D03*
X86910D02*
D03*
X84351D02*
D03*
X81792D02*
D03*
X79233D02*
D03*
Y53548D02*
D03*
X81792D02*
D03*
X84351D02*
D03*
X86910D02*
D03*
X89469D02*
D03*
X92028D02*
D03*
X94588D02*
D03*
D19*
X93111Y15359D02*
D03*
X100592D02*
D03*
X93111Y6698D02*
D03*
X96851D02*
D03*
X100592D02*
D03*
D20*
X93721Y101088D02*
D03*
Y104828D02*
D03*
Y108568D02*
D03*
X83840Y101088D02*
D03*
Y104828D02*
D03*
Y108568D02*
D03*
X93918Y76383D02*
D03*
Y80123D02*
D03*
Y83863D02*
D03*
X84036Y76383D02*
D03*
Y80123D02*
D03*
Y83863D02*
D03*
X16655Y83174D02*
D03*
Y86914D02*
D03*
Y90654D02*
D03*
X6773Y83174D02*
D03*
Y86914D02*
D03*
Y90654D02*
D03*
X6871Y34946D02*
D03*
Y31206D02*
D03*
Y27466D02*
D03*
X16753Y34946D02*
D03*
Y31206D02*
D03*
Y27466D02*
D03*
D21*
X64371Y30911D02*
D03*
Y34848D02*
D03*
X59056Y34749D02*
D03*
Y30812D02*
D03*
X48328Y58273D02*
D03*
Y54336D02*
D03*
X31792Y85832D02*
D03*
Y89769D02*
D03*
X48328Y37800D02*
D03*
Y41737D02*
D03*
X71261Y95674D02*
D03*
Y91737D02*
D03*
X43899Y99808D02*
D03*
Y103745D02*
D03*
X71261Y72840D02*
D03*
Y68903D02*
D03*
X43997Y87308D02*
D03*
Y91245D02*
D03*
X75395Y5221D02*
D03*
Y9159D02*
D03*
Y19099D02*
D03*
Y15162D02*
D03*
X35729Y41442D02*
D03*
Y37505D02*
D03*
X32088Y41442D02*
D03*
Y37505D02*
D03*
X39371D02*
D03*
Y41442D02*
D03*
X28446Y37505D02*
D03*
Y41442D02*
D03*
X24903Y37505D02*
D03*
Y41442D02*
D03*
X79233Y60536D02*
D03*
Y64473D02*
D03*
X86615Y8174D02*
D03*
Y12111D02*
D03*
X106989Y12210D02*
D03*
Y8273D02*
D03*
X10139Y71084D02*
D03*
Y75021D02*
D03*
X12501Y71084D02*
D03*
Y75021D02*
D03*
X7777Y71084D02*
D03*
Y75021D02*
D03*
X3052Y71068D02*
D03*
Y75005D02*
D03*
X5414Y71084D02*
D03*
Y75021D02*
D03*
X5413Y47151D02*
D03*
Y43214D02*
D03*
X3051Y47151D02*
D03*
Y43214D02*
D03*
X7777Y47151D02*
D03*
Y43214D02*
D03*
X10139Y47151D02*
D03*
Y43214D02*
D03*
X12501Y47151D02*
D03*
Y43214D02*
D03*
D22*
X27379Y54852D02*
D03*
X23442D02*
D03*
X27363Y50399D02*
D03*
X23426D02*
D03*
X27379Y59306D02*
D03*
X23442D02*
D03*
X27363Y68214D02*
D03*
X23426D02*
D03*
X27379Y63760D02*
D03*
X23442D02*
D03*
X54036Y22741D02*
D03*
X57973D02*
D03*
X29036Y22446D02*
D03*
X32973D02*
D03*
X109253Y91376D02*
D03*
X105316D02*
D03*
X109253Y102859D02*
D03*
X105316D02*
D03*
X109253Y85635D02*
D03*
X105316D02*
D03*
X109253Y97118D02*
D03*
X105316D02*
D03*
X64962Y57387D02*
D03*
X61025D02*
D03*
Y53647D02*
D03*
X64962D02*
D03*
X77166Y104828D02*
D03*
X73229D02*
D03*
X77068Y80221D02*
D03*
X73131D02*
D03*
X16044Y61029D02*
D03*
X19981D02*
D03*
X16044Y63391D02*
D03*
X19981D02*
D03*
X16044Y70477D02*
D03*
X19981D02*
D03*
X16044Y65753D02*
D03*
X19981D02*
D03*
X16044Y68115D02*
D03*
X19981D02*
D03*
X16044Y52564D02*
D03*
X19981D02*
D03*
X16044Y47840D02*
D03*
X19981D02*
D03*
X16044Y50203D02*
D03*
X19981D02*
D03*
X16044Y54926D02*
D03*
X19981D02*
D03*
X16044Y57288D02*
D03*
X19981D02*
D03*
D23*
X32182Y51284D02*
D03*
X35340D02*
D03*
D24*
X33761Y62308D02*
D03*
Y60733D02*
D03*
Y59158D02*
D03*
Y57584D02*
D03*
Y56009D02*
D03*
Y54434D02*
D03*
Y52859D02*
D03*
Y63883D02*
D03*
Y65458D02*
D03*
D25*
X54233Y95477D02*
D03*
X62501Y99217D02*
D03*
Y91737D02*
D03*
X54135Y72151D02*
D03*
X62402Y75891D02*
D03*
Y68410D02*
D03*
D26*
X54135Y14670D02*
D03*
X57875Y6403D02*
D03*
X50395D02*
D03*
X29135Y14572D02*
D03*
X32875Y6304D02*
D03*
X25395D02*
D03*
D27*
X31792Y101383D02*
D03*
D28*
X37599Y107387D02*
D03*
X25985D02*
D03*
D29*
X126969Y81201D02*
D03*
Y38878D02*
D03*
D30*
X114272Y72342D02*
D03*
Y67421D02*
D03*
Y62500D02*
D03*
Y57579D02*
D03*
Y52658D02*
D03*
Y47736D02*
D03*
D31*
X65060Y106993D02*
D03*
X52757D02*
D03*
X64962Y83765D02*
D03*
X52658D02*
D03*
X30021Y74906D02*
D03*
X42324D02*
D03*
D32*
X66339Y4139D02*
D03*
Y16442D02*
D03*
X41487Y3991D02*
D03*
Y16294D02*
D03*
D33*
X7462Y54306D02*
D03*
Y63895D02*
D03*
D34*
X7875Y57387D02*
D03*
Y60812D02*
D03*
D35*
X4499Y59099D02*
D03*
D36*
X43957Y60674D02*
D03*
Y54532D02*
D03*
X43899Y41462D02*
D03*
Y35320D02*
D03*
D63*
X106989Y8273D02*
X108666D01*
X103840D02*
X106989D01*
X108666D02*
X133367Y32973D01*
Y54828D01*
X113912Y67062D02*
X114277Y67426D01*
X109184Y67062D02*
X113912D01*
X108958Y66836D02*
X109184Y67062D01*
X114277Y67426D02*
X120769D01*
X133367Y54828D01*
X52391Y29139D02*
X53966Y30714D01*
X33908Y33027D02*
X37796Y29139D01*
X53966Y30714D02*
X54135D01*
X37796Y29139D02*
X52391D01*
X54135Y30714D02*
X54233Y30812D01*
X33908Y33027D02*
Y37505D01*
X35729D01*
X32088D02*
X33908D01*
X54233Y30812D02*
X59056D01*
X55857Y57338D02*
X61025D01*
X55808Y57288D02*
X55857Y57338D01*
X61025D02*
Y57387D01*
X100592Y7260D02*
X100985Y7654D01*
X103221D02*
X103840Y8273D01*
X100592Y6698D02*
Y7260D01*
X100985Y7654D02*
X103221D01*
X93505Y7092D02*
Y9257D01*
X93111Y6698D02*
X93505Y7092D01*
Y9257D02*
X94784Y10536D01*
X99017D01*
X100198Y7092D02*
Y9355D01*
X99017Y10536D02*
X100198Y9355D01*
Y7092D02*
X100592Y6698D01*
D64*
X102962Y62476D02*
X102973Y62488D01*
X114260D01*
X114272Y62500D01*
X102708Y57534D02*
X102710Y57532D01*
X114225D01*
X114272Y57579D01*
X102658Y57485D02*
X102708Y57534D01*
X102962Y52564D02*
X103008Y52611D01*
X114225D01*
X114272Y52658D01*
X100395Y55221D02*
X102708Y57534D01*
X57973Y19001D02*
Y22741D01*
X43899Y32387D02*
Y35320D01*
X44300Y61017D02*
X47627D01*
X43957Y60674D02*
X44300Y61017D01*
X47627D02*
X47737Y61127D01*
X89174Y98725D02*
X91930Y95969D01*
X87698Y108568D02*
X89174Y107092D01*
Y98725D02*
Y107092D01*
X40954Y103836D02*
Y104934D01*
X41143Y105320D02*
X43702Y107879D01*
X40954Y104934D02*
X41143Y105123D01*
Y105320D01*
X37206Y98036D02*
X40954D01*
Y103836D01*
Y91245D02*
Y98036D01*
Y76277D02*
Y91245D01*
X40954Y91245D02*
X43997D01*
X40954Y91245D02*
X40954Y91245D01*
X40954Y103836D02*
X41044Y103745D01*
X43899D01*
X40954Y76277D02*
X42324Y74906D01*
X32973Y18706D02*
Y22446D01*
X92233Y14118D02*
X93111Y14996D01*
X86615Y12111D02*
X88879D01*
X90885Y14118D02*
X92233D01*
X88879Y12111D02*
X90885Y14118D01*
X93111Y14996D02*
Y15359D01*
X77117Y80172D02*
Y83519D01*
X71261Y95674D02*
X83465D01*
X77068Y100989D02*
X77117Y101038D01*
Y104779D02*
X77166Y104828D01*
X77117Y101038D02*
Y104779D01*
X77117Y83519D02*
X77166Y83568D01*
X77117Y80172D02*
X77117Y80172D01*
X79184Y60586D02*
X79233Y60536D01*
X75641Y60586D02*
X79184D01*
X75591Y60635D02*
X75641Y60586D01*
X86566Y12161D02*
Y20034D01*
X86517Y20084D02*
X86566Y20034D01*
Y12161D02*
X86615Y12111D01*
X55710Y44198D02*
X59351D01*
X58269Y53745D02*
X60926D01*
X43800Y61029D02*
Y63883D01*
X64371Y28450D02*
Y30911D01*
X67028D01*
X28446Y34848D02*
Y37505D01*
X39371Y34946D02*
X43525D01*
X39371D02*
Y37505D01*
X11664Y83125D02*
Y90507D01*
X6743Y83125D02*
X11566D01*
X11664Y90507D02*
X11714Y90556D01*
X11615Y83076D02*
X11664Y83125D01*
X11812Y31009D02*
Y34848D01*
Y27269D02*
Y31009D01*
X11861Y34897D02*
X16704D01*
X16753Y34946D01*
X11812Y34848D02*
X11861Y34897D01*
X11910Y27367D02*
X16655D01*
X11812Y27269D02*
X11910Y27367D01*
X16655D02*
X16753Y27466D01*
X6694Y83174D02*
X6743Y83125D01*
X11566D02*
X11615Y83076D01*
X6842Y90605D02*
X11664D01*
X6694Y90753D02*
X6842Y90605D01*
X11664D02*
X11714Y90556D01*
X7968Y34946D02*
X8610Y35588D01*
Y36685D02*
X9528Y37603D01*
X6871Y34946D02*
X7968D01*
X8610Y35588D02*
Y36685D01*
X9528Y37603D02*
X19588D01*
X31792Y25399D01*
X41536D01*
X16655Y86914D02*
X20572D01*
X76576Y72840D02*
X86910Y62505D01*
Y53548D02*
Y62505D01*
X71261Y72840D02*
X76576D01*
X93117Y48809D02*
X94588Y50280D01*
Y53548D01*
X93117Y48228D02*
Y48809D01*
X95346Y112181D02*
X95375Y112210D01*
X94705Y108568D02*
X95346Y109210D01*
X93721Y108568D02*
X94705D01*
X95346Y109210D02*
Y112181D01*
X102236Y62476D02*
X102962D01*
X98623Y58863D02*
X102236Y62476D01*
X98623Y50103D02*
Y58863D01*
X92717Y44198D02*
X98623Y50103D01*
X62599Y44198D02*
X92717D01*
X59178Y40777D02*
X62599Y44198D01*
X56028Y40777D02*
X59178D01*
X55710Y40458D02*
X56028Y40777D01*
X100395Y49021D02*
Y55221D01*
X85040Y40064D02*
X89469D01*
X81792Y36816D02*
X85040Y40064D01*
X81792Y30320D02*
Y36816D01*
X89469Y30320D02*
Y40064D01*
X93997D01*
X102962Y49029D01*
Y52564D01*
X83367Y42033D02*
X93406D01*
X100395Y49021D01*
X95592Y87722D02*
X95670Y87800D01*
X93918Y83863D02*
X94951D01*
X95592Y84505D01*
Y87722D01*
X81300Y39966D02*
X83367Y42033D01*
X79233Y30320D02*
Y37684D01*
X81300Y39751D01*
Y39966D01*
X81489Y47348D02*
X81792Y47651D01*
Y53548D01*
X89371Y24316D02*
X92028Y26974D01*
X75395Y5221D02*
X78249D01*
X80217Y7190D01*
Y18607D01*
X85926Y24316D01*
X89371D01*
X84351Y24851D02*
Y30320D01*
X75395Y19099D02*
X75879Y19584D01*
X79084D01*
X84351Y24851D01*
X92127Y53647D02*
Y59158D01*
X92225Y59257D01*
X84448Y51090D02*
X86812Y48725D01*
X79233Y53548D02*
Y60536D01*
X86763Y30468D02*
Y36176D01*
X86615Y36324D02*
X86763Y36176D01*
X89469Y53548D02*
Y93410D01*
X83848Y99032D02*
X89469Y93410D01*
X83848Y99032D02*
Y101079D01*
X84351Y53548D02*
X84448Y53452D01*
Y51090D02*
Y53452D01*
X92028Y26974D02*
Y30320D01*
X86763Y30468D02*
X86910Y30320D01*
X92028Y53548D02*
X92127Y53647D01*
X83840Y101088D02*
X83848Y101079D01*
X93721Y101088D02*
X93820Y100989D01*
X98328D01*
X98426Y100891D01*
X93918Y76383D02*
X93967Y76334D01*
X100346D01*
X100395Y76284D01*
X83840Y108568D02*
X87698D01*
X84351Y84178D02*
Y87702D01*
X84036Y83863D02*
X84351Y84178D01*
X84056Y72052D02*
Y76363D01*
X84036Y76383D02*
X84056Y76363D01*
X77117Y80172D02*
X83987D01*
X84036Y80123D01*
X77166Y104828D02*
X83840D01*
X29824Y11127D02*
X72639D01*
X74714Y13202D02*
Y14678D01*
X72639Y11127D02*
X74714Y13202D01*
Y14678D02*
X75198Y15162D01*
X75395D01*
X25395Y6698D02*
X29824Y11127D01*
X25395Y6304D02*
Y6698D01*
X71015Y68656D02*
X71261Y68903D01*
X62649Y68656D02*
X71015D01*
X62402Y68410D02*
X62649Y68656D01*
X71212Y91688D02*
X71261Y91737D01*
X62550Y91688D02*
X71212D01*
X62501Y91737D02*
X62550Y91688D01*
X52765Y9166D02*
X75387D01*
X75395Y9159D01*
X50395Y6796D02*
X52765Y9166D01*
X41536Y25399D02*
X51826Y15109D01*
X29086Y16499D02*
Y22397D01*
X29036Y22446D02*
X29086Y22397D01*
X29135Y15458D02*
Y16450D01*
X54036Y15208D02*
X54135Y15109D01*
X54036Y15208D02*
Y22741D01*
X54135Y15109D02*
X65007D01*
X66339Y16442D01*
X51826Y15109D02*
X53696D01*
X54135Y14670D01*
X28347Y15359D02*
X29135Y14572D01*
X19784Y21166D02*
X25591Y15359D01*
X28347D01*
X29135Y15458D02*
X40651D01*
X41487Y16294D01*
X29135Y14572D02*
Y15458D01*
X12403Y21166D02*
X19784D01*
X8610Y24959D02*
X12403Y21166D01*
X8610Y24959D02*
Y26824D01*
X7968Y27466D02*
X8610Y26824D01*
X6871Y27466D02*
X7968D01*
X43948Y95428D02*
Y99759D01*
X43899Y99808D02*
X43948Y99759D01*
Y95428D02*
X43997Y95379D01*
X44194Y83666D02*
Y87111D01*
X43997Y87308D02*
X44194Y87111D01*
Y83666D02*
X44391Y83469D01*
X16753Y31206D02*
X21458D01*
X21556Y31304D01*
X52363Y83469D02*
X52658Y83765D01*
X44391Y83469D02*
X52363D01*
X52757Y106993D02*
X53347Y106403D01*
X54225Y95477D02*
X54233D01*
X53347Y96355D02*
Y106403D01*
Y96355D02*
X54225Y95477D01*
X54184Y95428D02*
X54233Y95477D01*
X44046Y95428D02*
X54184D01*
X43997Y95379D02*
X44046Y95428D01*
X16753Y90753D02*
X22836D01*
X16655Y90654D02*
X16753Y90753D01*
X22836D02*
X22934Y90851D01*
X52658Y83765D02*
X53249Y83174D01*
X16655D02*
X23032D01*
X54127Y72151D02*
X54135D01*
X53249Y73029D02*
X54127Y72151D01*
X53249Y73029D02*
Y83174D01*
X2560Y81107D02*
Y85733D01*
X3741Y86914D01*
X2560Y32072D02*
Y36914D01*
Y32072D02*
X3426Y31206D01*
X6871D01*
X3741Y86914D02*
X6773D01*
D65*
X28741Y54434D02*
X33761D01*
X29775Y57584D02*
X33761D01*
X28052Y60733D02*
X33761D01*
X29174Y63883D02*
X33761D01*
X28052Y62761D02*
X29174Y63883D01*
X39568Y54434D02*
X39666Y54532D01*
X33761Y54434D02*
X39568D01*
X33761Y63883D02*
X38485D01*
X38781Y60733D02*
X39371Y60143D01*
X33761Y60733D02*
X38781D01*
X28052Y59306D02*
X29775Y57584D01*
X28052Y55123D02*
X28741Y54434D01*
X38546Y52072D02*
X38781D01*
X37759Y51284D02*
X38546Y52072D01*
X35340Y51284D02*
X37759D01*
X39174Y57584D02*
X39273Y57682D01*
X33761Y57584D02*
X39174D01*
X22048Y69592D02*
Y74217D01*
X31637Y83806D02*
Y85676D01*
X22048Y74217D02*
X31637Y83806D01*
X22048Y69592D02*
X23426Y68214D01*
X31637Y85676D02*
X31792Y85832D01*
X39273Y67426D02*
X42915Y71069D01*
X39273Y61717D02*
Y67426D01*
X43151Y48135D02*
X45277D01*
X33859Y44198D02*
X35139D01*
X32580D02*
X33859D01*
Y46166D01*
X69095Y52662D02*
X73623D01*
X60926Y53745D02*
X61025Y53647D01*
X67028Y30911D02*
X67028Y30910D01*
X28446Y37505D02*
X28446Y37505D01*
X43525Y34946D02*
X43899Y35320D01*
X24903Y37505D02*
X28446D01*
X24903Y37505D02*
X24903Y37505D01*
X52068Y49513D02*
X53643Y47938D01*
X52068Y46363D02*
X53643Y47938D01*
X52068Y39670D02*
Y46363D01*
X35729Y41442D02*
X39371D01*
X21802Y59109D02*
X23287Y60594D01*
Y63760D01*
X31792Y89769D02*
Y101383D01*
X22819Y60126D02*
X23287Y60594D01*
X22819Y60126D02*
X23287Y60594D01*
Y68214D02*
X23426Y68353D01*
X21802Y59109D02*
X22819Y60126D01*
X23287Y60594D02*
Y63760D01*
Y68214D01*
X21802Y59109D02*
X22819Y60126D01*
X27379Y61406D02*
X28052Y60733D01*
X27379Y61406D02*
Y63760D01*
X28052Y60733D02*
Y62761D01*
Y55123D02*
Y59306D01*
Y60733D01*
Y62544D02*
Y62761D01*
X64371Y34848D02*
Y40458D01*
X59105Y34798D02*
X64322D01*
X64371Y34848D01*
X59056Y34749D02*
X59105Y34798D01*
X64962Y53745D02*
Y57387D01*
X64863Y53647D02*
X64962Y53745D01*
X64863Y48430D02*
Y53647D01*
X64371Y47938D02*
X64863Y48430D01*
X43111Y42249D02*
X43899Y41462D01*
X43111Y42249D02*
Y46166D01*
X43899Y41462D02*
X44174Y41737D01*
X48328D01*
X43957Y54532D02*
X44154Y54336D01*
X48328D01*
X43151Y53726D02*
X43957Y54532D01*
X43151Y50103D02*
Y53726D01*
X38135Y47993D02*
X38206Y48064D01*
X40127D01*
X40198Y48135D01*
X39371Y41442D02*
Y43903D01*
X24903Y41442D02*
X28446D01*
X28151Y46166D02*
X32284D01*
X24903Y41442D02*
X25058Y41598D01*
Y43074D01*
X28151Y46166D01*
X28446Y41442D02*
X32088D01*
X53643Y47938D02*
X55710D01*
X48328Y58273D02*
X50198D01*
X52068Y49513D02*
Y56403D01*
X50198Y58273D02*
X52068Y56403D01*
X48328Y37800D02*
X48369Y37759D01*
X50157D01*
X52068Y39670D01*
X35434Y47741D02*
X37652Y49960D01*
X40054D01*
X40198Y50103D01*
X35434Y46166D02*
X40198D01*
D66*
X32284Y47741D02*
X33859D01*
D67*
X39273Y61717D02*
D03*
D68*
X32186Y68017D02*
D03*
D69*
X104430Y94247D02*
D03*
D70*
X28003Y59306D02*
D03*
D71*
X21802Y59109D02*
D03*
D72*
X119488Y76476D02*
D03*
Y43602D02*
D03*
D73*
X125984Y106299D02*
D03*
Y11811D02*
D03*
X11811D02*
D03*
Y106299D02*
D03*
D74*
X14469Y68017D02*
D03*
X14076Y50005D02*
D03*
X108958Y77466D02*
D03*
X113584Y82190D02*
D03*
X109056Y82091D02*
D03*
X43899Y32387D02*
D03*
X47737Y61127D02*
D03*
X38781Y52072D02*
D03*
X45277Y48135D02*
D03*
X35139Y44198D02*
D03*
X32580D02*
D03*
X67028Y30910D02*
D03*
X64371Y28450D02*
D03*
X55710Y44198D02*
D03*
X59351D02*
D03*
X58269Y53745D02*
D03*
X43800Y63883D02*
D03*
X28446Y34848D02*
D03*
X39371Y34946D02*
D03*
X11812Y31009D02*
D03*
X11714Y90556D02*
D03*
X11812Y27269D02*
D03*
Y34848D02*
D03*
X16753Y27466D02*
D03*
Y34946D02*
D03*
X11615Y83076D02*
D03*
Y86816D02*
D03*
X20572Y86914D02*
D03*
X6694Y90753D02*
D03*
Y83174D02*
D03*
X21556Y31304D02*
D03*
X2560Y81107D02*
D03*
X2560Y36914D02*
D03*
X38135Y47993D02*
D03*
X39371Y43903D02*
D03*
X3643Y49414D02*
D03*
X12668Y71530D02*
D03*
D75*
X57973Y19001D02*
D03*
X54135Y30714D02*
D03*
X69095Y52662D02*
D03*
X4627Y23135D02*
D03*
X57875Y65458D02*
D03*
X106596Y113292D02*
D03*
X58761Y106796D02*
D03*
X134056Y62505D02*
D03*
X131103Y70871D02*
D03*
X123820Y58568D02*
D03*
X123918Y49611D02*
D03*
X100985Y40753D02*
D03*
X100788Y30418D02*
D03*
X120473Y28056D02*
D03*
X112206Y19592D02*
D03*
X105119Y3548D02*
D03*
X83269Y3450D02*
D03*
X41536Y8371D02*
D03*
X29036Y3548D02*
D03*
X54135D02*
D03*
X43702Y107879D02*
D03*
X37206Y98036D02*
D03*
X23644Y10905D02*
D03*
X32973Y18706D02*
D03*
X108958Y66836D02*
D03*
X55808Y57288D02*
D03*
X83465Y95674D02*
D03*
X77068Y100989D02*
D03*
X77166Y83568D02*
D03*
X75591Y60635D02*
D03*
X86517Y20084D02*
D03*
X31694Y109454D02*
D03*
X59154Y114277D02*
D03*
X72343Y114375D02*
D03*
X104430Y66934D02*
D03*
X67619Y77958D02*
D03*
X77560Y76186D02*
D03*
X93117Y48228D02*
D03*
X76379Y88489D02*
D03*
X58465Y83863D02*
D03*
X37009Y87702D02*
D03*
X24804Y87111D02*
D03*
X36418Y78745D02*
D03*
X51280Y65654D02*
D03*
X69784Y63095D02*
D03*
X73131Y56599D02*
D03*
X73032Y49119D02*
D03*
X72934Y40359D02*
D03*
X73131Y31895D02*
D03*
X72147Y24808D02*
D03*
X65749Y24119D02*
D03*
X48721Y23824D02*
D03*
X25198Y28351D02*
D03*
X23721Y22052D02*
D03*
X38584Y21658D02*
D03*
X95375Y112210D02*
D03*
X102962Y62476D02*
D03*
X102658Y57485D02*
D03*
X102962Y52564D02*
D03*
X95670Y87800D02*
D03*
X81300Y39966D02*
D03*
X81489Y47348D02*
D03*
X98426Y100891D02*
D03*
X100395Y76284D02*
D03*
X91930Y95969D02*
D03*
X92225Y59257D02*
D03*
X84351Y87702D02*
D03*
X86812Y48725D02*
D03*
X86615Y36324D02*
D03*
X84056Y72052D02*
D03*
X44391Y83469D02*
D03*
X43997Y95379D02*
D03*
X22934Y90851D02*
D03*
X23032Y83174D02*
D03*
D76*
X113387Y103351D02*
D03*
Y102086D02*
D03*
Y100820D02*
D03*
Y99555D02*
D03*
Y98290D02*
D03*
Y94493D02*
D03*
Y93228D02*
D03*
Y91962D02*
D03*
Y90697D02*
D03*
Y89431D02*
D03*
Y88166D02*
D03*
Y86900D02*
D03*
Y85635D02*
D03*
Y95758D02*
D03*
Y97024D02*
D03*
X111517Y103351D02*
D03*
Y102086D02*
D03*
Y100820D02*
D03*
Y99555D02*
D03*
Y98290D02*
D03*
Y94493D02*
D03*
Y93228D02*
D03*
Y91962D02*
D03*
Y90697D02*
D03*
Y89431D02*
D03*
Y88166D02*
D03*
Y86900D02*
D03*
Y85635D02*
D03*
Y95758D02*
D03*
Y97024D02*
D03*
X103446Y96729D02*
D03*
Y95463D02*
D03*
Y85340D02*
D03*
Y86605D02*
D03*
Y87871D02*
D03*
Y89136D02*
D03*
Y90401D02*
D03*
Y91667D02*
D03*
Y92932D02*
D03*
Y94198D02*
D03*
Y97994D02*
D03*
Y99260D02*
D03*
Y100525D02*
D03*
Y101791D02*
D03*
Y103056D02*
D03*
X30021Y73627D02*
D03*
X28741D02*
D03*
X31202D02*
D03*
X30021Y76088D02*
D03*
X28741D02*
D03*
X31202D02*
D03*
Y74906D02*
D03*
X28741D02*
D03*
X30021D02*
D03*
D77*
X2127Y53423D02*
D03*
X3052Y60161D02*
D03*
X3052Y58067D02*
D03*
X2127Y60751D02*
D03*
Y64939D02*
D03*
Y56564D02*
D03*
X3052Y55973D02*
D03*
X2127Y62845D02*
D03*
Y54470D02*
D03*
X3052Y62254D02*
D03*
X3052Y59114D02*
D03*
X2127Y58657D02*
D03*
X3052Y64348D02*
D03*
X2127Y63892D02*
D03*
Y61798D02*
D03*
X3052Y63301D02*
D03*
X3052Y54926D02*
D03*
X2127Y59704D02*
D03*
X3052Y57020D02*
D03*
Y53879D02*
D03*
X2127Y57610D02*
D03*
Y55517D02*
D03*
X3052Y61207D02*
D03*
X34794Y65458D02*
D03*
X32727D02*
D03*
X33761Y65458D02*
D03*
X35828Y65458D02*
D03*
X35828Y62308D02*
D03*
X34794D02*
D03*
X33761Y62308D02*
D03*
X32727Y62308D02*
D03*
X35828Y56009D02*
D03*
Y52859D02*
D03*
Y59158D02*
D03*
X34794D02*
D03*
X33761Y59158D02*
D03*
X32727Y59158D02*
D03*
X31694D02*
D03*
X31694Y65458D02*
D03*
X34794Y56009D02*
D03*
X33761Y56009D02*
D03*
X32727Y56009D02*
D03*
X31694D02*
D03*
Y62308D02*
D03*
X34794Y52859D02*
D03*
X33761Y52859D02*
D03*
X32727Y52859D02*
D03*
X31694D02*
D03*
M02*
