M48
;Layer_Color=9474304
;FILE_FORMAT=2:5
INCH,LZ
;TYPE=PLATED
T1F00S00C0.00394
T2F00S00C0.00787
T3F00S00C0.01575
T4F00S00C0.03543
T5F00S00C0.08268
%
T01
X000134Y0053423
Y005447
Y0055517
Y0056564
Y005761
Y0058657
Y0059704
Y0060751
Y0061798
Y0062845
Y0063892
Y0064939
X0002265Y0064348
Y0063301
X0002265Y0062254
X0002265Y0061207
Y0060161
X0002265Y0059114
Y0058067
X0002265Y005702
Y0055973
X0002265Y0054926
X0002265Y0053879
X0030907Y0052859
X003194
X0032973Y0052859
X0034007Y0052859
X003504
Y0056009
X0034007
X0032973Y0056009
X003194Y0056009
X0030907
Y0059158
X003194
X0032973Y0059158
X0034007Y0059158
X003504
Y0062308
X0034007
X0032973Y0062308
X003194Y0062308
X0030907
X0030907Y0065458
X003194
X0032973Y0065458
X0034007Y0065458
X003504
X0030414Y0073627
X0029233
Y0074906
X0030414
Y0076088
X0029233
X0027954
Y0074906
Y0073627
X0102658Y008534
Y0086605
Y0087871
Y0089136
Y0090401
Y0091667
Y0092932
Y0094198
Y0095463
Y0096729
Y0097994
Y009926
Y0100525
Y0101791
Y0103056
X0110729Y0103351
Y0102086
Y010082
Y0099555
Y009829
Y0097024
Y0095759
Y0094493
Y0093228
Y0091962
Y0090697
Y0089431
Y0088166
Y00869
Y0085635
X0112599
Y00869
Y0088166
Y0089431
Y0090697
Y0091962
Y0093228
Y0094493
Y0095759
Y0097024
Y009829
Y0099555
Y010082
Y0102086
Y0103351
T02
X0011025Y0027269
Y0031009
Y0034848
X0015966Y0034946
Y0027466
X0020769Y0031304
X0027658Y0034848
X0038584Y0034946
X0043111Y0032387
X0038584Y0043903
X0034351Y0044198
X0031792
X0037348Y0047993
X0037993Y0052072
X0044489Y0048135
X0054922Y0044198
X0058564
X0057481Y0053745
X004695Y0061127
X0043013Y0063883
X0013682Y0068017
X001188Y007153
X0010828Y0083076
Y0086816
X0010926Y0090556
X0005906Y0090753
Y0083174
X0001773Y0081107
X0019784Y0086914
X0013386Y0050394
X0002855Y0049414
X0001773Y0036914
X0063584Y002845
X0066241Y0030911
X010817Y0077466
X0108269Y0082091
X0112796Y008219
T03
X0003839Y0023135
X0022934Y0022052
X002441Y0028351
X0032186Y0018706
X0037796Y0021658
X0047934Y0023824
X0053347Y0030714
X0057186Y0019001
X0064962Y0024119
X0071359Y0024808
X0072343Y0031895
X0072147Y0040359
X0080513Y0039966
X0080702Y0047348
X0086025Y0048725
X009233Y0048228
X0091438Y0059257
X0101871Y0057485
X0102174Y0052564
Y0062477
X0103643Y0066934
X010817Y0066836
X0099607Y0076284
X0094883Y00878
X0083564Y0087702
X0075591Y0088489
X0076379Y0083568
X0076773Y0076186
X0083269Y0072052
X0074804Y0060635
X0072343Y0056599
X0072245Y0049119
X0068308Y0052662
X0068997Y0063095
X0057088Y0065458
X0050493Y0065655
X0055021Y0057288
X0057678Y0083863
X0043603Y0083469
X0036221Y0087702
X0035631Y0078745
X0022147Y0083272
X0024017Y0087111
X0022147Y0090851
X0036418Y0098036
X004321Y0095379
X0042914Y0107879
X0030907Y0109454
X0057973Y0106796
X0058367Y0114277
X0071556Y0114375
X007628Y0100989
X0082678Y0095674
X0091143Y0095969
X0097639Y0100891
X0094588Y011221
X0105808Y0113292
X0130316Y0070871
X0133269Y0062505
X0123032Y0058568
X0123131Y0049611
X0119686Y0028056
X0111418Y0019592
X0100001Y0030418
X0100198Y0040753
X0085828Y0036324
X0085729Y0020084
X0082481Y000345
X0104332Y0003548
X0053347
X0040749Y0008371
X0028249Y0003548
X0022857Y0010905
X0066832Y0077958
T04
X0118701Y0043602
Y0076476
T05
X0011811Y0011811
Y0106299
X0125984
Y0011811
M30
